<svg width="43" height="47" viewBox="0 0 43 47" fill="none" xmlns="http://www.w3.org/2000/svg">
<g clip-path="url(#clip0_588_3931)">
<path fill-rule="evenodd" clip-rule="evenodd" d="M22.2738 6.4807C22.4562 6.4807 22.637 6.46428 22.816 6.43144C22.995 6.3986 23.1692 6.35083 23.3386 6.28665C23.5063 6.22247 23.6675 6.14336 23.8188 6.05081C23.9702 5.95827 24.1118 5.8523 24.2405 5.73438C24.369 5.61646 24.4847 5.4866 24.5872 5.34779C24.6882 5.20898 24.7744 5.0627 24.8445 4.90746C24.9144 4.75223 24.9665 4.59401 25.0023 4.42982C25.0381 4.26563 25.0561 4.09995 25.0561 3.93128C25.0561 3.76411 25.0381 3.59842 25.0023 3.43423C24.9681 3.27004 24.9144 3.11033 24.8445 2.95659C24.7761 2.80135 24.6898 2.65509 24.5889 2.51478C24.4879 2.37595 24.3723 2.2476 24.2437 2.12818C24.1135 2.01027 23.9734 1.90429 23.8221 1.81174C23.6707 1.71771 23.5095 1.6401 23.3418 1.57592C23.1725 1.51172 22.9984 1.46247 22.8192 1.42963C22.6402 1.3968 22.4594 1.38037 22.2772 1.38037C22.0948 1.38037 21.9141 1.3953 21.735 1.42814C21.5559 1.46098 21.3817 1.50874 21.2125 1.57292C21.0431 1.63711 20.8836 1.71473 20.7322 1.80727C20.5792 1.89981 20.4391 2.00579 20.3089 2.1237C20.1804 2.24162 20.0647 2.37148 19.9638 2.5103C19.8613 2.64911 19.775 2.79539 19.7049 2.95063C19.635 3.10437 19.5812 3.26408 19.5454 3.42826C19.5096 3.59245 19.4917 3.75814 19.4917 3.92531C19.4917 4.09248 19.5096 4.25967 19.5454 4.42384C19.5812 4.58803 19.6333 4.74775 19.7033 4.90149C19.7734 5.05672 19.858 5.2045 19.9606 5.34331C20.0615 5.48212 20.177 5.61198 20.3057 5.7299C20.4359 5.84932 20.5759 5.95529 20.7274 6.04783C20.8787 6.14187 21.0399 6.22098 21.2091 6.28516C21.3769 6.34935 21.5511 6.3971 21.7301 6.42994C21.9092 6.46427 22.0916 6.4807 22.2738 6.4807Z" fill="#F9ED32" fill-opacity="0.7765"/>
<path fill-rule="evenodd" clip-rule="evenodd" d="M35.7517 8.44654C36.5071 9.25107 37.1321 10.1317 37.6254 11.0915C38.1204 12.0512 38.4655 13.0528 38.6625 14.0992C39.2257 17.1216 38.3662 19.9204 38.9685 21.8011C39.1102 22.2235 39.299 22.6266 39.5367 23.0101C39.2534 23.1609 38.9636 23.2967 38.6641 23.4162C38.3662 23.5355 38.0601 23.6401 37.7476 23.7281C37.435 23.8162 37.1191 23.8863 36.7984 23.9415C36.4778 23.9953 36.1537 24.0326 35.8282 24.0535C35.5026 24.0744 35.177 24.0774 34.8497 24.0639C34.5242 24.0504 34.2002 24.0191 33.8779 23.9714C33.5556 23.9237 33.2381 23.858 32.9239 23.7773C32.6097 23.6952 32.3004 23.5983 31.9993 23.4848C31.698 23.3698 31.4033 23.2415 31.1186 23.0967C30.8319 22.9519 30.5568 22.7922 30.2899 22.619C30.0245 22.4444 29.7706 22.2579 29.5279 22.0564C29.2854 21.8563 29.0575 21.6444 28.841 21.4189C28.6261 21.1951 28.4242 20.9592 28.2386 20.7144C28.053 20.4682 27.8822 20.2129 27.7274 19.9502C27.5728 19.686 27.4361 19.4144 27.3156 19.1367C27.1951 18.8592 27.0926 18.5756 27.0079 18.286C26.9232 17.9978 26.8565 17.7053 26.8077 17.4098C26.7588 17.1127 26.7296 16.8157 26.7181 16.5172C26.7084 16.2171 26.7149 15.9187 26.7426 15.6201C26.7686 15.323 26.8125 15.0261 26.876 14.7336C26.9396 14.4394 27.0225 14.1499 27.1218 13.8648C27.2211 13.5797 27.3384 13.302 27.4735 13.0289C27.6069 12.7557 27.7584 12.4915 27.926 12.2348C28.0938 11.9781 28.2776 11.7318 28.4764 11.4945C28.675 11.2557 28.8882 11.0303 29.1145 10.8153C29.3423 10.6004 29.5817 10.3974 29.834 10.2078C30.0863 10.0183 30.3501 9.84214 30.6236 9.67945C30.8987 9.51825 31.182 9.37047 31.475 9.23912C31.7681 9.10628 32.0676 8.98986 32.3753 8.88985C32.683 8.78835 32.9956 8.70477 33.3129 8.6361C33.632 8.56894 33.9528 8.51819 34.2767 8.48385C34.6007 8.45101 34.9262 8.43311 35.2535 8.43311C35.4131 8.43311 35.5839 8.43908 35.7517 8.44654Z" fill="#662D91" fill-opacity="0.7765"/>
<path fill-rule="evenodd" clip-rule="evenodd" d="M38.8283 15.4289C39.0057 17.932 38.4539 20.1994 38.9683 21.8084C39.849 24.5548 43.748 27.0431 41.9263 28.4565C41.3484 28.879 40.3569 28.9074 39.7757 29.3223C38.8495 29.985 39.4828 30.7015 39.5641 31.2194C39.6031 31.4643 39.3606 31.8582 38.5596 32.3374C39.1653 32.7464 39.11 33.0927 38.8934 33.4121C38.5987 33.5972 38.2959 33.7704 37.9834 33.9301C37.6708 34.0912 37.3517 34.2375 37.0262 34.3719C36.6989 34.5047 36.3669 34.6242 36.0298 34.7317C35.6912 34.8375 35.3477 34.9287 35.0009 35.0062C34.6541 35.0854 34.3025 35.1481 33.9493 35.1973C33.596 35.2451 33.2412 35.2794 32.8846 35.2987C32.5265 35.3182 32.1699 35.3226 31.8133 35.3122C31.4553 35.3018 31.0988 35.2764 30.7438 35.2362C30.389 35.1973 30.0373 35.142 29.6873 35.0734C29.3389 35.0047 28.9938 34.9211 28.652 34.8242C28.31 34.7256 27.9747 34.6137 27.6442 34.4882C27.3138 34.3629 26.9914 34.224 26.6739 34.0718C26.3582 33.9197 26.0488 33.7554 25.7493 33.5778C25.448 33.4002 25.1583 33.2091 24.8766 33.0076C24.5951 32.8061 24.3232 32.5927 24.0627 32.3688C23.8023 32.1433 23.5532 31.9091 23.3171 31.6643C23.0794 31.4194 22.8547 31.1642 22.6415 30.9015C22.4298 30.6373 22.2312 30.3656 22.0456 30.0851C21.8601 29.8059 21.6891 29.5179 21.5313 29.2237C21.3749 28.9297 21.2316 28.6297 21.1047 28.3237C20.9761 28.0162 20.8654 27.7058 20.7677 27.3909C20.67 27.0758 20.5903 26.7565 20.5235 26.434C20.4584 26.1116 20.4095 25.7878 20.3753 25.4624C20.3428 25.1355 20.3249 24.8086 20.3232 24.4802C20.3232 24.1533 20.3379 23.8264 20.3689 23.4995C20.3997 23.1726 20.447 22.8488 20.5104 22.5264C20.5723 22.2039 20.6522 21.8846 20.7465 21.5681C20.841 21.2517 20.9501 20.9412 21.0754 20.6338C21.2007 20.3278 21.3407 20.0262 21.497 19.7306C21.6516 19.4351 21.821 19.1471 22.0034 18.8664C22.1872 18.5843 22.3842 18.3112 22.5942 18.047C22.8043 17.7812 23.0273 17.5261 23.2633 17.2798C23.4994 17.0334 23.7468 16.7962 24.0057 16.5707C24.2646 16.3439 24.5332 16.1304 24.8132 15.926C25.0932 15.723 25.383 15.5304 25.6825 15.3513C25.9804 15.1706 26.2881 15.005 26.6039 14.8498C26.9198 14.696 27.2421 14.5557 27.5709 14.4274C27.8998 14.3005 28.2352 14.1871 28.5753 14.087C28.9157 13.987 29.2608 13.902 29.6108 13.8303C29.9592 13.7586 30.3108 13.7034 30.6657 13.6602C31.0206 13.6184 31.3755 13.5914 31.7336 13.5795C32.0902 13.5661 32.4466 13.569 32.8048 13.5855C33.1613 13.6034 33.5163 13.6347 33.8711 13.681C34.2244 13.7274 34.576 13.7885 34.9228 13.8646C35.2712 13.9392 35.6147 14.0303 35.9533 14.1333C36.2919 14.2378 36.6256 14.3557 36.9529 14.487C37.2801 14.6199 37.6008 14.7647 37.9133 14.9229C38.2259 15.0811 38.532 15.2513 38.8283 15.4348V15.4289Z" fill="#92278F" fill-opacity="0.7765"/>
<path fill-rule="evenodd" clip-rule="evenodd" d="M36.2888 39.4544C31.7825 41.1366 25.7494 35.4959 24.9387 46.9996C22.0083 45.2354 18.9038 43.7876 15.6235 42.6546C15.4884 42.4725 15.3597 42.2874 15.2377 42.0978C15.1156 41.9083 14.9999 41.7142 14.8909 41.5187C14.7802 41.3232 14.6776 41.1232 14.5832 40.9217C14.4871 40.7202 14.3976 40.5141 14.3162 40.3082C14.2348 40.1007 14.16 39.8918 14.0931 39.6798C14.0248 39.4679 13.9646 39.2559 13.9125 39.0409C13.8587 38.826 13.8132 38.6095 13.7757 38.3916C13.7367 38.1753 13.7073 37.9558 13.6829 37.7364C13.6601 37.5185 13.6438 37.2976 13.6357 37.0782C13.6276 36.8572 13.6276 36.6377 13.634 36.4168C13.6406 36.1974 13.6552 35.978 13.6764 35.7586C13.6975 35.5392 13.7269 35.3198 13.7643 35.1033C13.8002 34.8854 13.8441 34.6691 13.8961 34.4541C13.9467 34.2377 14.0068 34.0242 14.0721 33.8138C14.1388 33.6018 14.212 33.3913 14.2917 33.1839C14.3716 32.9763 14.4595 32.7719 14.5538 32.5689C14.6483 32.3659 14.7492 32.1658 14.8567 31.9704C14.9642 31.7734 15.0797 31.5793 15.2002 31.3897C15.3206 31.1986 15.4493 31.0121 15.5827 30.83C15.7162 30.6464 15.8562 30.4673 16.0027 30.2926C16.1477 30.118 16.3006 29.9463 16.4586 29.7807C16.6149 29.615 16.7793 29.4538 16.9469 29.2956C17.1163 29.1388 17.2905 28.988 17.4696 28.8403C17.6486 28.694 17.8326 28.5523 18.0214 28.4163C18.2086 28.279 18.4024 28.1492 18.601 28.0239C18.798 27.8985 18.9999 27.779 19.2049 27.6656C19.4117 27.5507 19.6201 27.4432 19.8333 27.3416C20.0466 27.2402 20.2632 27.1446 20.4829 27.0551C20.7027 26.9655 20.9257 26.8834 21.1503 26.8058C21.375 26.7297 21.603 26.6595 21.8341 26.5968C22.0637 26.5326 22.2965 26.476 22.5292 26.4267C22.7636 26.3759 22.9997 26.3326 23.2357 26.2954C23.4735 26.2595 23.7112 26.2297 23.9505 26.2058C24.1881 26.1835 24.4291 26.167 24.6684 26.158C24.9093 26.1476 25.1487 26.1461 25.3896 26.1506C25.6289 26.155 25.8699 26.1655 26.1091 26.1849C26.3484 26.2028 26.5861 26.2282 26.8239 26.2595C27.0615 26.2908 27.2992 26.3297 27.5336 26.3759C27.7697 26.4207 28.0025 26.473 28.2336 26.5311C28.4648 26.5909 28.6943 26.6566 28.9223 26.7282C29.1485 26.7999 29.3732 26.8775 29.5946 26.9625C29.8176 27.0476 30.0358 27.1387 30.2507 27.2358C30.4671 27.3342 30.6788 27.4372 30.8872 27.5462C31.0956 27.6567 31.3008 27.7716 31.501 27.8925C31.7012 28.0134 31.8982 28.1403 32.0902 28.2731C32.2824 28.4059 32.4696 28.5432 32.6519 28.6866C32.8342 28.8298 33.0116 28.9791 33.1842 29.1314C33.3568 29.2851 33.5229 29.4433 33.6857 29.6061C33.8469 29.7687 34.0031 29.9374 34.1528 30.1091C34.3026 30.2806 34.4475 30.4568 34.5859 30.6375C34.7242 30.8165 34.8562 31.0016 34.9815 31.1882C35.1068 31.3762 35.2257 31.5673 35.338 31.7629C35.452 31.9569 35.5579 32.1539 35.6556 32.3554C35.7549 32.5554 35.8476 32.7584 35.9323 32.9644C36.0186 33.1704 36.0967 33.3794 36.1667 33.5898C36.2384 33.8003 36.3018 34.0123 36.3587 34.2257C36.4158 34.4406 36.4646 34.6556 36.5069 34.872C36.5476 35.09 36.5834 35.3079 36.6094 35.5258C36.6372 35.7452 36.6567 35.9647 36.6681 36.1841C36.6811 36.405 36.6843 36.6244 36.6827 36.8453C36.6795 37.0647 36.6681 37.2841 36.6502 37.505C36.6322 37.7244 36.6078 37.9424 36.5737 38.1618C36.5411 38.3797 36.5004 38.5962 36.4532 38.8126C36.406 39.0274 36.3507 39.2424 36.2888 39.4544Z" fill="#007FC6" fill-opacity="0.7765"/>
<path fill-rule="evenodd" clip-rule="evenodd" d="M29.6728 39.5141C27.2927 39.6052 25.3717 40.8621 24.9386 46.9998C22.0246 45.2459 18.9379 43.804 15.6787 42.6726C15.6885 42.2994 15.7325 41.9292 15.8074 41.5636C15.8839 41.1964 15.9914 40.8382 16.1297 40.4874C16.2697 40.1367 16.4407 39.7992 16.6393 39.4738C16.8395 39.15 17.0674 38.8409 17.3214 38.5499C17.577 38.2589 17.8554 37.9902 18.1581 37.7409C18.4626 37.4917 18.7849 37.2663 19.1285 37.0663C19.4719 36.8647 19.83 36.6916 20.2045 36.5439C20.579 36.3976 20.9631 36.2797 21.3587 36.1901C21.7543 36.1005 22.1549 36.0423 22.5601 36.0124C22.9655 35.9841 23.3725 35.9841 23.7778 36.017C24.1832 36.0483 24.5837 36.1095 24.9777 36.2005C25.3717 36.293 25.7559 36.4125 26.1287 36.5618C26.5031 36.711 26.8596 36.8871 27.2014 37.0902C27.5433 37.2932 27.8641 37.52 28.1652 37.7708C28.468 38.0215 28.7448 38.2933 28.9971 38.5858C29.2494 38.8783 29.4758 39.1873 29.6728 39.5141Z" fill="#01A6E6" fill-opacity="0.7765"/>
<path fill-rule="evenodd" clip-rule="evenodd" d="M40.5606 28.9718C40.2773 29.0464 40.0168 29.1613 39.7759 29.3165C38.8496 29.9792 39.4828 30.6957 39.5642 31.2122C39.6034 31.4585 39.3607 31.8525 38.5598 32.3317C39.4861 32.957 38.8626 33.4377 38.4898 33.8989C36.7576 35.0437 39.1687 37.5245 36.3099 39.4485C33.4235 40.5381 29.9154 38.6156 27.5451 40.0919C27.5076 39.8933 27.4766 39.6932 27.4522 39.4932C27.4294 39.2932 27.4115 39.0932 27.4017 38.8918C27.3903 38.6903 27.3871 38.4888 27.3903 38.2872C27.3936 38.0857 27.4034 37.8857 27.4196 37.6842C27.436 37.4827 27.4604 37.2827 27.4896 37.0842C27.5206 36.8841 27.5581 36.6856 27.6004 36.4886C27.6444 36.2915 27.6948 36.0945 27.7517 35.9006C27.8088 35.7065 27.8722 35.5139 27.9423 35.3228C28.0122 35.1318 28.0887 34.9423 28.1718 34.7556C28.2548 34.5691 28.3443 34.3854 28.4388 34.2034C28.5348 34.0228 28.6358 33.8437 28.7432 33.6676C28.8507 33.4929 28.963 33.3198 29.0817 33.1496C29.2006 32.9809 29.326 32.8153 29.4563 32.6525C29.5865 32.4913 29.7216 32.3317 29.8632 32.1779C30.0033 32.0227 30.1498 31.8734 30.3012 31.7271C30.4526 31.5809 30.6089 31.439 30.7683 31.3017C30.9295 31.1645 31.094 31.0315 31.2648 30.9032C31.4342 30.7749 31.6084 30.6524 31.7858 30.5345C31.9633 30.4165 32.1456 30.3031 32.3312 30.1956C32.5168 30.0882 32.7057 29.9853 32.8993 29.8882C33.0915 29.7912 33.2868 29.7002 33.4854 29.6136C33.684 29.5285 33.8859 29.4478 34.091 29.3733C34.2946 29.2986 34.5012 29.2314 34.7096 29.1688C34.9197 29.1061 35.1297 29.0493 35.3429 28.9986C35.5545 28.9478 35.7695 28.903 35.9844 28.8643C36.2008 28.8255 36.4174 28.7941 36.6355 28.7672C36.8537 28.7419 37.0719 28.721 37.2916 28.7076C37.5098 28.6941 37.7296 28.6867 37.9493 28.6851C38.1691 28.6836 38.3889 28.6882 38.6086 28.7001C38.8268 28.7106 39.0466 28.7284 39.2647 28.7524C39.4828 28.7762 39.6993 28.806 39.9159 28.8419C40.1324 28.8777 40.3473 28.9195 40.5606 28.9687V28.9718Z" fill="#2063B2" fill-opacity="0.7765"/>
<path fill-rule="evenodd" clip-rule="evenodd" d="M7.04891 29.0943C7.31915 29.0943 7.58776 29.0704 7.85312 29.0211C8.11848 28.9733 8.37569 28.9017 8.62641 28.8077C8.87711 28.7121 9.11479 28.5957 9.33944 28.4584C9.56411 28.3195 9.77249 28.1643 9.96458 27.9882C10.1551 27.8135 10.326 27.6226 10.4758 27.4165C10.6272 27.2091 10.7541 26.9927 10.8583 26.7627C10.9609 26.5329 11.039 26.2971 11.0928 26.0538C11.1449 25.8105 11.1709 25.5657 11.1709 25.3164C11.1709 25.0686 11.1449 24.8239 11.0928 24.5806C11.039 24.3373 10.9609 24.1014 10.8583 23.8715C10.7541 23.6432 10.6272 23.4252 10.4774 23.2193C10.3276 23.0118 10.1567 22.8223 9.96458 22.6461C9.77412 22.4715 9.56574 22.3147 9.34108 22.1759C9.11479 22.0386 8.87711 21.9222 8.62803 21.8281C8.37733 21.7326 8.1201 21.661 7.85475 21.6131C7.5894 21.5639 7.32078 21.54 7.05053 21.54C6.78029 21.54 6.51168 21.5639 6.24633 21.6131C5.98097 21.661 5.72375 21.7326 5.47305 21.8281C5.22397 21.9222 4.98628 22.0386 4.76 22.1774C4.53534 22.3147 4.32696 22.4715 4.13649 22.6476C3.94439 22.8223 3.77345 23.0132 3.62369 23.2193C3.47391 23.4252 3.34693 23.6432 3.24274 23.8731C3.14018 24.1014 3.06204 24.3388 3.00832 24.5821C2.95622 24.8253 2.93018 25.0701 2.93018 25.3195C2.93018 25.5672 2.95785 25.812 3.00994 26.0553C3.06366 26.2971 3.1418 26.5329 3.24599 26.7627C3.35018 26.9912 3.47716 27.2091 3.62693 27.415C3.77671 27.6195 3.94765 27.8106 4.13975 27.9852C4.33021 28.1613 4.53859 28.3181 4.76325 28.4555C4.98791 28.5928 5.22397 28.7091 5.47467 28.8046C5.72375 28.9002 5.98097 28.9719 6.24633 29.0196C6.51168 29.0689 6.77867 29.0943 7.04891 29.0943Z" fill="#12BCBC" fill-opacity="0.7765"/>
<path fill-rule="evenodd" clip-rule="evenodd" d="M15.6787 34.3511C15.9262 34.3526 16.1704 34.3302 16.4129 34.2869C16.6555 34.2437 16.8916 34.1795 17.1195 34.0929C17.3473 34.0064 17.5639 33.9004 17.7707 33.775C17.9758 33.6511 18.1662 33.5079 18.3421 33.3482C18.5163 33.1884 18.6725 33.0152 18.8109 32.8272C18.9476 32.6391 19.0649 32.4406 19.1592 32.2317C19.2537 32.0227 19.3254 31.8077 19.3742 31.5853C19.4231 31.3629 19.4475 31.1391 19.4491 30.9137C19.4491 30.6867 19.4247 30.4629 19.3774 30.2405C19.3302 30.0181 19.2585 29.8031 19.1642 29.5941C19.0713 29.3837 18.9558 29.1852 18.8174 28.9971C18.6807 28.8091 18.526 28.6345 18.3518 28.4747C18.1776 28.3135 17.9872 28.1701 17.782 28.0448C17.5769 27.9179 17.3603 27.8119 17.1325 27.7254C16.9046 27.6388 16.6686 27.5731 16.4275 27.5283C16.185 27.4836 15.9408 27.4612 15.6934 27.4612C15.4459 27.4612 15.2017 27.4836 14.9592 27.5269C14.7182 27.5716 14.4821 27.6358 14.2542 27.7224C14.0264 27.809 13.8098 27.915 13.6031 28.0403C13.3979 28.1672 13.2091 28.309 13.0333 28.4687C12.8591 28.6299 12.7028 28.803 12.5661 28.9912C12.4293 29.1792 12.3121 29.3777 12.2177 29.5867C12.1233 29.7972 12.0516 30.012 12.0044 30.2346C11.9556 30.4555 11.9312 30.6808 11.9312 30.9062C11.9328 31.1315 11.9572 31.3555 12.0044 31.5764C12.0532 31.7988 12.1249 32.0138 12.2193 32.2212C12.3121 32.4302 12.4277 32.6287 12.5644 32.8152C12.7012 33.0033 12.8574 33.178 13.03 33.3377C13.2042 33.4973 13.3931 33.6392 13.5982 33.7661C13.8017 33.8914 14.0182 33.9974 14.2461 34.084C14.4724 34.172 14.7069 34.2377 14.9478 34.2825C15.1886 34.3273 15.4329 34.3511 15.6787 34.3511Z" fill="#00B9F1" fill-opacity="0.7765"/>
<path fill-rule="evenodd" clip-rule="evenodd" d="M6.45636 19.9024C6.64683 19.9024 6.83405 19.8861 7.01963 19.8517C7.20522 19.8173 7.38593 19.7681 7.56174 19.701C7.73594 19.6353 7.90362 19.5532 8.0599 19.4562C8.21781 19.3607 8.36433 19.2501 8.49782 19.1278C8.63294 19.0039 8.75179 18.871 8.8576 18.7263C8.96341 18.5815 9.05133 18.4292 9.12458 18.2681C9.19622 18.1083 9.25157 17.9427 9.28901 17.7725C9.32483 17.6023 9.34437 17.4291 9.34437 17.2561C9.34437 17.0814 9.32483 16.9098 9.28901 16.7396C9.25157 16.5679 9.19622 16.4038 9.12458 16.2425C9.05133 16.0813 8.96179 15.9291 8.8576 15.7842C8.75179 15.641 8.63132 15.5067 8.49782 15.3843C8.3627 15.2604 8.21781 15.1515 8.0599 15.0544C7.90199 14.9574 7.73594 14.8768 7.56012 14.8096C7.38593 14.7439 7.20522 14.6932 7.01801 14.6588C6.83243 14.6261 6.64521 14.6096 6.45473 14.6096C6.26589 14.6096 6.07705 14.6261 5.89146 14.6603C5.70587 14.6947 5.52517 14.7439 5.35097 14.8111C5.17516 14.8768 5.00911 14.9589 4.85119 15.0559C4.69328 15.153 4.54839 15.2619 4.41327 15.3857C4.27978 15.5082 4.15932 15.6425 4.05513 15.7857C3.9493 15.9306 3.86139 16.0843 3.78813 16.244C3.71487 16.4053 3.66116 16.5709 3.62371 16.7411C3.5879 16.9113 3.56836 17.0829 3.56836 17.2576C3.56998 17.4307 3.5879 17.6023 3.62534 17.7725C3.66278 17.9441 3.71813 18.1083 3.78977 18.2696C3.86303 18.4292 3.95256 18.5815 4.05675 18.7263C4.16256 18.871 4.28303 19.0039 4.41653 19.1263C4.55003 19.2501 4.69654 19.3591 4.85445 19.4562C5.01073 19.5517 5.17679 19.6338 5.35261 19.6995C5.5268 19.7666 5.7075 19.8173 5.89308 19.8517C6.07868 19.8845 6.26752 19.9024 6.45636 19.9024Z" fill="#8DC63F" fill-opacity="0.7765"/>
<path d="M5.01557 10.6796C5.01557 10.8304 5.00092 10.9796 4.96836 11.1274C4.93581 11.2752 4.8886 11.4185 4.82511 11.5573C4.76325 11.6961 4.68673 11.8274 4.59555 11.9528C4.5044 12.0782 4.40021 12.1946 4.28462 12.3006C4.1674 12.4066 4.04205 12.5021 3.90531 12.5857C3.76856 12.6693 3.62367 12.7394 3.47227 12.7977C3.32087 12.8544 3.16459 12.8976 3.00342 12.9275C2.84225 12.9573 2.67945 12.9723 2.51666 12.9723C2.35223 12.9723 2.18944 12.9573 2.02827 12.9275C1.8671 12.8976 1.71082 12.8544 1.55942 12.7977C1.40802 12.7394 1.26313 12.6693 1.12638 12.5857C0.989632 12.5021 0.86428 12.4066 0.748695 12.3006C0.631481 12.1946 0.528921 12.0782 0.437755 11.9528C0.346589 11.8274 0.268447 11.6961 0.206584 11.5573C0.143095 11.4185 0.0958836 11.2752 0.063324 11.1274C0.0323931 10.9796 0.0161133 10.8304 0.0161133 10.6796C0.0161133 10.5289 0.0323931 10.3796 0.063324 10.2333C0.0958836 10.0855 0.143095 9.94225 0.206584 9.80344C0.268447 9.66313 0.346589 9.53178 0.437755 9.4064C0.528921 9.28102 0.631481 9.16608 0.748695 9.05861C0.86428 8.95264 0.989632 8.8586 1.12638 8.77502C1.26313 8.69143 1.40802 8.61978 1.55942 8.56306C1.71082 8.50485 1.8671 8.46156 2.02827 8.4317C2.18944 8.40336 2.35223 8.38843 2.51666 8.38843C2.67945 8.38843 2.84225 8.40336 3.00342 8.4317C3.16459 8.46156 3.32087 8.50485 3.47227 8.56306C3.62367 8.61978 3.76856 8.69143 3.90531 8.77502C4.04205 8.8586 4.1674 8.95264 4.28462 9.05861C4.40021 9.16608 4.5044 9.28102 4.59555 9.4064C4.68673 9.53178 4.76325 9.66313 4.82511 9.80344C4.8886 9.94225 4.93581 10.0855 4.96836 10.2333C5.00092 10.3796 5.01557 10.5289 5.01557 10.6796Z" fill="#FFD900" fill-opacity="0.7765"/>
<path fill-rule="evenodd" clip-rule="evenodd" d="M7.79803 6.48079C7.95269 6.48079 8.10409 6.46736 8.25387 6.44049C8.40527 6.41213 8.55016 6.37182 8.69179 6.3181C8.83342 6.26436 8.96854 6.19869 9.09552 6.12107C9.22413 6.04346 9.34134 5.9539 9.45041 5.85538C9.55786 5.75537 9.65554 5.6479 9.74019 5.53148C9.82647 5.41356 9.8981 5.29116 9.9567 5.1613C10.0153 5.03145 10.0593 4.89711 10.0902 4.75979C10.1195 4.62246 10.1342 4.48215 10.1342 4.34185C10.1342 4.20154 10.1195 4.06273 10.0902 3.92392C10.0609 3.78659 10.0153 3.65226 9.9567 3.5224C9.8981 3.39253 9.82647 3.27013 9.74182 3.15371C9.65716 3.0358 9.55948 2.92833 9.45205 2.82832C9.34297 2.72981 9.22575 2.64025 9.09878 2.56264C8.97016 2.48501 8.83668 2.41785 8.69504 2.36411C8.5534 2.31038 8.40689 2.27007 8.25711 2.24321C8.10572 2.21485 7.95432 2.20142 7.80129 2.20142C7.64827 2.20142 7.49523 2.21485 7.34546 2.24171C7.19569 2.27007 7.04918 2.31038 6.90754 2.36411C6.76591 2.41785 6.63078 2.48353 6.50381 2.56114C6.37683 2.64025 6.25799 2.72831 6.15054 2.82832C6.04146 2.92684 5.94542 3.0358 5.85913 3.15223C5.77448 3.26865 5.70285 3.39253 5.64424 3.5224C5.58564 3.65226 5.54168 3.78509 5.51075 3.92392C5.48145 4.06123 5.4668 4.20005 5.4668 4.34036C5.4668 4.48067 5.48145 4.62098 5.51238 4.75829C5.54168 4.89562 5.58564 5.02995 5.64424 5.15832C5.70285 5.28818 5.77448 5.41207 5.86077 5.5285C5.94542 5.64492 6.04146 5.75389 6.15054 5.85239C6.25799 5.9524 6.37683 6.04046 6.50381 6.11809C6.63078 6.1972 6.76591 6.26287 6.90591 6.3166C7.04754 6.37034 7.19406 6.41064 7.34383 6.439C7.49361 6.46586 7.64501 6.48079 7.79803 6.48079Z" fill="#009444" fill-opacity="0.7765"/>
<path fill-rule="evenodd" clip-rule="evenodd" d="M8.59051 11.8139C8.79563 11.8139 8.99261 11.778 9.18145 11.7064C9.37029 11.6333 9.53635 11.5318 9.68124 11.3989C9.82613 11.2676 9.93683 11.1138 10.015 10.9407C10.0931 10.7675 10.1322 10.5869 10.1322 10.4003C10.1322 10.2123 10.0931 10.0317 10.015 9.85852C9.93683 9.68537 9.82613 9.53312 9.68124 9.40028C9.53635 9.26743 9.37029 9.16594 9.18145 9.09429C8.99261 9.02265 8.79563 8.98682 8.59051 8.98682C8.38701 8.98682 8.19003 9.02265 8.00119 9.09429C7.81234 9.16594 7.64466 9.26743 7.49977 9.40028C7.35651 9.53312 7.24418 9.68537 7.16604 9.85852C7.08789 10.0317 7.04883 10.2123 7.04883 10.4003C7.04883 10.5869 7.08953 10.7675 7.16767 10.9407C7.24581 11.1138 7.35651 11.2661 7.5014 11.3989C7.64628 11.5303 7.81234 11.6333 8.00119 11.7049C8.19003 11.7765 8.38701 11.8124 8.59051 11.8139Z" fill="#56BA48" fill-opacity="0.7765"/>
<path fill-rule="evenodd" clip-rule="evenodd" d="M11.8075 2.82679C12.011 2.82679 12.2079 2.79097 12.3968 2.71932C12.5856 2.64769 12.7517 2.54469 12.8965 2.41185C13.0415 2.28049 13.1538 2.12675 13.2319 1.95361C13.3101 1.78046 13.3492 1.59986 13.3492 1.41328C13.3492 1.22521 13.3101 1.0446 13.2319 0.871453C13.1538 0.698307 13.0415 0.546059 12.8965 0.413215C12.7517 0.280371 12.5856 0.178872 12.3968 0.107225C12.2079 0.035579 12.011 -0.000244141 11.8075 -0.000244141C11.6023 -0.000244141 11.4054 0.035579 11.2165 0.107225C11.0277 0.178872 10.8616 0.280371 10.7167 0.413215C10.5718 0.546059 10.4611 0.698307 10.383 0.871453C10.3032 1.0446 10.2642 1.22521 10.2642 1.41328C10.2658 1.59986 10.3049 1.78046 10.383 1.95361C10.4611 2.12675 10.5735 2.27901 10.7167 2.41185C10.8616 2.5432 11.0293 2.64619 11.2165 2.71784C11.4054 2.78948 11.6023 2.82531 11.8075 2.82679Z" fill="#FBAD17" fill-opacity="0.7765"/>
<path fill-rule="evenodd" clip-rule="evenodd" d="M2.33619 5.97609C2.49085 5.97609 2.63899 5.94773 2.78226 5.894C2.92389 5.83878 3.05087 5.76115 3.15832 5.66115C3.26739 5.55965 3.35204 5.44472 3.41064 5.31337C3.46925 5.18201 3.49856 5.04469 3.49856 4.9029C3.49693 4.76259 3.46762 4.62526 3.4074 4.49541C3.34878 4.36405 3.26413 4.24913 3.15343 4.14911C3.04436 4.0491 2.91738 3.97149 2.77574 3.91776C2.63248 3.86402 2.48271 3.83716 2.32805 3.83716C2.17502 3.83716 2.02525 3.86402 1.88199 3.91925C1.74036 3.97299 1.61338 4.0506 1.5043 4.15061C1.39523 4.25061 1.31058 4.36703 1.25197 4.49839C1.19337 4.62826 1.16406 4.76557 1.16406 4.90737C1.16406 5.04918 1.19337 5.18499 1.2536 5.31635C1.31384 5.4477 1.39849 5.56412 1.50756 5.66413C1.61826 5.76415 1.74525 5.84176 1.8885 5.89549C2.03177 5.94923 2.18153 5.97759 2.33619 5.97609Z" fill="#F15C22" fill-opacity="0.7765"/>
<path d="M30.0799 16.8903C30.0799 17.1843 30.0637 17.4754 30.0327 17.7665C30.0018 18.059 29.9546 18.3471 29.8927 18.6351C29.8293 18.9217 29.7528 19.2053 29.6599 19.486C29.5672 19.7666 29.4597 20.0412 29.3376 20.3114C29.2155 20.583 29.0787 20.8472 28.9273 21.1055C28.7776 21.3637 28.6132 21.6144 28.4356 21.8577C28.2582 22.101 28.0678 22.3354 27.8659 22.5622C27.6624 22.7892 27.4492 23.0056 27.2229 23.2116C26.9965 23.4191 26.7605 23.6162 26.5148 23.8012C26.2673 23.9877 26.0101 24.1609 25.7446 24.3236C25.4793 24.4863 25.2058 24.637 24.9241 24.7743C24.6426 24.9132 24.3544 25.0385 24.0598 25.1505C23.7635 25.2625 23.464 25.361 23.1579 25.4461C22.8518 25.5312 22.5424 25.6013 22.2299 25.6581C21.9157 25.7162 21.5999 25.7595 21.2825 25.7879C20.965 25.8162 20.6459 25.8312 20.3269 25.8312C20.0078 25.8312 19.6886 25.8162 19.3713 25.7879C19.0521 25.7595 18.738 25.7162 18.4237 25.6581C18.1112 25.6013 17.8018 25.5312 17.4957 25.4461C17.1898 25.361 16.8903 25.2625 16.5939 25.1505C16.2993 25.0385 16.0111 24.9132 15.7295 24.7743C15.4478 24.637 15.1743 24.4863 14.909 24.3236C14.6419 24.1609 14.3864 23.9877 14.139 23.8012C13.8931 23.6162 13.6555 23.4191 13.4308 23.2116C13.2046 23.0056 12.9896 22.7892 12.7878 22.5622C12.5843 22.3354 12.3954 22.101 12.218 21.8577C12.0405 21.6144 11.8761 21.3637 11.7247 21.1055C11.5749 20.8472 11.4382 20.583 11.3161 20.3114C11.194 20.0412 11.0865 19.7666 10.9937 19.486C10.901 19.2053 10.8228 18.9217 10.7609 18.6351C10.6991 18.3471 10.6519 18.059 10.6209 17.7665C10.59 17.4754 10.5737 17.1843 10.5737 16.8903C10.5737 16.5977 10.59 16.3067 10.6209 16.0141C10.6519 15.7231 10.6991 15.4335 10.7609 15.1469C10.8228 14.8603 10.901 14.5752 10.9937 14.2961C11.0865 14.0155 11.194 13.7408 11.3161 13.4692C11.4382 13.199 11.5749 12.9348 11.7247 12.6767C11.8761 12.4184 12.0405 12.1676 12.218 11.9243C12.3954 11.681 12.5843 11.4452 12.7878 11.2198C12.9896 10.9929 13.2046 10.7765 13.4308 10.569C13.6555 10.363 13.8931 10.166 14.139 9.98091C14.3864 9.79433 14.6419 9.61969 14.909 9.45849C15.1743 9.29578 15.4478 9.14504 15.7295 9.00621C16.0111 8.8689 16.2993 8.74352 16.5939 8.63157C16.8903 8.51962 17.1898 8.42111 17.4957 8.33603C17.8018 8.25095 18.1112 8.18079 18.4237 8.12258C18.738 8.06587 19.0521 8.02258 19.3713 7.99422C19.6886 7.96586 20.0078 7.95093 20.3269 7.95093C20.6459 7.95093 20.965 7.96586 21.2825 7.99422C21.5999 8.02258 21.9157 8.06587 22.2299 8.12258C22.5424 8.18079 22.8518 8.25095 23.1579 8.33603C23.464 8.42111 23.7635 8.51962 24.0598 8.63157C24.3544 8.74352 24.6426 8.8689 24.9241 9.00621C25.2058 9.14504 25.4793 9.29578 25.7446 9.45849C26.0101 9.61969 26.2673 9.79433 26.5148 9.98091C26.7605 10.166 26.9965 10.363 27.2229 10.569C27.4492 10.7765 27.6624 10.9929 27.8659 11.2198C28.0678 11.4452 28.2582 11.681 28.4356 11.9243C28.6132 12.1676 28.7776 12.4184 28.9273 12.6767C29.0787 12.9348 29.2155 13.199 29.3376 13.4692C29.4597 13.7408 29.5672 14.0155 29.6599 14.2961C29.7528 14.5752 29.8293 14.8603 29.8927 15.1469C29.9546 15.4335 30.0018 15.7231 30.0327 16.0141C30.0637 16.3067 30.0799 16.5977 30.0799 16.8903Z" fill="#FBAD17" fill-opacity="0.7765"/>
<path fill-rule="evenodd" clip-rule="evenodd" d="M25.7135 3.35986C30.3873 4.2435 34.3042 6.3899 36.6126 9.47667C36.5736 9.73788 36.5165 9.9961 36.4417 10.2513C36.3668 10.5066 36.2757 10.7558 36.1666 11.0006C36.0575 11.2454 35.9337 11.4828 35.7922 11.7141C35.6522 11.944 35.4958 12.1664 35.3266 12.3798C35.1557 12.5918 34.9717 12.7948 34.7731 12.9858C34.5745 13.1784 34.3644 13.359 34.143 13.5262C33.92 13.6948 33.6872 13.8485 33.4431 13.9904C33.2004 14.1322 32.9481 14.2591 32.6877 14.3725C32.4272 14.4859 32.1601 14.583 31.8867 14.665C31.6132 14.7486 31.3348 14.8143 31.0516 14.8666C30.7683 14.9173 30.4834 14.9517 30.1969 14.9695C29.9087 14.9889 29.6206 14.9904 29.3324 14.977C29.0459 14.9621 28.7594 14.9323 28.4761 14.8844C28.1928 14.8381 27.9129 14.7756 27.6377 14.6979C27.3626 14.6187 27.094 14.5247 26.8319 14.4158C26.5681 14.3068 26.3142 14.183 26.0683 14.0456C25.8225 13.9068 25.5881 13.756 25.3618 13.5919C25.1371 13.4262 24.9239 13.25 24.7221 13.0604C24.5201 12.8724 24.3329 12.6724 24.1587 12.4619C23.9845 12.2515 23.825 12.032 23.6802 11.8037C23.5353 11.5753 23.4067 11.3395 23.2944 11.0962C23.1803 10.8529 23.0844 10.6051 23.0061 10.3499C22.9264 10.0961 22.8645 9.83937 22.8205 9.57816C22.7766 9.31695 22.7506 9.05425 22.7408 8.79005C22.7326 8.52586 22.7408 8.26315 22.7685 8.00045C22.7945 7.73626 22.8401 7.47653 22.902 7.21832C22.9638 6.96009 23.0436 6.70634 23.1396 6.45856C23.2357 6.20929 23.3497 5.966 23.4782 5.73016C23.6069 5.49432 23.7517 5.26595 23.9129 5.04653C24.0724 4.82712 24.2466 4.61666 24.4356 4.41814C24.6244 4.21812 24.8246 4.02856 25.0395 3.85244C25.2527 3.67481 25.4775 3.51062 25.7135 3.35986Z" fill="#EC008B" fill-opacity="0.7765"/>
<path fill-rule="evenodd" clip-rule="evenodd" d="M17.0431 12.9737C17.4273 12.9737 17.8066 12.9394 18.1827 12.8708C18.5587 12.8021 18.9251 12.7006 19.2783 12.5663C19.6332 12.432 19.9702 12.2662 20.2893 12.0707C20.6083 11.8752 20.903 11.6543 21.1749 11.405C21.4451 11.1572 21.6876 10.8856 21.9009 10.5945C22.1142 10.3019 22.2949 9.99297 22.4414 9.66758C22.588 9.34368 22.6987 9.00933 22.7735 8.66453C22.8484 8.31824 22.8859 7.97046 22.8859 7.61969C22.8859 7.26743 22.8484 6.91965 22.7735 6.57484C22.6987 6.23005 22.588 5.89571 22.4414 5.57031C22.2949 5.24492 22.1142 4.93743 21.9009 4.64488C21.6876 4.35233 21.4468 4.08215 21.1749 3.83289C20.9046 3.58511 20.6083 3.3627 20.2893 3.16717C19.9718 2.97164 19.6348 2.80745 19.2799 2.67312C18.9251 2.53877 18.5603 2.43727 18.1843 2.36862C17.8083 2.29996 17.4289 2.26562 17.0447 2.26562C16.6605 2.26562 16.2812 2.29996 15.9051 2.36862C15.5291 2.43727 15.1644 2.53877 14.8096 2.67312C14.4546 2.80745 14.1193 2.97164 13.8002 3.16717C13.4812 3.3627 13.1865 3.58511 12.9146 3.83289C12.6427 4.08215 12.4018 4.35233 12.1885 4.64488C11.9753 4.93743 11.7946 5.24492 11.648 5.57031C11.5015 5.89571 11.3908 6.23005 11.3159 6.57484C11.2411 6.91965 11.2036 7.26743 11.2036 7.61969C11.2036 7.97046 11.2427 8.31824 11.3176 8.66304C11.3925 9.00784 11.5048 9.34218 11.6513 9.66608C11.7978 9.98999 11.9785 10.299 12.1902 10.5915C12.4034 10.8826 12.6459 11.1527 12.9162 11.402C13.1881 11.6498 13.4828 11.8722 13.8019 12.0677C14.1193 12.2633 14.4562 12.4275 14.8096 12.5633C15.1644 12.6976 15.5291 12.7992 15.9051 12.8678C16.2796 12.938 16.6589 12.9722 17.0431 12.9737Z" fill="#56BA48" fill-opacity="0.7765"/>
<path d="M20.6896 8.87191C20.8295 9.00027 21.0021 9.06445 21.1763 9.06445H25.3423C25.5148 9.06445 25.689 9.00027 25.8274 8.87191L26.9734 7.8196C27.3202 7.97932 27.7028 8.07484 28.1196 8.07484C29.4724 8.07484 30.5485 7.08523 30.5485 5.84037C30.5485 4.59552 29.4724 3.60591 28.1196 3.60591C26.7651 3.60591 25.689 4.59552 25.689 5.84037C25.689 6.22398 25.7932 6.57475 25.9657 6.89417L25.0638 7.78677H21.453L19.0925 5.61648V1.40428H21.1062C21.1763 1.40428 21.2446 1.43562 21.3146 1.40428C27.4944 1.18038 33.8466 3.76562 36.9365 9.06445H34.6102C34.2977 8.13902 33.3957 7.46884 32.2838 7.46884C30.931 7.46884 29.855 8.45695 29.855 9.70181C29.855 10.7243 30.5826 11.5542 31.5903 11.8408V17.6814H26.3825C26.0016 17.6814 25.689 17.9694 25.689 18.3202V21.831H24.3004V18.0008C24.3004 17.8098 24.1961 17.6501 24.0577 17.5217L21.8698 15.7993V11.6169H24.717L25.6548 12.4796C25.4806 12.7991 25.3765 13.1498 25.3765 13.5319C25.3765 14.7768 26.4525 15.7664 27.807 15.7664C29.1599 15.7664 30.2358 14.7768 30.2358 13.5319C30.2358 12.287 29.1599 11.2989 27.807 11.2989C27.3902 11.2989 27.0076 11.3944 26.6609 11.5542L25.5148 10.5004C25.3423 10.4048 25.1681 10.3407 24.9939 10.3407H21.1763C20.7937 10.3407 20.4812 10.6272 20.4812 10.9795V16.0858C20.4812 16.2768 20.5853 16.4366 20.7254 16.5649L22.9117 18.2874V21.831H20.1344C19.9602 21.831 19.7876 21.8952 19.6493 22.0219L14.0947 27.1297C13.9547 27.2566 13.8862 27.4163 13.8862 27.5761V32.7779C12.8786 33.066 12.1509 33.8959 12.1509 34.9168C12.1509 36.1616 13.2269 37.1512 14.5798 37.1512C15.9342 37.1512 17.0103 36.1616 17.0103 34.9168C17.0103 33.8959 16.281 33.066 15.2749 32.7779V27.8313L20.4127 23.1071H32.9789C33.2558 23.1071 33.4999 22.9802 33.6041 22.7564L35.6863 18.9262C35.7204 18.8308 35.7563 18.7352 35.7563 18.6397V16.4052H38.8104V19.0217L37.9085 20.8413C37.8384 21.0011 37.8384 21.1607 37.8726 21.3204L40.9283 28.8209C40.9283 28.8523 40.9283 28.8851 40.9283 28.9165C40.8942 28.9478 40.8942 28.9478 40.8584 28.9478H37.8726C37.6659 28.9478 37.4574 29.0449 37.3175 29.203C37.1791 29.3627 37.1449 29.5866 37.2133 29.7777L38.0468 32.0122L36.4498 32.5226C36.2414 32.5868 36.0689 32.7465 35.9989 32.9376C35.9288 33.1301 35.9647 33.3525 36.103 33.5122L37.1449 34.8213L36.2414 35.4601C36.0689 35.587 35.9647 35.7781 35.9647 35.9706V37.5976C35.9647 38.3319 35.548 39.035 34.8527 39.3857C34.5402 39.5768 34.1593 39.6723 33.7767 39.6723C30.8951 39.7052 19.7876 36.3527 19.7876 30.7673V29.4269C19.7876 29.0761 19.4751 28.7896 19.0925 28.7896C18.7115 28.7896 18.399 29.0761 18.399 29.4269V30.7673C18.399 37.5662 30.8611 40.9814 33.8126 40.9814C34.436 40.9814 35.0611 40.8217 35.5821 40.5351C36.6924 39.9276 37.3533 38.8424 37.3533 37.6304V36.29L38.4977 35.4601C38.7762 35.2362 38.8461 34.8526 38.6378 34.5974L37.7685 33.4809L39.157 33.0332C39.5055 32.9063 39.7138 32.5555 39.5738 32.236L38.8461 30.2254H40.8584C41.3451 30.2254 41.796 30.0016 42.0744 29.6508C42.3512 29.2672 42.4212 28.7896 42.247 28.3746L39.2971 21.1294L40.129 19.4367C40.1648 19.3412 40.1989 19.277 40.1989 19.1815V15.6709C39.9907 10.8511 37.8384 6.79864 34.0208 3.92533C30.5485 1.30874 26.0699 -0.000290833 21.3146 0.126583C21.2804 0.126583 21.2105 0.126583 21.1763 0.126583H18.399C18.0164 0.126583 17.7038 0.414661 17.7038 0.765429V5.87171C17.7038 6.03143 17.7739 6.19114 17.9122 6.31951L20.6896 8.87191ZM28.1196 4.91494C28.7088 4.91494 29.1599 5.32989 29.1599 5.87171C29.1599 6.41503 28.7088 6.82998 28.1196 6.82998C27.5286 6.82998 27.0777 6.41503 27.0777 5.87171C27.0777 5.32989 27.5286 4.91494 28.1196 4.91494ZM27.7712 12.5751C28.3621 12.5751 28.8131 12.99 28.8131 13.5319C28.8131 14.0752 28.3621 14.4902 27.7712 14.4902C27.1818 14.4902 26.7309 14.0752 26.7309 13.5319C26.7309 12.99 27.1818 12.5751 27.7712 12.5751ZM15.6217 34.9168C15.6217 35.4601 15.1708 35.8751 14.5798 35.8751C13.9905 35.8751 13.5395 35.4601 13.5395 34.9168C13.5395 34.375 13.9905 33.9601 14.5798 33.9601C15.1708 33.9601 15.6217 34.375 15.6217 34.9168ZM31.2436 9.70181C31.2436 9.15998 31.6945 8.74503 32.2838 8.74503C32.8748 8.74503 33.3257 9.15998 33.3257 9.70181C33.3257 10.2451 32.8748 10.6601 32.2838 10.6601C31.6945 10.6601 31.2436 10.2451 31.2436 9.70181ZM38.7762 15.129H35.0611C34.6803 15.129 34.3676 15.4156 34.3676 15.7664V18.48L32.5623 21.831H27.0777V18.9577H32.2838C32.6664 18.9577 32.9789 18.671 32.9789 18.3202V11.8408C33.7767 11.6169 34.3676 11.0422 34.6102 10.3407H37.5959C38.221 11.7766 38.6378 13.3722 38.7762 15.129Z" fill="white"/>
<path d="M2.08452 4.50036V10.0216C2.08452 10.2142 2.18871 10.4052 2.3271 10.5321L6.14628 13.3413C6.18047 13.3726 6.21466 13.3726 6.25047 13.4053V20.2357C6.25047 20.3954 6.31885 20.5223 6.42304 20.6506L8.33263 22.6925V27.9914C7.32656 28.278 6.59723 29.1079 6.59723 30.1303C6.59723 31.3752 7.6733 32.3633 9.02777 32.3633C10.3806 32.3633 11.4567 31.3752 11.4567 30.1303C11.4567 29.1079 10.7274 28.278 9.72128 27.9914V22.4702C9.72128 22.3105 9.65128 22.1821 9.54709 22.0552L7.63912 20.0118V6.00046L11.1099 7.81997V9.12751C10.1039 9.4156 9.37453 10.2455 9.37453 11.2665C9.37453 12.5114 10.4506 13.501 11.8034 13.501C13.1578 13.501 14.234 12.5114 14.234 11.2665C14.234 10.2455 13.5046 9.4156 12.4985 9.12751V7.46921C12.4985 7.24531 12.3602 7.02142 12.1518 6.92589L7.29074 4.37199C7.08236 4.24512 6.80561 4.24512 6.59723 4.37199C6.38885 4.50036 6.25047 4.69142 6.25047 4.91531V11.7769L3.47318 9.70218V4.50036C4.47926 4.21228 5.20857 3.38388 5.20857 2.36142C5.20857 1.11657 4.1325 0.126953 2.77803 0.126953C1.42521 0.126953 0.349121 1.11657 0.349121 2.36142C0.349121 3.38388 1.07682 4.21228 2.08452 4.50036ZM10.068 30.1303C10.068 30.6722 9.61709 31.0871 9.02777 31.0871C8.43682 31.0871 7.98587 30.6722 7.98587 30.1303C7.98587 29.5869 8.43682 29.1721 9.02777 29.1721C9.61709 29.1721 10.068 29.5869 10.068 30.1303ZM12.8453 11.2993C12.8453 11.8411 12.3944 12.2561 11.8034 12.2561C11.2141 12.2561 10.7632 11.8411 10.7632 11.2993C10.7632 10.756 11.2141 10.341 11.8034 10.341C12.3944 10.341 12.8453 10.756 12.8453 11.2993ZM2.77803 1.40465C3.36899 1.40465 3.81993 1.8196 3.81993 2.36142C3.81993 2.90474 3.36899 3.31969 2.77803 3.31969C2.18871 3.31969 1.73777 2.90474 1.73777 2.36142C1.73777 1.8196 2.18871 1.40465 2.77803 1.40465Z" fill="white"/>
<path d="M17.7043 10.2764V19.6292L12.4981 24.4161V19.8203C13.5042 19.5322 14.2335 18.7023 14.2335 17.6814C14.2335 16.4365 13.1574 15.4469 11.8029 15.4469C10.4501 15.4469 9.37402 16.4365 9.37402 17.6814C9.37402 18.7023 10.1033 19.5322 11.1094 19.8203V25.9804C11.1094 26.2357 11.2836 26.4595 11.5262 26.555C11.6304 26.6177 11.6987 26.6177 11.8029 26.6177C11.9771 26.6177 12.1513 26.555 12.2897 26.4266L18.8845 20.3621C19.0246 20.2352 19.0929 20.0756 19.0929 19.9158V10.0212C19.0929 9.86146 19.0246 9.70175 18.8845 9.57487L16.3156 7.21203V2.36099C16.3156 2.01022 16.0047 1.72363 15.6221 1.72363C15.2396 1.72363 14.9287 2.01022 14.9287 2.36099V7.46878C14.9287 7.62699 14.997 7.78671 15.1353 7.91507L17.7043 10.2764ZM11.8029 18.6396C11.2136 18.6396 10.7627 18.2246 10.7627 17.6814C10.7627 17.1395 11.2136 16.7246 11.8029 16.7246C12.3939 16.7246 12.8449 17.1395 12.8449 17.6814C12.8449 18.2246 12.3939 18.6396 11.8029 18.6396Z" fill="white"/>
<path d="M0 25.6611C0 26.906 1.07608 27.8956 2.43054 27.8956C3.785 27.8956 4.86109 26.906 4.86109 25.6611C4.86109 24.6402 4.13176 23.8103 3.12569 23.5223V19.1817C4.13176 18.8951 4.86109 18.0652 4.86109 17.0427C4.86109 15.7994 3.785 14.8098 2.43054 14.8098C1.07608 14.8098 0 15.7994 0 17.0427C0 18.0652 0.729325 18.8951 1.73703 19.1817V23.5223C0.729325 23.8103 0 24.6402 0 25.6611ZM1.38864 17.0427C1.38864 16.5009 1.84122 16.086 2.43054 16.086C3.0215 16.086 3.47243 16.5009 3.47243 17.0427C3.47243 17.586 3.0215 18.001 2.43054 18.001C1.84122 18.001 1.38864 17.586 1.38864 17.0427ZM2.43054 24.7029C3.0215 24.7029 3.47243 25.1179 3.47243 25.6611C3.47243 26.203 3.0215 26.6179 2.43054 26.6179C1.84122 26.6179 1.38864 26.203 1.38864 25.6611C1.38864 25.1179 1.84122 24.7029 2.43054 24.7029Z" fill="white"/>
</g>
<defs>
<clipPath id="clip0_588_3931">
<rect width="42.5238" height="47" fill="white" transform="translate(0 -0.000244141)"/>
</clipPath>
</defs>
</svg>
