<svg width="62" height="393" viewBox="0 0 62 393" fill="none" xmlns="http://www.w3.org/2000/svg">
<path d="M25.264 72V3.07199L37.36 8.736V72H25.264ZM31.312 8.928C30.448 8.928 29.776 9.6 29.776 10.464C29.776 11.328 30.448 12 31.312 12C32.176 12 32.848 11.328 32.848 10.464C32.848 9.6 32.176 8.928 31.312 8.928ZM0.88 -5.72205e-06H61.744L56.08 12.192H38.608V7.872L24.016 1.056V12.192H6.544L0.88 -5.72205e-06ZM4.336 139.352L11.056 154.232H14.896V179H2.8V108.728L14.896 114.392V139.352H4.336ZM8.56 114.296C7.696 114.296 7.024 114.968 7.024 115.832C7.024 116.696 7.696 117.368 8.56 117.368C9.424 117.368 10.096 116.696 10.096 115.832C10.096 114.968 9.424 114.296 8.56 114.296ZM11.824 152.696L6.16 140.504H48.208L42.544 152.696H11.824ZM41.68 144.536C40.912 144.536 40.24 145.208 40.24 145.976C40.24 146.84 40.912 147.512 41.68 147.512C42.544 147.512 43.216 146.84 43.216 145.976C43.216 145.208 42.544 144.536 41.68 144.536ZM13.072 144.536C12.208 144.536 11.536 145.208 11.536 145.976C11.536 146.84 12.208 147.512 13.072 147.512C13.84 147.512 14.608 146.84 14.608 145.976C14.608 145.208 13.84 144.536 13.072 144.536ZM2.8 107H51.856L38.512 113.24V119.096H16.144V113.24L2.8 107ZM39.76 139.352V114.392L51.856 108.728V179H39.76V154.232H43.6L50.32 139.352H39.76ZM46 114.296C45.136 114.296 44.464 114.968 44.464 115.832C44.464 116.696 45.136 117.368 46 117.368C46.864 117.368 47.536 116.696 47.536 115.832C47.536 114.968 46.864 114.296 46 114.296ZM4.528 214H51.76V262.288H45.232L35.92 253.072H17.104L25.744 262.288H14.896V285.904H2.8V214L9.04 227.344H14.896V250.096H39.664V226.096H10.096L4.528 214ZM11.824 221.68C12.688 221.68 13.36 221.008 13.36 220.144C13.36 219.376 12.688 218.704 11.824 218.704C10.96 218.704 10.288 219.376 10.288 220.144C10.288 221.008 10.96 221.68 11.824 221.68ZM20.08 254.32H35.44L51.28 269.776V286H39.184V274.576L20.08 254.32ZM30.832 259.408C31.6 259.408 32.272 258.64 32.272 257.872C32.272 257.008 31.6 256.336 30.832 256.336C29.968 256.336 29.296 257.008 29.296 257.872C29.296 258.64 29.968 259.408 30.832 259.408ZM2.8 380.808H45.808L51.472 393H8.464L2.8 380.808ZM44.368 388.776C45.232 388.776 45.904 388.104 45.904 387.336C45.904 386.472 45.232 385.8 44.368 385.8C43.504 385.8 42.832 386.472 42.832 387.336C42.832 388.104 43.504 388.776 44.368 388.776ZM53.2 333.192H11.44L5.776 321H47.536L53.2 333.192ZM13.264 325.512C12.4 325.512 11.728 326.28 11.728 327.048C11.728 327.912 12.4 328.584 13.264 328.584C14.128 328.584 14.8 327.912 14.8 327.048C14.8 326.28 14.128 325.512 13.264 325.512ZM16.144 334.344V348.744H53.2V393H53.104L46.864 379.656H41.008V360.84H4.048V321L10.288 334.344H16.144Z" fill="#CAB5FF"/>
</svg>
