<svg width="84" height="93" viewBox="0 0 84 93" fill="none" xmlns="http://www.w3.org/2000/svg">
<g clip-path="url(#clip0_588_3450)">
<path fill-rule="evenodd" clip-rule="evenodd" d="M43.9986 12.8025C44.3589 12.8025 44.7159 12.7701 45.0695 12.7052C45.4232 12.6404 45.7673 12.546 46.1018 12.4192C46.4331 12.2925 46.7515 12.1362 47.0505 11.9534C47.3495 11.7706 47.6292 11.5612 47.8834 11.3283C48.1374 11.0954 48.3659 10.8388 48.5684 10.5646C48.7678 10.2904 48.9382 10.0015 49.0766 9.69483C49.2147 9.38818 49.3175 9.07564 49.3883 8.75131C49.4591 8.42697 49.4946 8.0997 49.4946 7.76652C49.4946 7.4363 49.4591 7.109 49.3883 6.78467C49.3207 6.46033 49.2147 6.14484 49.0766 5.84115C48.9414 5.5345 48.7709 5.24556 48.5716 4.96841C48.3722 4.69418 48.1438 4.44062 47.8898 4.20473C47.6327 3.97182 47.3559 3.76246 47.0569 3.57966C46.7579 3.3939 46.4395 3.24059 46.1082 3.11381C45.7739 2.98701 45.4298 2.88972 45.0759 2.82485C44.7223 2.75998 44.3652 2.72754 44.0052 2.72754C43.645 2.72754 43.2879 2.75703 42.9343 2.8219C42.5804 2.88676 42.2363 2.98112 41.902 3.1079C41.5675 3.2347 41.2523 3.38801 40.9533 3.57081C40.6511 3.75362 40.3744 3.96297 40.1172 4.19589C39.8633 4.42882 39.6348 4.68534 39.4354 4.95956C39.2329 5.23376 39.0624 5.52272 38.9241 5.82937C38.786 6.13306 38.6797 6.44855 38.6089 6.77287C38.5381 7.0972 38.5029 7.42449 38.5029 7.75472C38.5029 8.08494 38.5381 8.41519 38.6089 8.73951C38.6797 9.06384 38.7825 9.37933 38.9209 9.68303C39.0593 9.98967 39.2265 10.2816 39.4291 10.5558C39.6284 10.83 39.8566 11.0865 40.1109 11.3194C40.368 11.5553 40.6445 11.7647 40.9438 11.9475C41.2428 12.1332 41.5611 12.2895 41.8954 12.4163C42.2268 12.5431 42.5709 12.6374 42.9245 12.7023C43.2784 12.7701 43.6386 12.8025 43.9986 12.8025Z" fill="#F9ED32" fill-opacity="0.7765"/>
<path fill-rule="evenodd" clip-rule="evenodd" d="M70.6224 16.6857C72.1146 18.2749 73.3494 20.0146 74.3238 21.9104C75.3015 23.8063 75.9833 25.7848 76.3724 27.8517C77.485 33.8222 75.7871 39.3507 76.9768 43.0659C77.2567 43.9002 77.6297 44.6965 78.0992 45.4541C77.5396 45.7519 76.9673 46.0202 76.3756 46.2562C75.7871 46.492 75.1824 46.6984 74.5651 46.8724C73.9477 47.0464 73.3237 47.1849 72.6901 47.2939C72.0568 47.4001 71.4166 47.4739 70.7735 47.5152C70.1304 47.5565 69.4873 47.5624 68.8408 47.5357C68.1977 47.5091 67.5578 47.4473 66.9211 47.353C66.2843 47.2587 65.6571 47.1289 65.0366 46.9696C64.416 46.8074 63.805 46.6159 63.2101 46.3918C62.615 46.1646 62.0329 45.9112 61.4704 45.6251C60.9042 45.339 60.3607 45.0236 59.8335 44.6816C59.3091 44.3366 58.8076 43.9681 58.3283 43.5701C57.8493 43.1748 57.3989 42.7563 56.9713 42.3109C56.5469 41.8687 56.148 41.4028 55.7814 40.9193C55.4148 40.4328 55.0773 39.9285 54.7717 39.4096C54.4663 38.8877 54.1962 38.3512 53.9581 37.8027C53.7201 37.2544 53.5175 36.6942 53.3503 36.1223C53.183 35.553 53.0513 34.9752 52.9548 34.3915C52.8583 33.8046 52.8005 33.2178 52.778 32.6282C52.7586 32.0355 52.7716 31.4459 52.8262 30.8562C52.8776 30.2693 52.9643 29.6827 53.0897 29.1049C53.2153 28.5239 53.3792 27.9519 53.5753 27.3887C53.7715 26.8256 54.0032 26.2771 54.2701 25.7376C54.5336 25.1979 54.8329 24.676 55.164 24.169C55.4953 23.6618 55.8585 23.1753 56.2511 22.7065C56.6434 22.2348 57.0646 21.7895 57.5116 21.365C57.9617 20.9404 58.4346 20.5394 58.933 20.1649C59.4313 19.7905 59.9525 19.4425 60.4927 19.1212C61.0362 18.8027 61.5957 18.5108 62.1744 18.2513C62.7534 17.9889 63.3451 17.759 63.9529 17.5614C64.5607 17.3609 65.1781 17.1958 65.8051 17.0602C66.4354 16.9275 67.069 16.8272 67.7089 16.7594C68.3488 16.6946 68.9919 16.6592 69.6384 16.6592C69.9536 16.6592 70.2911 16.671 70.6224 16.6857Z" fill="#662D91" fill-opacity="0.7765"/>
<path fill-rule="evenodd" clip-rule="evenodd" d="M76.7003 30.4785C77.0508 35.4231 75.9607 39.902 76.9768 43.0803C78.7166 48.5055 86.4186 53.4207 82.8201 56.2129C81.6784 57.0475 79.7199 57.1034 78.5718 57.9231C76.7422 59.2322 77.9931 60.6475 78.1538 61.6705C78.2309 62.1543 77.7519 62.9324 76.1696 63.8789C77.366 64.6869 77.2567 65.371 76.8289 66.0018C76.2468 66.3676 75.6487 66.7096 75.0313 67.025C74.414 67.3434 73.7836 67.6324 73.1405 67.8978C72.494 68.1602 71.8381 68.3962 71.1722 68.6085C70.5034 68.8176 69.8248 68.9977 69.1398 69.1509C68.4549 69.3073 67.7603 69.4311 67.0626 69.5284C66.3646 69.6227 65.6638 69.6906 64.9594 69.7287C64.2519 69.7671 63.5476 69.7759 62.8433 69.7553C62.136 69.7348 61.4317 69.6845 60.7305 69.6051C60.0296 69.5284 59.3349 69.4192 58.6435 69.2836C57.9553 69.148 57.2735 68.9828 56.5984 68.7912C55.9229 68.5965 55.2605 68.3754 54.6076 68.1277C53.9549 67.8802 53.3182 67.6058 52.691 67.305C52.0673 67.0045 51.4562 66.6801 50.8646 66.3292C50.2695 65.9784 49.6971 65.6009 49.1407 65.2029C48.5846 64.8049 48.0475 64.3832 47.533 63.941C47.0184 63.4956 46.5264 63.0328 46.0602 62.5493C45.5904 62.0656 45.1467 61.5615 44.7255 61.0426C44.3074 60.5207 43.9151 59.984 43.5485 59.4298C43.1819 58.8784 42.8442 58.3094 42.5324 57.7284C42.2236 57.1476 41.9405 56.5549 41.6897 55.9505C41.4358 55.3431 41.2171 54.7298 41.0241 54.1078C40.8311 53.4855 40.6736 52.8547 40.5416 52.2177C40.4131 51.5808 40.3166 50.9411 40.249 50.2983C40.1848 49.6526 40.1493 49.0068 40.1461 48.3582C40.1461 47.7124 40.175 47.0667 40.2362 46.4209C40.2972 45.7752 40.3905 45.1356 40.5159 44.4986C40.6381 43.8617 40.7958 43.2308 40.9822 42.6056C41.1688 41.9806 41.3843 41.3674 41.6319 40.76C41.8795 40.1556 42.156 39.5599 42.4648 38.976C42.7702 38.3923 43.1047 37.8233 43.465 37.2689C43.8282 36.7116 44.2173 36.1721 44.6322 35.6503C45.047 35.1252 45.4876 34.6212 45.9539 34.1348C46.4202 33.6481 46.909 33.1795 47.4203 32.7341C47.9317 32.286 48.4624 31.8643 49.0153 31.4604C49.5686 31.0595 50.1409 30.6791 50.7326 30.3253C51.3211 29.9683 51.9289 29.6412 52.5526 29.3346C53.1766 29.0309 53.8134 28.7536 54.4629 28.5002C55.1126 28.2495 55.775 28.0255 56.447 27.8278C57.1193 27.6302 57.8011 27.4623 58.4924 27.3206C59.1806 27.1792 59.8751 27.07 60.5762 26.9847C61.2774 26.9021 61.9783 26.8488 62.6858 26.8254C63.3901 26.7988 64.0942 26.8046 64.8017 26.8371C65.506 26.8725 66.2072 26.9344 66.9081 27.0257C67.606 27.1174 68.3006 27.238 68.9855 27.3886C69.6737 27.5359 70.3523 27.7157 71.0211 27.9192C71.69 28.1257 72.3492 28.3585 72.9958 28.618C73.642 28.8804 74.2756 29.1665 74.893 29.479C75.5104 29.7915 76.115 30.1276 76.7003 30.4902V30.4785Z" fill="#92278F" fill-opacity="0.7765"/>
<path fill-rule="evenodd" clip-rule="evenodd" d="M71.6838 77.9379C62.7823 81.261 50.8646 70.1184 49.2632 92.8425C43.4745 89.3575 37.342 86.4975 30.8623 84.2595C30.5953 83.8999 30.3411 83.5341 30.1002 83.1596C29.8589 82.7853 29.6304 82.4019 29.4152 82.0157C29.1965 81.6294 28.9937 81.2343 28.8073 80.8363C28.6175 80.4383 28.4407 80.0313 28.2798 79.6245C28.1192 79.2145 27.9713 78.8019 27.8393 78.3831C27.7043 77.9646 27.5853 77.5458 27.4824 77.1212C27.3762 76.6965 27.2863 76.269 27.2123 75.8385C27.1352 75.4112 27.0771 74.9777 27.0289 74.5443C26.9838 74.1138 26.9518 73.6775 26.9356 73.244C26.9197 72.8074 26.9197 72.374 26.9324 71.9376C26.9454 71.5042 26.9743 71.0708 27.0162 70.6374C27.0578 70.2039 27.1158 69.7705 27.1898 69.3429C27.2606 68.9125 27.3473 68.4851 27.4501 68.0605C27.55 67.6329 27.6688 67.2112 27.7976 66.7957C27.9294 66.3769 28.0741 65.9611 28.2316 65.5513C28.3893 65.1414 28.5629 64.7375 28.7493 64.3366C28.9359 63.9356 29.1353 63.5403 29.3476 63.1543C29.5599 62.7651 29.7882 62.3818 30.0262 62.0072C30.264 61.6297 30.5182 61.2613 30.7817 60.9016C31.0455 60.5388 31.322 60.1851 31.6114 59.8401C31.8977 59.4951 32.1999 59.156 32.5119 58.8288C32.8207 58.5014 33.1455 58.1831 33.4766 57.8706C33.8111 57.5608 34.1552 57.263 34.5091 56.9713C34.8627 56.6822 35.2261 56.4022 35.5991 56.1337C35.9689 55.8625 36.3517 55.606 36.744 55.3585C37.1331 55.1107 37.5318 54.8747 37.9369 54.6507C38.3454 54.4237 38.7571 54.2114 39.1783 54.0108C39.5995 53.8105 40.0273 53.6216 40.4613 53.4447C40.8955 53.2678 41.3361 53.1056 41.7798 52.9524C42.2236 52.8019 42.674 52.6634 43.1304 52.5395C43.584 52.4127 44.0439 52.3008 44.5036 52.2036C44.9667 52.1031 45.433 52.0176 45.8993 51.9441C46.369 51.8732 46.8384 51.8144 47.3111 51.7672C47.7806 51.723 48.2566 51.6905 48.7293 51.6727C49.2051 51.6521 49.678 51.6492 50.1539 51.658C50.6265 51.6668 51.1026 51.6876 51.5753 51.7259C52.0479 51.7611 52.5174 51.8114 52.9871 51.8732C53.4566 51.9351 53.926 52.0118 54.3891 52.1032C54.8554 52.1916 55.3153 52.2949 55.7718 52.4098C56.2286 52.5278 56.6819 52.6575 57.1322 52.799C57.5792 52.9407 58.0229 53.0939 58.4603 53.262C58.9009 53.4301 59.3319 53.6099 59.7563 53.8017C60.1839 53.9962 60.602 54.1997 61.0136 54.4149C61.4253 54.6331 61.8306 54.8601 62.2261 55.099C62.6216 55.3377 63.0108 55.5884 63.3901 55.8508C63.7697 56.1132 64.1395 56.3844 64.4995 56.6676C64.8597 56.9505 65.2102 57.2454 65.5511 57.5461C65.892 57.8498 66.2202 58.1623 66.5417 58.4838C66.8601 58.8051 67.1686 59.1384 67.4645 59.4775C67.7603 59.8164 68.0466 60.1643 68.3199 60.5212C68.5932 60.875 68.8538 61.2405 69.1014 61.6092C69.349 61.9806 69.5838 62.358 69.8057 62.7443C70.0308 63.1277 70.2399 63.5169 70.4329 63.9149C70.6291 64.3099 70.8122 64.7109 70.9795 65.1179C71.15 65.5247 71.3042 65.9376 71.4426 66.3532C71.5842 66.769 71.7095 67.1878 71.822 67.6093C71.9346 68.0339 72.0311 68.4585 72.1146 68.8861C72.1949 69.3166 72.2657 69.7471 72.3171 70.1776C72.372 70.611 72.4104 71.0444 72.433 71.4778C72.4587 71.9142 72.465 72.3476 72.4619 72.784C72.4555 73.2174 72.433 73.6508 72.3977 74.0872C72.3622 74.5206 72.3139 74.9511 72.2466 75.3845C72.1822 75.815 72.1019 76.2426 72.0086 76.6702C71.9153 77.0945 71.806 77.5192 71.6838 77.9379Z" fill="#007FC6" fill-opacity="0.7765"/>
<path fill-rule="evenodd" clip-rule="evenodd" d="M58.6146 78.0558C53.9131 78.2356 50.1184 80.7184 49.2629 92.8426C43.5066 89.3781 37.4094 86.5298 30.9713 84.2948C30.9906 83.5577 31.0776 82.8264 31.2255 82.1042C31.3766 81.3788 31.5889 80.6712 31.8622 79.9783C32.1387 79.2854 32.4764 78.6189 32.8687 77.9761C33.2642 77.3365 33.7144 76.7259 34.2162 76.1511C34.7211 75.5762 35.2709 75.0455 35.869 74.5529C36.4704 74.0606 37.1072 73.6155 37.7858 73.2204C38.4642 72.8222 39.1717 72.4801 39.9113 72.1884C40.6511 71.8994 41.4098 71.6665 42.1913 71.4896C42.9727 71.3125 43.764 71.1977 44.5646 71.1385C45.3654 71.0826 46.1694 71.0826 46.97 71.1476C47.7708 71.2094 48.5618 71.3303 49.3401 71.5102C50.1184 71.6929 50.8773 71.9289 51.6137 72.2238C52.3533 72.5185 53.0576 72.8664 53.7328 73.2676C54.4082 73.6685 55.0418 74.1166 55.6367 74.6121C56.2347 75.1073 56.7816 75.6441 57.2799 76.2219C57.7783 76.7997 58.2255 77.41 58.6146 78.0558Z" fill="#01A6E6" fill-opacity="0.7765"/>
<path fill-rule="evenodd" clip-rule="evenodd" d="M80.122 57.23C79.5625 57.3773 79.0479 57.6043 78.5721 57.9109C76.7422 59.22 77.9931 60.6353 78.1538 61.6556C78.2312 62.142 77.7519 62.9204 76.1699 63.8669C77.9995 65.1022 76.7679 66.0517 76.0315 66.9627C72.6098 69.2242 77.3726 74.1248 71.7255 77.9252C66.0238 80.0777 59.0939 76.2799 54.4117 79.1962C54.3377 78.804 54.2765 78.4087 54.2283 78.0136C54.1832 77.6186 54.1479 77.2235 54.1286 76.8255C54.106 76.4275 54.0997 76.0295 54.1061 75.6313C54.1124 75.2333 54.1318 74.8382 54.1638 74.4402C54.1962 74.0422 54.2444 73.6471 54.3022 73.255C54.3634 72.8597 54.4374 72.4675 54.5209 72.0783C54.6078 71.6891 54.7075 71.2999 54.8199 70.9168C54.9326 70.5335 55.058 70.1531 55.1963 69.7756C55.3345 69.3981 55.4856 69.0238 55.6496 68.6552C55.8137 68.2867 55.9905 67.9239 56.1772 67.5643C56.3667 67.2076 56.5663 66.8538 56.7784 66.5059C56.9907 66.1609 57.2126 65.8188 57.4472 65.4826C57.6821 65.1494 57.9296 64.8222 58.187 64.5007C58.4442 64.1824 58.7111 63.8669 58.9908 63.5633C59.2675 63.2566 59.557 62.9617 59.856 62.6727C60.155 62.3839 60.4638 62.1037 60.7788 61.8325C61.0972 61.5613 61.4221 61.2986 61.7596 61.0453C62.0941 60.7917 62.4382 60.5498 62.7887 60.317C63.1394 60.0839 63.4994 59.8598 63.866 59.6475C64.2326 59.4352 64.6058 59.2319 64.9883 59.0401C65.3679 58.8486 65.7536 58.6688 66.146 58.4977C66.5383 58.3296 66.9372 58.1704 67.3423 58.023C67.7444 57.8755 68.1527 57.7428 68.5643 57.6192C68.9792 57.4953 69.3941 57.3831 69.8153 57.283C70.2333 57.1826 70.658 57.0941 71.0824 57.0176C71.51 56.9409 71.9378 56.8789 72.3686 56.8258C72.7996 56.7758 73.2306 56.7345 73.6646 56.7081C74.0956 56.6815 74.5298 56.6668 74.9638 56.6636C75.398 56.6607 75.8322 56.6697 76.2661 56.6932C76.6972 56.714 77.1314 56.7491 77.5621 56.7965C77.9932 56.8437 78.4207 56.9026 78.8486 56.9734C79.2762 57.044 79.7008 57.1266 80.122 57.2238V57.23Z" fill="#2063B2" fill-opacity="0.7765"/>
<path fill-rule="evenodd" clip-rule="evenodd" d="M13.9245 57.4722C14.4583 57.4722 14.9889 57.4251 15.5131 57.3276C16.0373 57.2333 16.5454 57.0918 17.0406 56.9061C17.5359 56.7173 18.0054 56.4874 18.4491 56.2162C18.8929 55.9418 19.3046 55.6352 19.684 55.2873C20.0603 54.9423 20.3979 54.565 20.6938 54.158C20.9929 53.7483 21.2437 53.3207 21.4495 52.8665C21.6521 52.4126 21.8065 51.9466 21.9126 51.4661C22.0155 50.9855 22.0669 50.502 22.0669 50.0094C22.0669 49.52 22.0155 49.0365 21.9126 48.556C21.8065 48.0754 21.6521 47.6095 21.4495 47.1553C21.2437 46.7042 20.9929 46.2737 20.697 45.867C20.4012 45.457 20.0635 45.0827 19.684 44.7348C19.3078 44.3898 18.8962 44.08 18.4524 43.8059C18.0054 43.5347 17.5359 43.3048 17.0438 43.1188C16.5486 42.9302 16.0405 42.7888 15.5163 42.6942C14.9922 42.597 14.4615 42.5498 13.9277 42.5498C13.3939 42.5498 12.8633 42.597 12.3391 42.6942C11.8149 42.7888 11.3068 42.9302 10.8116 43.1188C10.3196 43.3048 9.85006 43.5347 9.40308 43.8088C8.9593 44.08 8.54767 44.3898 8.17141 44.7377C7.79194 45.0827 7.45428 45.4599 7.15844 45.867C6.86258 46.2737 6.61175 46.7042 6.40594 47.1584C6.20334 47.6095 6.04898 48.0783 5.94286 48.5589C5.83996 49.0395 5.78851 49.523 5.78851 50.0155C5.78851 50.5049 5.84317 50.9884 5.94607 51.469C6.05219 51.9466 6.20655 52.4126 6.41236 52.8665C6.61817 53.3178 6.869 53.7483 7.16486 54.1551C7.46072 54.5589 7.79838 54.9364 8.17785 55.2814C8.55409 55.6293 8.96571 55.9389 9.40949 56.2103C9.85327 56.4815 10.3196 56.7114 10.8148 56.9C11.3068 57.0889 11.8149 57.2303 12.3391 57.3247C12.8633 57.4221 13.3907 57.4722 13.9245 57.4722Z" fill="#12BCBC" fill-opacity="0.7765"/>
<path fill-rule="evenodd" clip-rule="evenodd" d="M30.9715 67.8563C31.4603 67.8592 31.9428 67.815 32.4218 67.7295C32.9011 67.6439 33.3674 67.5171 33.8175 67.3461C34.2676 67.1753 34.6954 66.966 35.1039 66.7182C35.509 66.4734 35.8852 66.1905 36.2327 65.8751C36.5767 65.5594 36.8853 65.2173 37.1586 64.846C37.4287 64.4744 37.6604 64.0822 37.8468 63.6696C38.0334 63.2567 38.1749 62.832 38.2714 62.3927C38.3679 61.9535 38.4162 61.5112 38.4194 61.0661C38.4194 60.6177 38.3711 60.1755 38.2778 59.7362C38.1845 59.2969 38.0429 58.8723 37.8566 58.4594C37.6732 58.0438 37.4449 57.6517 37.1716 57.2801C36.9015 56.9087 36.5958 56.5637 36.2518 56.2481C35.9077 55.9297 35.5315 55.6465 35.1262 55.399C34.7212 55.1484 34.2933 54.939 33.8432 54.768C33.3931 54.5969 32.9268 54.4672 32.4507 54.3788C31.9717 54.2903 31.4892 54.2461 31.0004 54.2461C30.5116 54.2461 30.0292 54.2903 29.5501 54.3758C29.0741 54.4643 28.6078 54.5911 28.1576 54.7621C27.7075 54.9331 27.2797 55.1425 26.8714 55.39C26.4661 55.6407 26.0932 55.9209 25.7459 56.2363C25.4018 56.5547 25.093 56.8967 24.8229 57.2683C24.5527 57.6397 24.3212 58.0319 24.1347 58.4448C23.9482 58.8606 23.8067 59.285 23.7134 59.7245C23.6169 60.1609 23.5687 60.606 23.5687 61.0512C23.5719 61.4963 23.6201 61.9388 23.7134 62.3752C23.8099 62.8144 23.9514 63.2391 24.1379 63.6488C24.3212 64.0617 24.5496 64.4538 24.8197 64.8223C25.0898 65.1939 25.3984 65.5389 25.7393 65.8543C26.0834 66.1697 26.4566 66.4499 26.8616 66.7006C27.2638 66.9481 27.6914 67.1575 28.1415 67.3285C28.5887 67.5025 29.0518 67.6322 29.5276 67.7207C30.0034 67.8091 30.4859 67.8563 30.9715 67.8563Z" fill="#00B9F1" fill-opacity="0.7765"/>
<path fill-rule="evenodd" clip-rule="evenodd" d="M12.7539 39.3146C13.1302 39.3146 13.5 39.2824 13.8666 39.2144C14.2332 39.1465 14.5902 39.0493 14.9375 38.9166C15.2816 38.7869 15.6128 38.6247 15.9215 38.4331C16.2335 38.2445 16.5229 38.0261 16.7866 37.7844C17.0535 37.5396 17.2883 37.2772 17.4973 36.9914C17.7063 36.7053 17.88 36.4045 18.0247 36.0862C18.1662 35.7705 18.2755 35.4433 18.3495 35.1072C18.4202 34.771 18.4588 34.4289 18.4588 34.0871C18.4588 33.7421 18.4202 33.403 18.3495 33.0668C18.2755 32.7277 18.1662 32.4035 18.0247 32.0849C17.88 31.7666 17.7031 31.4658 17.4973 31.1797C17.2883 30.8968 17.0503 30.6314 16.7866 30.3896C16.5197 30.145 16.2335 29.9297 15.9215 29.738C15.6096 29.5464 15.2816 29.3871 14.9343 29.2544C14.5902 29.1247 14.2332 29.0245 13.8634 28.9566C13.4968 28.8919 13.127 28.8594 12.7507 28.8594C12.3777 28.8594 12.0047 28.8919 11.6381 28.9595C11.2715 29.0275 10.9145 29.1247 10.5704 29.2574C10.2231 29.3871 9.8951 29.5493 9.58315 29.7409C9.27122 29.9327 8.98501 30.1479 8.7181 30.3925C8.45442 30.6344 8.21645 30.8997 8.01064 31.1826C7.80159 31.4687 7.62794 31.7724 7.48323 32.0878C7.33852 32.4064 7.2324 32.7336 7.15844 33.0698C7.08769 33.4059 7.0491 33.7451 7.0491 34.0901C7.0523 34.4321 7.08769 34.771 7.16165 35.1072C7.23561 35.4463 7.34496 35.7705 7.48646 36.0891C7.63117 36.4045 7.80803 36.7053 8.01385 36.9914C8.22287 37.2772 8.46083 37.5396 8.72454 37.7815C8.98825 38.0261 9.27767 38.2413 9.58959 38.4331C9.89831 38.6217 10.2263 38.784 10.5736 38.9137C10.9177 39.0464 11.2747 39.1465 11.6413 39.2144C12.0079 39.2792 12.3809 39.3146 12.7539 39.3146Z" fill="#8DC63F" fill-opacity="0.7765"/>
<path d="M9.90794 21.0962C9.90794 21.394 9.87899 21.6889 9.81468 21.9808C9.75037 22.2727 9.65711 22.5557 9.5317 22.8299C9.40949 23.1041 9.25834 23.3636 9.07825 23.6113C8.89817 23.859 8.69236 24.0889 8.46404 24.2983C8.23249 24.5076 7.98487 24.6962 7.71475 24.8614C7.44463 25.0265 7.15842 25.1651 6.85935 25.2801C6.56028 25.3923 6.25156 25.4776 5.93319 25.5367C5.61482 25.5956 5.29325 25.6251 4.97167 25.6251C4.64686 25.6251 4.32529 25.5956 4.00692 25.5367C3.68855 25.4776 3.37984 25.3923 3.08077 25.2801C2.7817 25.1651 2.49549 25.0265 2.22537 24.8614C1.95524 24.6962 1.70762 24.5076 1.4793 24.2983C1.24776 24.0889 1.04516 23.859 0.865077 23.6113C0.684991 23.3636 0.530632 23.1041 0.40843 22.8299C0.283015 22.5557 0.189756 22.2727 0.125439 21.9808C0.0643393 21.6889 0.0321808 21.394 0.0321808 21.0962C0.0321808 20.7984 0.0643393 20.5036 0.125439 20.2146C0.189756 19.9227 0.283015 19.6397 0.40843 19.3655C0.530632 19.0883 0.684991 18.8288 0.865077 18.5812C1.04516 18.3335 1.24776 18.1065 1.4793 17.8942C1.70762 17.6848 1.95524 17.4991 2.22537 17.334C2.49549 17.1689 2.7817 17.0273 3.08077 16.9153C3.37984 16.8003 3.68855 16.7148 4.00692 16.6558C4.32529 16.5998 4.64686 16.5703 4.97167 16.5703C5.29325 16.5703 5.61482 16.5998 5.93319 16.6558C6.25156 16.7148 6.56028 16.8003 6.85935 16.9153C7.15842 17.0273 7.44463 17.1689 7.71475 17.334C7.98487 17.4991 8.23249 17.6848 8.46404 17.8942C8.69236 18.1065 8.89817 18.3335 9.07825 18.5812C9.25834 18.8288 9.40949 19.0883 9.5317 19.3655C9.65711 19.6397 9.75037 19.9227 9.81468 20.2146C9.87899 20.5036 9.90794 20.7984 9.90794 21.0962Z" fill="#FFD900" fill-opacity="0.7765"/>
<path fill-rule="evenodd" clip-rule="evenodd" d="M15.4037 12.802C15.7092 12.802 16.0083 12.7754 16.3042 12.7224C16.6032 12.6663 16.8894 12.5867 17.1692 12.4806C17.449 12.3744 17.7159 12.2447 17.9667 12.0914C18.2208 11.9381 18.4523 11.7611 18.6678 11.5665C18.88 11.369 19.073 11.1567 19.2402 10.9267C19.4106 10.6938 19.5521 10.452 19.6679 10.1955C19.7837 9.93897 19.8705 9.67362 19.9316 9.40235C19.9895 9.13108 20.0184 8.85392 20.0184 8.57676C20.0184 8.2996 19.9895 8.0254 19.9316 7.7512C19.8737 7.47993 19.7837 7.21457 19.6679 6.95806C19.5521 6.70152 19.4106 6.45974 19.2434 6.22976C19.0762 5.99685 18.8832 5.78456 18.671 5.587C18.4555 5.3924 18.224 5.21548 17.9732 5.06217C17.7191 4.90884 17.4554 4.77617 17.1756 4.67001C16.8959 4.56388 16.6064 4.48426 16.3106 4.43119C16.0115 4.37517 15.7124 4.34863 15.4102 4.34863C15.1079 4.34863 14.8056 4.37517 14.5097 4.42823C14.2139 4.48426 13.9245 4.56388 13.6447 4.67001C13.3649 4.77617 13.098 4.90591 12.8471 5.05922C12.5963 5.21548 12.3616 5.38944 12.1493 5.587C11.9339 5.7816 11.7441 5.99685 11.5737 6.22683C11.4065 6.45681 11.265 6.70152 11.1492 6.95806C11.0334 7.21457 10.9466 7.47697 10.8855 7.7512C10.8276 8.02244 10.7987 8.29667 10.7987 8.57383C10.7987 8.85099 10.8276 9.12814 10.8887 9.39939C10.9466 9.67066 11.0334 9.93602 11.1492 10.1896C11.265 10.4461 11.4065 10.6908 11.5769 10.9208C11.7441 11.1508 11.9339 11.3661 12.1493 11.5606C12.3616 11.7582 12.5963 11.9321 12.8471 12.0855C13.098 12.2418 13.3649 12.3715 13.6415 12.4776C13.9212 12.5838 14.2106 12.6634 14.5065 12.7194C14.8024 12.7725 15.1014 12.802 15.4037 12.802Z" fill="#009444" fill-opacity="0.7765"/>
<path fill-rule="evenodd" clip-rule="evenodd" d="M16.9699 23.3374C17.375 23.3374 17.7642 23.2666 18.1372 23.1251C18.5102 22.9806 18.8382 22.7801 19.1245 22.5177C19.4107 22.2582 19.6293 21.9545 19.7837 21.6125C19.9381 21.2705 20.0152 20.9137 20.0152 20.5452C20.0152 20.1736 19.9381 19.8169 19.7837 19.4749C19.6293 19.1328 19.4107 18.8321 19.1245 18.5697C18.8382 18.3072 18.5102 18.1068 18.1372 17.9652C17.7642 17.8237 17.375 17.7529 16.9699 17.7529C16.5679 17.7529 16.1788 17.8237 15.8057 17.9652C15.4327 18.1068 15.1015 18.3072 14.8153 18.5697C14.5323 18.8321 14.3104 19.1328 14.156 19.4749C14.0017 19.8169 13.9245 20.1736 13.9245 20.5452C13.9245 20.9137 14.0049 21.2705 14.1592 21.6125C14.3136 21.9545 14.5323 22.2553 14.8185 22.5177C15.1047 22.7772 15.4327 22.9806 15.8057 23.1221C16.1788 23.2636 16.5679 23.3344 16.9699 23.3374Z" fill="#56BA48" fill-opacity="0.7765"/>
<path fill-rule="evenodd" clip-rule="evenodd" d="M23.3242 5.58443C23.7262 5.58443 24.1153 5.51367 24.4883 5.37214C24.8613 5.23063 25.1895 5.02718 25.4755 4.76476C25.7618 4.50529 25.9837 4.20159 26.1379 3.85957C26.2925 3.51754 26.3696 3.16079 26.3696 2.79223C26.3696 2.42071 26.2925 2.06394 26.1379 1.72192C25.9837 1.37989 25.7618 1.07915 25.4755 0.816732C25.1895 0.554316 24.8613 0.353819 24.4883 0.212291C24.1153 0.0707638 23.7262 0 23.3242 0C22.919 0 22.5299 0.0707638 22.1569 0.212291C21.7838 0.353819 21.4558 0.554316 21.1696 0.816732C20.8834 1.07915 20.6647 1.37989 20.5104 1.72192C20.3528 2.06394 20.2756 2.42071 20.2756 2.79223C20.2788 3.16079 20.356 3.51754 20.5104 3.85957C20.6647 4.20159 20.8866 4.50235 21.1696 4.76476C21.4558 5.02422 21.787 5.22767 22.1569 5.36921C22.5299 5.51072 22.919 5.5815 23.3242 5.58443Z" fill="#FBAD17" fill-opacity="0.7765"/>
<path fill-rule="evenodd" clip-rule="evenodd" d="M4.61456 11.8052C4.92007 11.8052 5.2127 11.7492 5.49571 11.6431C5.77548 11.534 6.0263 11.3807 6.23856 11.1831C6.45402 10.9826 6.62123 10.7556 6.737 10.4961C6.85276 10.2367 6.91065 9.96539 6.91065 9.6853C6.90745 9.40814 6.84955 9.13687 6.73058 8.88036C6.61479 8.62089 6.44758 8.39386 6.22891 8.19631C6.01345 7.99875 5.76262 7.84544 5.48283 7.7393C5.19985 7.63314 4.90398 7.58008 4.59847 7.58008C4.2962 7.58008 4.00034 7.63314 3.71736 7.74223C3.43758 7.84839 3.18674 8.0017 2.97127 8.19926C2.75581 8.3968 2.5886 8.62678 2.47283 8.88624C2.35706 9.14278 2.29918 9.41403 2.29918 9.69414C2.29918 9.97426 2.35706 10.2425 2.47604 10.502C2.59504 10.7615 2.76225 10.9915 2.97772 11.189C3.19638 11.3866 3.44723 11.5399 3.73021 11.646C4.01322 11.7522 4.30905 11.8082 4.61456 11.8052Z" fill="#F15C22" fill-opacity="0.7765"/>
<path d="M59.4186 33.3646C59.4186 33.9454 59.3865 34.5203 59.3253 35.0954C59.2643 35.6732 59.171 36.2422 59.0488 36.8113C58.9234 37.3774 58.7723 37.9376 58.5889 38.492C58.4057 39.0463 58.1934 39.5887 57.9522 40.1226C57.7109 40.6591 57.4408 41.181 57.1418 41.6911C56.846 42.2012 56.5212 42.6965 56.1705 43.1771C55.8201 43.6576 55.4439 44.1206 55.045 44.5687C54.6431 45.017 54.2219 45.4446 53.7749 45.8514C53.3277 46.2614 52.8615 46.6506 52.3761 47.0161C51.8873 47.3845 51.3791 47.7266 50.8548 48.0481C50.3307 48.3694 49.7904 48.6672 49.234 48.9384C48.6779 49.2128 48.1085 49.4603 47.5266 49.6814C46.9413 49.9027 46.3496 50.0972 45.745 50.2653C45.1403 50.4334 44.5293 50.5719 43.9119 50.6841C43.2913 50.7989 42.6673 50.8844 42.0404 50.9406C41.4132 50.9966 40.7829 51.0261 40.1527 51.0261C39.5224 51.0261 38.892 50.9966 38.2651 50.9406C37.6347 50.8844 37.0141 50.7989 36.3933 50.6841C35.7759 50.5719 35.1649 50.4334 34.5602 50.2653C33.9558 50.0972 33.3642 49.9027 32.7789 49.6814C32.1967 49.4603 31.6276 49.2128 31.0712 48.9384C30.5148 48.6672 29.9745 48.3694 29.4504 48.0481C28.9229 47.7266 28.4182 47.3845 27.9294 47.0161C27.4438 46.6506 26.9743 46.2614 26.5305 45.8514C26.0836 45.4446 25.6589 45.017 25.2602 44.5687C24.8584 44.1206 24.4852 43.6576 24.1347 43.1771C23.7842 42.6965 23.4594 42.2012 23.1603 41.6911C22.8645 41.181 22.5943 40.6591 22.3531 40.1226C22.112 39.5887 21.8997 39.0463 21.7164 38.492C21.5331 37.9376 21.3788 37.3774 21.2566 36.8113C21.1344 36.2422 21.0411 35.6732 20.98 35.0954C20.9189 34.5203 20.8867 33.9454 20.8867 33.3646C20.8867 32.7866 20.9189 32.2117 20.98 31.6338C21.0411 31.059 21.1344 30.4868 21.2566 29.9207C21.3788 29.3546 21.5331 28.7914 21.7164 28.24C21.8997 27.6859 22.112 27.1432 22.3531 26.6067C22.5943 26.0729 22.8645 25.551 23.1603 25.0411C23.4594 24.5309 23.7842 24.0355 24.1347 23.5549C24.4852 23.0743 24.8584 22.6085 25.2602 22.1632C25.6589 21.7151 26.0836 21.2876 26.5305 20.8777C26.9743 20.4708 27.4438 20.0816 27.9294 19.716C28.4182 19.3474 28.9229 19.0025 29.4504 18.684C29.9745 18.3626 30.5148 18.0649 31.0712 17.7906C31.6276 17.5194 32.1967 17.2717 32.7789 17.0506C33.3642 16.8294 33.9558 16.6348 34.5602 16.4668C35.1649 16.2987 35.7759 16.1601 36.3933 16.0451C37.0141 15.9331 37.6347 15.8476 38.2651 15.7916C38.892 15.7355 39.5224 15.7061 40.1527 15.7061C40.7829 15.7061 41.4132 15.7355 42.0404 15.7916C42.6673 15.8476 43.2913 15.9331 43.9119 16.0451C44.5293 16.1601 45.1403 16.2987 45.745 16.4668C46.3496 16.6348 46.9413 16.8294 47.5266 17.0506C48.1085 17.2717 48.6779 17.5194 49.234 17.7906C49.7904 18.0649 50.3307 18.3626 50.8548 18.684C51.3791 19.0025 51.8873 19.3474 52.3761 19.716C52.8615 20.0816 53.3277 20.4708 53.7749 20.8777C54.2219 21.2876 54.6431 21.7151 55.045 22.1632C55.4439 22.6085 55.8201 23.0743 56.1705 23.5549C56.5212 24.0355 56.846 24.5309 57.1418 25.0411C57.4408 25.551 57.7109 26.0729 57.9522 26.6067C58.1934 27.1432 58.4057 27.6859 58.5889 28.24C58.7723 28.7914 58.9234 29.3546 59.0488 29.9207C59.171 30.4868 59.2643 31.059 59.3253 31.6338C59.3865 32.2117 59.4186 32.7866 59.4186 33.3646Z" fill="#FBAD17" fill-opacity="0.7765"/>
<path fill-rule="evenodd" clip-rule="evenodd" d="M50.7938 6.6377C60.0262 8.3832 67.7635 12.6231 72.3235 18.7206C72.2464 19.2366 72.1337 19.7467 71.9858 20.2509C71.8379 20.755 71.6579 21.2475 71.4424 21.731C71.2269 22.2146 70.9825 22.6834 70.7028 23.1404C70.4263 23.5945 70.1175 24.0338 69.7832 24.4553C69.4455 24.8741 69.082 25.275 68.6897 25.6525C68.2974 26.0329 67.8825 26.3896 67.4451 26.72C67.0046 27.053 66.5447 27.3567 66.0625 27.6369C65.5832 27.9169 65.0848 28.1676 64.5703 28.3916C64.0558 28.6157 63.5282 28.8074 62.988 28.9694C62.4478 29.1346 61.898 29.2643 61.3384 29.3677C60.7788 29.4678 60.216 29.5358 59.65 29.5709C59.0809 29.6093 58.5118 29.6122 57.9424 29.5859C57.3764 29.5563 56.8105 29.4974 56.2509 29.4029C55.6913 29.3115 55.1383 29.1879 54.5949 29.0344C54.0514 28.8781 53.5207 28.6924 53.003 28.4771C52.4819 28.2619 51.9803 28.0173 51.4947 27.7459C51.0091 27.4717 50.546 27.1739 50.099 26.8497C49.6553 26.5223 49.234 26.1744 48.8353 25.7998C48.4364 25.4285 48.0666 25.0334 47.7225 24.6176C47.3785 24.2018 47.0633 23.7684 46.7772 23.3173C46.4909 22.8662 46.237 22.4003 46.0151 21.9197C45.7898 21.4391 45.6002 20.9497 45.4457 20.4455C45.2882 19.9442 45.166 19.4371 45.0791 18.9211C44.9924 18.4051 44.941 17.8862 44.9216 17.3643C44.9055 16.8424 44.9216 16.3235 44.9762 15.8045C45.0277 15.2827 45.1178 14.7696 45.24 14.2595C45.3622 13.7495 45.5197 13.2482 45.7095 12.7588C45.8993 12.2663 46.1243 11.7858 46.3783 11.3199C46.6325 10.854 46.9185 10.4029 47.2369 9.96948C47.5521 9.53606 47.8962 9.12032 48.2694 8.72818C48.6424 8.33307 49.0379 7.95862 49.4623 7.61071C49.8835 7.25984 50.3275 6.9355 50.7938 6.6377Z" fill="#EC008B" fill-opacity="0.7765"/>
<path fill-rule="evenodd" clip-rule="evenodd" d="M33.6664 25.6279C34.4253 25.6279 35.1744 25.5602 35.9175 25.4247C36.6602 25.2891 37.3839 25.0885 38.0816 24.8231C38.7828 24.5578 39.4484 24.2305 40.0788 23.8442C40.7089 23.458 41.291 23.0216 41.8281 22.5292C42.362 22.0397 42.841 21.5031 43.2622 20.9282C43.6837 20.3502 44.0405 19.7399 44.33 19.0971C44.6194 18.4573 44.8381 17.7969 44.986 17.1157C45.134 16.4317 45.2079 15.7447 45.2079 15.0518C45.2079 14.356 45.134 13.669 44.986 12.9879C44.8381 12.3068 44.6194 11.6463 44.33 11.0035C44.0405 10.3608 43.6837 9.75337 43.2622 9.17547C42.841 8.59758 42.3651 8.06388 41.8281 7.5715C41.2942 7.08206 40.7089 6.64272 40.0788 6.25647C39.4516 5.87022 38.786 5.54588 38.0848 5.28053C37.3839 5.01515 36.6634 4.81466 35.9207 4.67903C35.1779 4.54341 34.4285 4.47559 33.6695 4.47559C32.9106 4.47559 32.1612 4.54341 31.4185 4.67903C30.6757 4.81466 29.9552 5.01515 29.2543 5.28053C28.5531 5.54588 27.8907 5.87022 27.2603 6.25647C26.6302 6.64272 26.0481 7.08206 25.511 7.5715C24.974 8.06388 24.4981 8.59758 24.0768 9.17547C23.6555 9.75337 23.2985 10.3608 23.0091 11.0035C22.7197 11.6463 22.501 12.3068 22.3531 12.9879C22.2052 13.669 22.1312 14.356 22.1312 15.0518C22.1312 15.7447 22.2084 16.4317 22.3563 17.1128C22.5042 17.7939 22.7261 18.4544 23.0156 19.0942C23.305 19.734 23.6619 20.3444 24.08 20.9222C24.5013 21.4972 24.9803 22.0309 25.5142 22.5233C26.0513 23.0127 26.6334 23.452 27.2638 23.8383C27.8907 24.2246 28.5563 24.549 29.2543 24.8173C29.9552 25.0826 30.6757 25.2832 31.4185 25.4188C32.158 25.5573 32.9074 25.625 33.6664 25.6279Z" fill="#56BA48" fill-opacity="0.7765"/>
<path d="M40.8698 17.5262C41.1463 17.7798 41.4872 17.9065 41.8313 17.9065H50.0606C50.4015 17.9065 50.7455 17.7798 51.0189 17.5262L53.2827 15.4475C53.9677 15.763 54.7234 15.9517 55.5468 15.9517C58.2191 15.9517 60.3448 13.9969 60.3448 11.5378C60.3448 9.07877 58.2191 7.12393 55.5468 7.12393C52.8713 7.12393 50.7455 9.07877 50.7455 11.5378C50.7455 12.2956 50.9513 12.9885 51.2922 13.6195L49.5105 15.3827H42.3779L37.715 11.0955V2.77492H41.6929C41.8313 2.77492 41.9662 2.83683 42.1046 2.77492C54.3118 2.33264 66.8598 7.43943 72.9634 17.9065H68.3682C67.7508 16.0785 65.9691 14.7546 63.7726 14.7546C61.1003 14.7546 58.9749 16.7065 58.9749 19.1656C58.9749 21.1853 60.4122 22.8246 62.4027 23.3907V34.9281H52.1155C51.3629 34.9281 50.7455 35.4971 50.7455 36.19V43.1251H48.0024V35.5592C48.0024 35.1817 47.7965 34.8663 47.5232 34.6127L43.2012 31.2103V22.9485H48.8256L50.678 24.6527C50.3339 25.2838 50.1282 25.9766 50.1282 26.7314C50.1282 29.1904 52.2536 31.1453 54.9294 31.1453C57.6017 31.1453 59.7272 29.1904 59.7272 26.7314C59.7272 24.2723 57.6017 22.3205 54.9294 22.3205C54.106 22.3205 53.3503 22.5091 52.6653 22.8246L50.4015 20.743C50.0606 20.5543 49.7165 20.4275 49.3724 20.4275H41.8313C41.0755 20.4275 40.4581 20.9936 40.4581 21.6895V31.7763C40.4581 32.1536 40.6638 32.4692 40.9406 32.7226L45.2593 36.1253V43.1251H39.7731C39.4291 43.1251 39.0882 43.2519 38.8149 43.5023L27.8425 53.592C27.566 53.8427 27.4308 54.1581 27.4308 54.4738V64.7492C25.4402 65.3182 24.0028 66.9576 24.0028 68.9743C24.0028 71.4334 26.1284 73.3882 28.8007 73.3882C31.4762 73.3882 33.602 71.4334 33.602 68.9743C33.602 66.9576 32.1612 65.3182 30.1739 64.7492V54.9778L40.3229 45.646H65.1458C65.6926 45.646 66.1749 45.3953 66.3808 44.9531L70.4939 37.3872C70.5612 37.1986 70.632 37.0097 70.632 36.8211V32.4072H76.6651V37.5758L74.8834 41.17C74.7451 41.4857 74.7451 41.8011 74.8126 42.1165L80.8486 56.9326C80.8486 56.9947 80.8486 57.0595 80.8486 57.1215C80.7813 57.1833 80.7813 57.1833 80.7105 57.1833H74.8126C74.4042 57.1833 73.9925 57.3751 73.716 57.6876C73.4427 58.003 73.3751 58.4452 73.5103 58.8227L75.1567 63.2366L72.002 64.2449C71.5903 64.3717 71.2496 64.6872 71.1113 65.0646C70.9729 65.445 71.0437 65.8843 71.317 66.1998L73.3751 68.7857L71.5903 70.0476C71.2496 70.2982 71.0437 70.6757 71.0437 71.0559V74.2699C71.0437 75.7205 70.2206 77.1092 68.8472 77.8021C68.2298 78.1796 67.4775 78.3682 66.7217 78.3682C61.0295 78.4332 39.0882 71.8108 39.0882 60.7775V58.1298C39.0882 57.4369 38.4708 56.8708 37.715 56.8708C36.9625 56.8708 36.3451 57.4369 36.3451 58.1298V60.7775C36.3451 74.2079 60.9622 80.9541 66.7925 80.9541C68.0241 80.9541 69.2589 80.6387 70.2879 80.0726C72.4812 78.8725 73.7868 76.7288 73.7868 74.3347V71.687L76.0474 70.0476C76.5975 69.6053 76.7356 68.8475 76.3242 68.3434L74.6069 66.1379L77.3498 65.2535C78.0382 65.0028 78.4496 64.3099 78.1731 63.6788L76.7356 59.7072H80.7105C81.672 59.7072 82.5627 59.2649 83.1127 58.572C83.6593 57.8144 83.7977 56.8708 83.4536 56.0511L77.6265 41.7393L79.2698 38.3955C79.3406 38.2069 79.4079 38.0801 79.4079 37.8915V30.9566C78.9965 21.4359 74.7451 13.4307 67.2039 7.75492C60.3448 2.5862 51.4979 0.000383466 42.1046 0.251005C42.037 0.251005 41.8989 0.251005 41.8313 0.251005H36.3451C35.5893 0.251005 34.9719 0.820064 34.9719 1.51296V11.5997C34.9719 11.9152 35.1103 12.2307 35.3836 12.4843L40.8698 17.5262ZM55.5468 9.70976C56.7108 9.70976 57.6017 10.5294 57.6017 11.5997C57.6017 12.673 56.7108 13.4927 55.5468 13.4927C54.3793 13.4927 53.4887 12.673 53.4887 11.5997C53.4887 10.5294 54.3793 9.70976 55.5468 9.70976ZM54.8586 24.8413C56.0258 24.8413 56.9167 25.661 56.9167 26.7314C56.9167 27.8047 56.0258 28.6244 54.8586 28.6244C53.6944 28.6244 52.8037 27.8047 52.8037 26.7314C52.8037 25.661 53.6944 24.8413 54.8586 24.8413ZM30.8589 68.9743C30.8589 70.0476 29.9682 70.8673 28.8007 70.8673C27.6367 70.8673 26.7458 70.0476 26.7458 68.9743C26.7458 67.9041 27.6367 67.0844 28.8007 67.0844C29.9682 67.0844 30.8589 67.9041 30.8589 68.9743ZM61.718 19.1656C61.718 18.0953 62.6087 17.2756 63.7726 17.2756C64.9401 17.2756 65.8308 18.0953 65.8308 19.1656C65.8308 20.2388 64.9401 21.0585 63.7726 21.0585C62.6087 21.0585 61.718 20.2388 61.718 19.1656ZM76.5975 29.8863H69.2589C68.5065 29.8863 67.8889 30.4524 67.8889 31.1453V36.5057L64.3227 43.1251H53.4887V37.4492H63.7726C64.5284 37.4492 65.1458 36.8829 65.1458 36.19V23.3907C66.7217 22.9485 67.8889 21.8133 68.3682 20.4275H74.266C75.5008 23.2639 76.3242 26.4159 76.5975 29.8863Z" fill="#CAB5FF"/>
<path d="M4.11767 8.89006V19.7965C4.11767 20.1769 4.32348 20.5543 4.59683 20.8049L12.1411 26.3541C12.2087 26.4159 12.2762 26.4159 12.3469 26.4806V39.973C12.3469 40.2885 12.482 40.5391 12.6878 40.7927L16.46 44.8262V55.2934C14.4726 55.8595 13.0319 57.4989 13.0319 59.5185C13.0319 61.9776 15.1575 63.9295 17.8331 63.9295C20.5055 63.9295 22.6311 61.9776 22.6311 59.5185C22.6311 57.4989 21.1904 55.8595 19.203 55.2934V44.3869C19.203 44.0715 19.0648 43.8179 18.859 43.5672L15.09 39.5308V11.8533L21.9461 15.4475V18.0304C19.9588 18.5994 18.5181 20.2388 18.5181 22.2556C18.5181 24.7147 20.6437 26.6695 23.3161 26.6695C25.9915 26.6695 28.1172 24.7147 28.1172 22.2556C28.1172 20.2388 26.6765 18.5994 24.6891 18.0304V14.7546C24.6891 14.3123 24.4159 13.8701 24.0043 13.6813L14.4018 8.63647C13.9902 8.38585 13.4435 8.38585 13.0319 8.63647C12.6203 8.89006 12.3469 9.26746 12.3469 9.70973V23.2639L6.86077 19.1655V8.89006C8.84814 8.32098 10.2888 6.68459 10.2888 4.66486C10.2888 2.20582 8.16316 0.250977 5.4876 0.250977C2.81527 0.250977 0.689613 2.20582 0.689613 4.66486C0.689613 6.68459 2.12708 8.32098 4.11767 8.89006ZM19.888 59.5185C19.888 60.5889 18.9972 61.4086 17.8331 61.4086C16.6658 61.4086 15.775 60.5889 15.775 59.5185C15.775 58.4452 16.6658 57.6257 17.8331 57.6257C18.9972 57.6257 19.888 58.4452 19.888 59.5185ZM25.3741 22.3204C25.3741 23.3907 24.4834 24.2104 23.3161 24.2104C22.1519 24.2104 21.2612 23.3907 21.2612 22.3204C21.2612 21.2472 22.1519 20.4275 23.3161 20.4275C24.4834 20.4275 25.3741 21.2472 25.3741 22.3204ZM5.4876 2.77489C6.65495 2.77489 7.54572 3.59456 7.54572 4.66486C7.54572 5.73811 6.65495 6.55779 5.4876 6.55779C4.32348 6.55779 3.43271 5.73811 3.43271 4.66486C3.43271 3.59456 4.32348 2.77489 5.4876 2.77489Z" fill="#CAB5FF"/>
<path d="M34.9719 20.3001V38.7753L24.6879 48.2312V39.1527C26.6753 38.5837 28.116 36.9443 28.116 34.9277C28.116 32.4686 25.9903 30.5138 23.3147 30.5138C20.6424 30.5138 18.5167 32.4686 18.5167 34.9277C18.5167 36.9443 19.9574 38.5837 21.9447 39.1527V51.3212C21.9447 51.8254 22.2888 52.2677 22.768 52.4563C22.9738 52.5801 23.1089 52.5801 23.3147 52.5801C23.6588 52.5801 24.0029 52.4563 24.2762 52.2027L37.3034 40.2231C37.5801 39.9724 37.715 39.657 37.715 39.3414V19.7959C37.715 19.4804 37.5801 19.165 37.3034 18.9143L32.2288 14.2469V4.66429C32.2288 3.97139 31.6146 3.40527 30.8589 3.40527C30.1034 3.40527 29.4892 3.97139 29.4892 4.66429V14.754C29.4892 15.0666 29.6241 15.3821 29.8974 15.6356L34.9719 20.3001ZM23.3147 36.8204C22.1506 36.8204 21.2598 36.0007 21.2598 34.9277C21.2598 33.8573 22.1506 33.0376 23.3147 33.0376C24.482 33.0376 25.3729 33.8573 25.3729 34.9277C25.3729 36.0007 24.482 36.8204 23.3147 36.8204Z" fill="#CAB5FF"/>
<path d="M0 50.6902C0 53.1493 2.12565 55.1041 4.8012 55.1041C7.47676 55.1041 9.60243 53.1493 9.60243 50.6902C9.60243 48.6735 8.16174 47.0341 6.17437 46.4651V37.8909C8.16174 37.3248 9.60243 35.6854 9.60243 33.6656C9.60243 31.2097 7.47676 29.2549 4.8012 29.2549C2.12565 29.2549 0 31.2097 0 33.6656C0 35.6854 1.44068 37.3248 3.43127 37.8909V46.4651C1.44068 47.0341 0 48.6735 0 50.6902ZM2.74308 33.6656C2.74308 32.5955 3.63708 31.7758 4.8012 31.7758C5.96856 31.7758 6.85932 32.5955 6.85932 33.6656C6.85932 34.7389 5.96856 35.5586 4.8012 35.5586C3.63708 35.5586 2.74308 34.7389 2.74308 33.6656ZM4.8012 48.7974C5.96856 48.7974 6.85932 49.6171 6.85932 50.6902C6.85932 51.7605 5.96856 52.5802 4.8012 52.5802C3.63708 52.5802 2.74308 51.7605 2.74308 50.6902C2.74308 49.6171 3.63708 48.7974 4.8012 48.7974Z" fill="#CAB5FF"/>
</g>
<defs>
<clipPath id="clip0_588_3450">
<rect width="84" height="92.8421" fill="white"/>
</clipPath>
</defs>
</svg>
