<svg width="84" height="93" viewBox="0 0 84 93" fill="none" xmlns="http://www.w3.org/2000/svg">
<g clip-path="url(#clip0_588_3587)">
<path fill-rule="evenodd" clip-rule="evenodd" d="M43.9986 12.8021C44.3589 12.8021 44.7159 12.7696 45.0695 12.7047C45.4232 12.6399 45.7673 12.5455 46.1018 12.4187C46.4331 12.292 46.7515 12.1357 47.0505 11.9529C47.3495 11.7701 47.6292 11.5607 47.8834 11.3278C48.1374 11.0949 48.3659 10.8383 48.5684 10.5641C48.7678 10.2899 48.9382 10.001 49.0766 9.69434C49.2147 9.38769 49.3175 9.07516 49.3883 8.75082C49.4591 8.42648 49.4946 8.09921 49.4946 7.76603C49.4946 7.43581 49.4591 7.10851 49.3883 6.78418C49.3207 6.45984 49.2147 6.14435 49.0766 5.84066C48.9414 5.53401 48.7709 5.24508 48.5716 4.96792C48.3722 4.69369 48.1438 4.44013 47.8898 4.20424C47.6327 3.97133 47.3559 3.76197 47.0569 3.57917C46.7579 3.39341 46.4395 3.2401 46.1082 3.11332C45.7739 2.98652 45.4298 2.88923 45.0759 2.82436C44.7223 2.7595 44.3652 2.72705 44.0052 2.72705C43.645 2.72705 43.2879 2.75654 42.9343 2.82141C42.5804 2.88628 42.2363 2.98063 41.902 3.10741C41.5675 3.23421 41.2523 3.38752 40.9533 3.57033C40.6511 3.75313 40.3744 3.96249 40.1172 4.1954C39.8633 4.42833 39.6348 4.68485 39.4354 4.95907C39.2329 5.23328 39.0624 5.52223 38.9241 5.82888C38.786 6.13257 38.6797 6.44807 38.6089 6.77238C38.5381 7.09671 38.5029 7.42401 38.5029 7.75423C38.5029 8.08446 38.5381 8.41471 38.6089 8.73902C38.6797 9.06335 38.7825 9.37885 38.9209 9.68254C39.0593 9.98919 39.2265 10.2811 39.4291 10.5553C39.6284 10.8295 39.8566 11.086 40.1109 11.319C40.368 11.5548 40.6445 11.7642 40.9438 11.947C41.2428 12.1327 41.5611 12.289 41.8954 12.4158C42.2268 12.5426 42.5709 12.6369 42.9245 12.7018C43.2784 12.7696 43.6386 12.8021 43.9986 12.8021Z" fill="#F9ED32" fill-opacity="0.7765"/>
<path fill-rule="evenodd" clip-rule="evenodd" d="M70.6224 16.6855C72.1146 18.2747 73.3494 20.0143 74.3238 21.9102C75.3015 23.8061 75.9833 25.7845 76.3724 27.8515C77.485 33.822 75.7871 39.3505 76.9768 43.0656C77.2567 43.9 77.6297 44.6962 78.0992 45.4539C77.5396 45.7517 76.9673 46.02 76.3756 46.256C75.7871 46.4917 75.1824 46.6982 74.5651 46.8722C73.9477 47.0461 73.3237 47.1846 72.6901 47.2936C72.0568 47.3999 71.4167 47.4737 70.7736 47.515C70.1305 47.5563 69.4873 47.5621 68.8408 47.5355C68.1977 47.5089 67.5578 47.447 66.9211 47.3527C66.2843 47.2584 65.6571 47.1287 65.0366 46.9694C64.416 46.8072 63.805 46.6156 63.2101 46.3916C62.615 46.1644 62.0329 45.911 61.4704 45.6249C60.9042 45.3388 60.3607 45.0234 59.8335 44.6813C59.3091 44.3363 58.8076 43.9679 58.3283 43.5699C57.8493 43.1746 57.3989 42.7561 56.9713 42.3107C56.5469 41.8685 56.148 41.4025 55.7814 40.919C55.4148 40.4326 55.0773 39.9283 54.7717 39.4094C54.4663 38.8875 54.1962 38.351 53.9581 37.8025C53.7201 37.2542 53.5176 36.694 53.3503 36.122C53.183 35.5527 53.0513 34.9749 52.9548 34.3912C52.8583 33.8044 52.8005 33.2175 52.778 32.628C52.7586 32.0353 52.7716 31.4457 52.8262 30.8559C52.8776 30.2691 52.9643 29.6824 53.0897 29.1046C53.2153 28.5236 53.3792 27.9517 53.5753 27.3885C53.7715 26.8253 54.0032 26.2768 54.2701 25.7374C54.5336 25.1977 54.8329 24.6758 55.164 24.1687C55.4953 23.6616 55.8585 23.1751 56.2511 22.7063C56.6434 22.2345 57.0647 21.7893 57.5116 21.3647C57.9617 20.9401 58.4346 20.5391 58.933 20.1647C59.4313 19.7902 59.9525 19.4423 60.4927 19.1209C61.0362 18.8025 61.5958 18.5106 62.1744 18.2511C62.7534 17.9887 63.3451 17.7587 63.9529 17.5612C64.5607 17.3607 65.1781 17.1956 65.8051 17.0599C66.4354 16.9272 67.069 16.827 67.7089 16.7592C68.3488 16.6943 68.9919 16.6589 69.6384 16.6589C69.9536 16.6589 70.2911 16.6707 70.6224 16.6855Z" fill="#662D91" fill-opacity="0.7765"/>
<path fill-rule="evenodd" clip-rule="evenodd" d="M76.7003 30.478C77.0508 35.4226 75.9607 39.9015 76.9768 43.0798C78.7166 48.505 86.4186 53.4203 82.8201 56.2124C81.6784 57.047 79.7199 57.1029 78.5718 57.9226C76.7422 59.2317 77.9931 60.647 78.1538 61.67C78.2309 62.1538 77.7519 62.9319 76.1696 63.8784C77.366 64.6864 77.2567 65.3705 76.8289 66.0013C76.2468 66.3671 75.6487 66.7091 75.0313 67.0246C74.414 67.3429 73.7836 67.6319 73.1405 67.8973C72.494 68.1597 71.8381 68.3957 71.1722 68.608C70.5034 68.8172 69.8248 68.9972 69.1398 69.1504C68.4549 69.3068 67.7603 69.4306 67.0626 69.5279C66.3646 69.6222 65.6638 69.6901 64.9594 69.7282C64.2519 69.7666 63.5476 69.7754 62.8433 69.7549C62.136 69.7343 61.4317 69.684 60.7305 69.6046C60.0296 69.5279 59.3349 69.4187 58.6435 69.2831C57.9553 69.1475 57.2735 68.9823 56.5984 68.7908C55.9229 68.596 55.2605 68.3749 54.6076 68.1272C53.9549 67.8797 53.3182 67.6053 52.691 67.3046C52.0673 67.004 51.4562 66.6796 50.8646 66.3287C50.2695 65.9779 49.6971 65.6004 49.1407 65.2024C48.5846 64.8044 48.0475 64.3827 47.533 63.9405C47.0184 63.4951 46.5264 63.0323 46.0602 62.5488C45.5904 62.0651 45.1467 61.561 44.7255 61.0421C44.3074 60.5202 43.9151 59.9835 43.5485 59.4293C43.1819 58.8779 42.8442 58.3089 42.5324 57.7279C42.2236 57.1471 41.9405 56.5544 41.6897 55.95C41.4358 55.3426 41.2171 54.7293 41.0241 54.1073C40.8311 53.485 40.6736 52.8542 40.5416 52.2172C40.4131 51.5803 40.3166 50.9406 40.249 50.2978C40.1848 49.6521 40.1493 49.0063 40.1461 48.3577C40.1461 47.7119 40.175 47.0662 40.2362 46.4205C40.2972 45.7747 40.3905 45.1351 40.5159 44.4981C40.6381 43.8612 40.7958 43.2303 40.9822 42.6051C41.1688 41.9802 41.3843 41.3669 41.6319 40.7595C41.8795 40.1551 42.156 39.5594 42.4648 38.9755C42.7702 38.3918 43.1047 37.8228 43.465 37.2684C43.8282 36.7111 44.2173 36.1717 44.6322 35.6498C45.047 35.1247 45.4876 34.6207 45.9539 34.1343C46.4202 33.6476 46.909 33.179 47.4203 32.7336C47.9317 32.2855 48.4624 31.8638 49.0153 31.4599C49.5686 31.059 50.1409 30.6786 50.7326 30.3248C51.3211 29.9679 51.9289 29.6407 52.5526 29.3341C53.1766 29.0304 53.8134 28.7531 54.4629 28.4997C55.1126 28.2491 55.775 28.025 56.447 27.8274C57.1193 27.6297 57.8011 27.4618 58.4924 27.3201C59.1806 27.1787 59.8751 27.0695 60.5762 26.9842C61.2774 26.9016 61.9783 26.8484 62.6858 26.8249C63.3901 26.7983 64.0942 26.8041 64.8017 26.8366C65.506 26.8721 66.2072 26.9339 66.9081 27.0252C67.606 27.1169 68.3006 27.2376 68.9855 27.3881C69.6737 27.5354 70.3523 27.7152 71.0211 27.9187C71.69 28.1252 72.3492 28.358 72.9958 28.6175C73.642 28.8799 74.2756 29.166 74.893 29.4785C75.5104 29.791 76.115 30.1271 76.7003 30.4897V30.478Z" fill="#92278F" fill-opacity="0.7765"/>
<path fill-rule="evenodd" clip-rule="evenodd" d="M71.6838 77.9372C62.7823 81.2602 50.8646 70.1177 49.2632 92.8418C43.4745 89.3568 37.342 86.4968 30.8623 84.2588C30.5953 83.8991 30.3411 83.5334 30.1002 83.1588C29.8589 82.7845 29.6304 82.4012 29.4152 82.0149C29.1965 81.6287 28.9937 81.2336 28.8073 80.8356C28.6175 80.4376 28.4407 80.0305 28.2798 79.6237C28.1192 79.2138 27.9713 78.8011 27.8393 78.3824C27.7043 77.9638 27.5853 77.5451 27.4824 77.1204C27.3762 76.6958 27.2863 76.2682 27.2123 75.8378C27.1352 75.4104 27.0771 74.977 27.0289 74.5436C26.9838 74.1131 26.9518 73.6767 26.9356 73.2433C26.9197 72.8067 26.9197 72.3733 26.9324 71.9369C26.9454 71.5035 26.9743 71.0701 27.0162 70.6366C27.0578 70.2032 27.1158 69.7698 27.1898 69.3422C27.2606 68.9117 27.3473 68.4844 27.4501 68.0598C27.55 67.6322 27.6688 67.2105 27.7976 66.7949C27.9294 66.3762 28.0741 65.9603 28.2316 65.5506C28.3893 65.1406 28.5629 64.7368 28.7493 64.3358C28.9359 63.9349 29.1353 63.5396 29.3476 63.1536C29.5599 62.7644 29.7882 62.381 30.0262 62.0065C30.264 61.629 30.5182 61.2606 30.7817 60.9009C31.0455 60.5381 31.322 60.1843 31.6114 59.8393C31.8977 59.4944 32.1999 59.1552 32.5119 58.8281C32.8207 58.5007 33.1455 58.1824 33.4766 57.8699C33.8111 57.5601 34.1552 57.2622 34.5091 56.9705C34.8627 56.6815 35.2261 56.4015 35.5991 56.133C35.9689 55.8618 36.3517 55.6053 36.744 55.3578C37.1331 55.11 37.5318 54.874 37.9369 54.65C38.3454 54.423 38.7571 54.2107 39.1783 54.0101C39.5995 53.8097 40.0273 53.6209 40.4613 53.444C40.8955 53.2671 41.3361 53.1049 41.7798 52.9517C42.2236 52.8012 42.674 52.6626 43.1304 52.5388C43.584 52.412 44.0439 52.3001 44.5036 52.2028C44.9667 52.1024 45.433 52.0169 45.8993 51.9434C46.369 51.8725 46.8384 51.8136 47.3111 51.7665C47.7806 51.7223 48.2566 51.6898 48.7293 51.6719C49.2051 51.6514 49.678 51.6485 50.1539 51.6573C50.6265 51.6661 51.1026 51.6868 51.5753 51.7252C52.0479 51.7604 52.5174 51.8107 52.9871 51.8725C53.4566 51.9343 53.926 52.011 54.3891 52.1024C54.8554 52.1909 55.3153 52.2942 55.7718 52.409C56.2286 52.527 56.6819 52.6568 57.1322 52.7982C57.5792 52.9399 58.0229 53.0931 58.4603 53.2612C58.9009 53.4293 59.3319 53.6091 59.7563 53.8009C60.1839 53.9954 60.602 54.1989 61.0136 54.4142C61.4253 54.6324 61.8306 54.8593 62.2261 55.0983C62.6216 55.337 63.0108 55.5877 63.3901 55.8501C63.7697 56.1125 64.1395 56.3837 64.4995 56.6668C64.8597 56.9498 65.2102 57.2446 65.5511 57.5454C65.892 57.8491 66.2202 58.1616 66.5417 58.4831C66.8601 58.8044 67.1686 59.1377 67.4645 59.4768C67.7603 59.8156 68.0466 60.1636 68.3199 60.5205C68.5932 60.8743 68.8538 61.2398 69.1014 61.6085C69.349 61.9798 69.5838 62.3573 69.8057 62.7436C70.0308 63.1269 70.2399 63.5161 70.4329 63.9141C70.6291 64.3092 70.8122 64.7101 70.9795 65.1172C71.15 65.524 71.3042 65.9369 71.4426 66.3525C71.5842 66.7683 71.7095 67.1871 71.822 67.6085C71.9346 68.0331 72.0311 68.4578 72.1146 68.8853C72.1949 69.3158 72.2657 69.7463 72.3171 70.1768C72.372 70.6102 72.4104 71.0437 72.433 71.4771C72.4587 71.9135 72.465 72.3469 72.4619 72.7832C72.4555 73.2167 72.433 73.6501 72.3977 74.0864C72.3622 74.5199 72.3139 74.9504 72.2466 75.3838C72.1822 75.8143 72.1019 76.2419 72.0086 76.6694C71.9153 77.0938 71.806 77.5184 71.6838 77.9372Z" fill="#007FC6" fill-opacity="0.7765"/>
<path fill-rule="evenodd" clip-rule="evenodd" d="M58.6146 78.055C53.9131 78.2349 50.1184 80.7177 49.2629 92.8419C43.5066 89.3774 37.4094 86.5291 30.9713 84.294C30.9906 83.5569 31.0776 82.8257 31.2255 82.1035C31.3766 81.3781 31.5889 80.6705 31.8622 79.9776C32.1387 79.2847 32.4764 78.6182 32.8687 77.9754C33.2642 77.3358 33.7144 76.7252 34.2162 76.1503C34.7211 75.5754 35.2709 75.0448 35.869 74.5522C36.4704 74.0599 37.1072 73.6148 37.7858 73.2197C38.4642 72.8214 39.1717 72.4794 39.9113 72.1877C40.6511 71.8986 41.4098 71.6658 42.1913 71.4889C42.9727 71.3118 43.764 71.1969 44.5646 71.1378C45.3654 71.0819 46.1694 71.0819 46.97 71.1469C47.7708 71.2087 48.5618 71.3296 49.3401 71.5094C50.1184 71.6922 50.8773 71.9282 51.6137 72.2231C52.3533 72.5177 53.0576 72.8657 53.7328 73.2668C54.4082 73.6678 55.0418 74.1159 55.6367 74.6113C56.2347 75.1066 56.7816 75.6433 57.2799 76.2212C57.7783 76.799 58.2255 77.4093 58.6146 78.055Z" fill="#01A6E6" fill-opacity="0.7765"/>
<path fill-rule="evenodd" clip-rule="evenodd" d="M80.122 57.23C79.5625 57.3773 79.0479 57.6043 78.5721 57.9109C76.7422 59.22 77.9931 60.6353 78.1538 61.6556C78.2312 62.142 77.7519 62.9204 76.1699 63.8669C77.9995 65.1022 76.7679 66.0517 76.0315 66.9627C72.6098 69.2242 77.3726 74.1248 71.7255 77.9252C66.0238 80.0777 59.0939 76.2799 54.4117 79.1962C54.3377 78.804 54.2765 78.4087 54.2283 78.0136C54.1832 77.6186 54.1479 77.2235 54.1286 76.8255C54.106 76.4275 54.0997 76.0295 54.1061 75.6313C54.1124 75.2333 54.1318 74.8382 54.1638 74.4402C54.1962 74.0422 54.2444 73.6471 54.3022 73.255C54.3634 72.8597 54.4374 72.4675 54.5209 72.0783C54.6078 71.6891 54.7075 71.2999 54.8199 70.9168C54.9326 70.5335 55.058 70.1531 55.1963 69.7756C55.3345 69.3981 55.4856 69.0238 55.6496 68.6552C55.8137 68.2867 55.9905 67.9239 56.1772 67.5643C56.3667 67.2076 56.5663 66.8538 56.7784 66.5059C56.9907 66.1609 57.2126 65.8188 57.4472 65.4826C57.6821 65.1494 57.9296 64.8222 58.187 64.5007C58.4442 64.1824 58.7111 63.8669 58.9908 63.5633C59.2675 63.2566 59.557 62.9617 59.856 62.6727C60.155 62.3839 60.4638 62.1037 60.7788 61.8325C61.0972 61.5613 61.4221 61.2986 61.7596 61.0453C62.0941 60.7917 62.4382 60.5498 62.7887 60.317C63.1394 60.0839 63.4994 59.8598 63.866 59.6475C64.2326 59.4352 64.6058 59.2319 64.9883 59.0401C65.3679 58.8486 65.7536 58.6688 66.146 58.4977C66.5383 58.3296 66.9372 58.1704 67.3423 58.023C67.7444 57.8755 68.1527 57.7428 68.5643 57.6192C68.9792 57.4953 69.3941 57.3831 69.8153 57.283C70.2333 57.1826 70.658 57.0941 71.0824 57.0176C71.51 56.9409 71.9378 56.8789 72.3686 56.8258C72.7996 56.7758 73.2306 56.7345 73.6646 56.7081C74.0956 56.6815 74.5298 56.6668 74.9638 56.6636C75.398 56.6607 75.8322 56.6697 76.2661 56.6932C76.6972 56.714 77.1314 56.7491 77.5621 56.7965C77.9932 56.8437 78.4207 56.9026 78.8486 56.9734C79.2762 57.044 79.7008 57.1266 80.122 57.2238V57.23Z" fill="#2063B2" fill-opacity="0.7765"/>
<path fill-rule="evenodd" clip-rule="evenodd" d="M13.9245 57.472C14.4583 57.472 14.9889 57.4248 15.5131 57.3273C16.0373 57.233 16.5454 57.0916 17.0406 56.9059C17.5359 56.717 18.0054 56.4871 18.4491 56.2159C18.8929 55.9415 19.3046 55.6349 19.684 55.287C20.0603 54.942 20.3979 54.5648 20.6938 54.1578C20.9929 53.748 21.2437 53.3205 21.4495 52.8663C21.6521 52.4123 21.8065 51.9464 21.9126 51.4658C22.0155 50.9852 22.0669 50.5017 22.0669 50.0092C22.0669 49.5198 22.0155 49.0363 21.9126 48.5557C21.8065 48.0751 21.6521 47.6092 21.4495 47.155C21.2437 46.704 20.9929 46.2735 20.697 45.8667C20.4012 45.4567 20.0635 45.0824 19.684 44.7345C19.3078 44.3895 18.8962 44.0797 18.4524 43.8056C18.0054 43.5344 17.5359 43.3045 17.0438 43.1186C16.5486 42.93 16.0405 42.7885 15.5163 42.694C14.9922 42.5967 14.4615 42.5496 13.9277 42.5496C13.3939 42.5496 12.8633 42.5967 12.3391 42.694C11.8149 42.7885 11.3068 42.93 10.8116 43.1186C10.3196 43.3045 9.85006 43.5344 9.40308 43.8085C8.9593 44.0797 8.54767 44.3895 8.17141 44.7375C7.79194 45.0824 7.45428 45.4597 7.15844 45.8667C6.86258 46.2735 6.61175 46.704 6.40594 47.1582C6.20334 47.6092 6.04898 48.0781 5.94286 48.5586C5.83996 49.0392 5.78851 49.5227 5.78851 50.0153C5.78851 50.5047 5.84317 50.9882 5.94607 51.4688C6.05219 51.9464 6.20655 52.4123 6.41236 52.8663C6.61817 53.3175 6.869 53.748 7.16486 54.1548C7.46072 54.5587 7.79838 54.9362 8.17785 55.2811C8.55409 55.6291 8.96571 55.9386 9.40949 56.2101C9.85327 56.4813 10.3196 56.7112 10.8148 56.8998C11.3068 57.0886 11.8149 57.2301 12.3391 57.3244C12.8633 57.4219 13.3907 57.472 13.9245 57.472Z" fill="#12BCBC" fill-opacity="0.7765"/>
<path fill-rule="evenodd" clip-rule="evenodd" d="M30.9715 67.8563C31.4603 67.8592 31.9428 67.815 32.4218 67.7295C32.9011 67.6439 33.3673 67.5171 33.8175 67.3461C34.2676 67.1753 34.6954 66.966 35.1039 66.7182C35.509 66.4734 35.8851 66.1905 36.2327 65.8751C36.5767 65.5594 36.8853 65.2173 37.1586 64.846C37.4287 64.4744 37.6604 64.0822 37.8468 63.6696C38.0334 63.2567 38.1749 62.832 38.2714 62.3927C38.3679 61.9535 38.4162 61.5112 38.4193 61.0661C38.4193 60.6177 38.3711 60.1755 38.2778 59.7362C38.1845 59.2969 38.0429 58.8723 37.8566 58.4594C37.6731 58.0438 37.4449 57.6517 37.1716 57.2801C36.9015 56.9087 36.5958 56.5637 36.2518 56.2481C35.9077 55.9297 35.5315 55.6465 35.1262 55.399C34.7211 55.1484 34.2933 54.939 33.8432 54.768C33.3931 54.5969 32.9268 54.4672 32.4507 54.3788C31.9717 54.2903 31.4892 54.2461 31.0004 54.2461C30.5116 54.2461 30.0291 54.2903 29.5501 54.3758C29.074 54.4643 28.6078 54.5911 28.1576 54.7621C27.7075 54.9331 27.2797 55.1425 26.8714 55.39C26.4661 55.6407 26.0931 55.9209 25.7459 56.2363C25.4018 56.5547 25.093 56.8967 24.8229 57.2683C24.5527 57.6397 24.3212 58.0319 24.1347 58.4448C23.9482 58.8606 23.8067 59.285 23.7134 59.7245C23.6169 60.1609 23.5687 60.606 23.5687 61.0512C23.5719 61.4963 23.6201 61.9388 23.7134 62.3752C23.8099 62.8144 23.9514 63.2391 24.1379 63.6488C24.3212 64.0617 24.5496 64.4538 24.8197 64.8223C25.0898 65.1939 25.3984 65.5389 25.7393 65.8543C26.0833 66.1697 26.4566 66.4499 26.8616 66.7006C27.2638 66.9481 27.6913 67.1575 28.1415 67.3285C28.5887 67.5025 29.0518 67.6322 29.5276 67.7207C30.0034 67.8091 30.4859 67.8563 30.9715 67.8563Z" fill="#00B9F1" fill-opacity="0.7765"/>
<path fill-rule="evenodd" clip-rule="evenodd" d="M12.7539 39.3146C13.1302 39.3146 13.5 39.2824 13.8666 39.2144C14.2332 39.1465 14.5902 39.0493 14.9375 38.9166C15.2816 38.7869 15.6128 38.6247 15.9215 38.4331C16.2335 38.2445 16.5229 38.0261 16.7866 37.7844C17.0535 37.5396 17.2883 37.2772 17.4973 36.9914C17.7063 36.7053 17.88 36.4045 18.0247 36.0862C18.1662 35.7705 18.2755 35.4433 18.3495 35.1072C18.4202 34.771 18.4588 34.4289 18.4588 34.0871C18.4588 33.7421 18.4202 33.403 18.3495 33.0668C18.2755 32.7277 18.1662 32.4035 18.0247 32.0849C17.88 31.7666 17.7031 31.4658 17.4973 31.1797C17.2883 30.8968 17.0503 30.6314 16.7866 30.3896C16.5197 30.145 16.2335 29.9297 15.9215 29.738C15.6096 29.5464 15.2816 29.3871 14.9343 29.2544C14.5902 29.1247 14.2332 29.0245 13.8634 28.9566C13.4968 28.8919 13.127 28.8594 12.7507 28.8594C12.3777 28.8594 12.0047 28.8919 11.6381 28.9595C11.2715 29.0275 10.9145 29.1247 10.5704 29.2574C10.2231 29.3871 9.8951 29.5493 9.58315 29.7409C9.27122 29.9327 8.98501 30.1479 8.7181 30.3925C8.45442 30.6344 8.21645 30.8997 8.01064 31.1826C7.80159 31.4687 7.62794 31.7724 7.48323 32.0878C7.33852 32.4064 7.2324 32.7336 7.15844 33.0698C7.08769 33.4059 7.0491 33.7451 7.0491 34.0901C7.0523 34.4321 7.08769 34.771 7.16165 35.1072C7.23561 35.4463 7.34496 35.7705 7.48646 36.0891C7.63117 36.4045 7.80803 36.7053 8.01385 36.9914C8.22287 37.2772 8.46083 37.5396 8.72454 37.7815C8.98825 38.0261 9.27767 38.2413 9.58959 38.4331C9.89831 38.6217 10.2263 38.784 10.5736 38.9137C10.9177 39.0464 11.2747 39.1465 11.6413 39.2144C12.0079 39.2792 12.3809 39.3146 12.7539 39.3146Z" fill="#8DC63F" fill-opacity="0.7765"/>
<path d="M9.90794 21.0962C9.90794 21.394 9.87899 21.6889 9.81468 21.9808C9.75037 22.2727 9.65711 22.5557 9.5317 22.8299C9.40949 23.1041 9.25834 23.3636 9.07825 23.6113C8.89817 23.859 8.69236 24.0889 8.46404 24.2983C8.23249 24.5076 7.98487 24.6962 7.71475 24.8614C7.44463 25.0265 7.15842 25.1651 6.85935 25.2801C6.56028 25.3923 6.25156 25.4776 5.93319 25.5367C5.61482 25.5956 5.29325 25.6251 4.97167 25.6251C4.64686 25.6251 4.32529 25.5956 4.00692 25.5367C3.68855 25.4776 3.37984 25.3923 3.08077 25.2801C2.7817 25.1651 2.49549 25.0265 2.22537 24.8614C1.95524 24.6962 1.70762 24.5076 1.4793 24.2983C1.24776 24.0889 1.04516 23.859 0.865077 23.6113C0.684991 23.3636 0.530632 23.1041 0.40843 22.8299C0.283015 22.5557 0.189756 22.2727 0.125439 21.9808C0.0643393 21.6889 0.0321808 21.394 0.0321808 21.0962C0.0321808 20.7984 0.0643393 20.5036 0.125439 20.2146C0.189756 19.9227 0.283015 19.6397 0.40843 19.3655C0.530632 19.0883 0.684991 18.8288 0.865077 18.5812C1.04516 18.3335 1.24776 18.1065 1.4793 17.8942C1.70762 17.6848 1.95524 17.4991 2.22537 17.334C2.49549 17.1689 2.7817 17.0273 3.08077 16.9153C3.37984 16.8003 3.68855 16.7148 4.00692 16.6558C4.32529 16.5998 4.64686 16.5703 4.97167 16.5703C5.29325 16.5703 5.61482 16.5998 5.93319 16.6558C6.25156 16.7148 6.56028 16.8003 6.85935 16.9153C7.15842 17.0273 7.44463 17.1689 7.71475 17.334C7.98487 17.4991 8.23249 17.6848 8.46404 17.8942C8.69236 18.1065 8.89817 18.3335 9.07825 18.5812C9.25834 18.8288 9.40949 19.0883 9.5317 19.3655C9.65711 19.6397 9.75037 19.9227 9.81468 20.2146C9.87899 20.5036 9.90794 20.7984 9.90794 21.0962Z" fill="#FFD900" fill-opacity="0.7765"/>
<path fill-rule="evenodd" clip-rule="evenodd" d="M15.4037 12.802C15.7092 12.802 16.0083 12.7754 16.3042 12.7224C16.6032 12.6663 16.8894 12.5867 17.1692 12.4806C17.449 12.3744 17.7159 12.2447 17.9667 12.0914C18.2208 11.9381 18.4523 11.7611 18.6678 11.5665C18.88 11.369 19.073 11.1567 19.2402 10.9267C19.4106 10.6938 19.5521 10.452 19.6679 10.1955C19.7837 9.93897 19.8705 9.67362 19.9316 9.40235C19.9895 9.13108 20.0184 8.85392 20.0184 8.57676C20.0184 8.2996 19.9895 8.0254 19.9316 7.7512C19.8737 7.47993 19.7837 7.21457 19.6679 6.95806C19.5521 6.70152 19.4106 6.45974 19.2434 6.22976C19.0762 5.99685 18.8832 5.78456 18.671 5.587C18.4555 5.3924 18.224 5.21548 17.9732 5.06217C17.7191 4.90884 17.4554 4.77617 17.1756 4.67001C16.8959 4.56388 16.6064 4.48426 16.3106 4.43119C16.0115 4.37517 15.7124 4.34863 15.4102 4.34863C15.1079 4.34863 14.8056 4.37517 14.5097 4.42823C14.2139 4.48426 13.9245 4.56388 13.6447 4.67001C13.3649 4.77617 13.098 4.90591 12.8471 5.05922C12.5963 5.21548 12.3616 5.38944 12.1493 5.587C11.9339 5.7816 11.7441 5.99685 11.5737 6.22683C11.4065 6.45681 11.265 6.70152 11.1492 6.95806C11.0334 7.21457 10.9466 7.47697 10.8855 7.7512C10.8276 8.02244 10.7987 8.29667 10.7987 8.57383C10.7987 8.85099 10.8276 9.12814 10.8887 9.39939C10.9466 9.67066 11.0334 9.93602 11.1492 10.1896C11.265 10.4461 11.4065 10.6908 11.5769 10.9208C11.7441 11.1508 11.9339 11.3661 12.1493 11.5606C12.3616 11.7582 12.5963 11.9321 12.8471 12.0855C13.098 12.2418 13.3649 12.3715 13.6415 12.4776C13.9212 12.5838 14.2106 12.6634 14.5065 12.7194C14.8024 12.7725 15.1014 12.802 15.4037 12.802Z" fill="#009444" fill-opacity="0.7765"/>
<path fill-rule="evenodd" clip-rule="evenodd" d="M16.9699 23.3369C17.375 23.3369 17.7642 23.2661 18.1372 23.1246C18.5102 22.9801 18.8382 22.7796 19.1245 22.5172C19.4107 22.2577 19.6293 21.954 19.7837 21.612C19.9381 21.27 20.0152 20.9132 20.0152 20.5447C20.0152 20.1732 19.9381 19.8164 19.7837 19.4744C19.6293 19.1323 19.4107 18.8316 19.1245 18.5692C18.8382 18.3068 18.5102 18.1063 18.1372 17.9647C17.7642 17.8232 17.375 17.7524 16.9699 17.7524C16.5679 17.7524 16.1788 17.8232 15.8057 17.9647C15.4327 18.1063 15.1015 18.3068 14.8153 18.5692C14.5323 18.8316 14.3104 19.1323 14.156 19.4744C14.0017 19.8164 13.9245 20.1732 13.9245 20.5447C13.9245 20.9132 14.0049 21.27 14.1592 21.612C14.3136 21.954 14.5323 22.2548 14.8185 22.5172C15.1047 22.7767 15.4327 22.9801 15.8057 23.1216C16.1788 23.2632 16.5679 23.3339 16.9699 23.3369Z" fill="#56BA48" fill-opacity="0.7765"/>
<path fill-rule="evenodd" clip-rule="evenodd" d="M23.3242 5.58418C23.7262 5.58418 24.1153 5.51343 24.4883 5.37189C24.8613 5.23038 25.1895 5.02694 25.4755 4.76451C25.7618 4.50504 25.9837 4.20135 26.138 3.85932C26.2925 3.5173 26.3696 3.16054 26.3696 2.79198C26.3696 2.42046 26.2925 2.0637 26.138 1.72167C25.9837 1.37965 25.7618 1.0789 25.4755 0.816488C25.1895 0.554072 24.8613 0.353575 24.4883 0.212047C24.1153 0.0705196 23.7262 -0.000244141 23.3242 -0.000244141C22.919 -0.000244141 22.5299 0.0705196 22.1569 0.212047C21.7838 0.353575 21.4558 0.554072 21.1696 0.816488C20.8834 1.0789 20.6647 1.37965 20.5104 1.72167C20.3528 2.0637 20.2756 2.42046 20.2756 2.79198C20.2788 3.16054 20.356 3.5173 20.5104 3.85932C20.6647 4.20135 20.8866 4.50211 21.1696 4.76451C21.4558 5.02398 21.787 5.22743 22.1569 5.36896C22.5299 5.51047 22.919 5.58125 23.3242 5.58418Z" fill="#FBAD17" fill-opacity="0.7765"/>
<path fill-rule="evenodd" clip-rule="evenodd" d="M4.61456 11.8052C4.92007 11.8052 5.2127 11.7492 5.49571 11.6431C5.77548 11.534 6.0263 11.3807 6.23856 11.1831C6.45402 10.9826 6.62123 10.7556 6.737 10.4961C6.85276 10.2367 6.91065 9.96539 6.91065 9.6853C6.90745 9.40814 6.84955 9.13687 6.73058 8.88036C6.61479 8.62089 6.44758 8.39386 6.22891 8.19631C6.01345 7.99875 5.76262 7.84544 5.48283 7.7393C5.19985 7.63314 4.90398 7.58008 4.59847 7.58008C4.2962 7.58008 4.00034 7.63314 3.71736 7.74223C3.43758 7.84839 3.18674 8.0017 2.97127 8.19926C2.75581 8.3968 2.5886 8.62678 2.47283 8.88624C2.35706 9.14278 2.29918 9.41403 2.29918 9.69414C2.29918 9.97426 2.35706 10.2425 2.47604 10.502C2.59504 10.7615 2.76225 10.9915 2.97772 11.189C3.19638 11.3866 3.44723 11.5399 3.73021 11.646C4.01322 11.7522 4.30905 11.8082 4.61456 11.8052Z" fill="#F15C22" fill-opacity="0.7765"/>
<path d="M59.4186 33.3649C59.4186 33.9456 59.3865 34.5205 59.3253 35.0956C59.2643 35.6735 59.171 36.2425 59.0488 36.8115C58.9234 37.3776 58.7723 37.9378 58.5889 38.4922C58.4057 39.0466 58.1934 39.589 57.9522 40.1228C57.7109 40.6593 57.4408 41.1812 57.1418 41.6913C56.846 42.2015 56.5212 42.6967 56.1705 43.1773C55.8201 43.6579 55.4439 44.1209 55.045 44.569C54.6431 45.0173 54.2219 45.4448 53.7749 45.8516C53.3277 46.2616 52.8615 46.6508 52.3761 47.0163C51.8873 47.3848 51.3791 47.7268 50.8548 48.0483C50.3307 48.3696 49.7904 48.6674 49.234 48.9386C48.6779 49.213 48.1085 49.4605 47.5266 49.6816C46.9413 49.903 46.3496 50.0975 45.745 50.2655C45.1403 50.4336 44.5293 50.5722 43.9119 50.6843C43.2913 50.7991 42.6673 50.8847 42.0404 50.9409C41.4132 50.9968 40.7829 51.0264 40.1527 51.0264C39.5224 51.0264 38.892 50.9968 38.2651 50.9409C37.6347 50.8847 37.0141 50.7991 36.3933 50.6843C35.7759 50.5722 35.1649 50.4336 34.5602 50.2655C33.9558 50.0975 33.3642 49.903 32.7789 49.6816C32.1967 49.4605 31.6276 49.213 31.0712 48.9386C30.5148 48.6674 29.9745 48.3696 29.4504 48.0483C28.9229 47.7268 28.4182 47.3848 27.9294 47.0163C27.4438 46.6508 26.9743 46.2616 26.5305 45.8516C26.0836 45.4448 25.6589 45.0173 25.2602 44.569C24.8584 44.1209 24.4852 43.6579 24.1347 43.1773C23.7842 42.6967 23.4594 42.2015 23.1603 41.6913C22.8645 41.1812 22.5943 40.6593 22.3531 40.1228C22.112 39.589 21.8997 39.0466 21.7164 38.4922C21.5331 37.9378 21.3788 37.3776 21.2566 36.8115C21.1344 36.2425 21.0411 35.6735 20.98 35.0956C20.9189 34.5205 20.8867 33.9456 20.8867 33.3649C20.8867 32.7868 20.9189 32.2119 20.98 31.6341C21.0411 31.0592 21.1344 30.487 21.2566 29.9209C21.3788 29.3548 21.5331 28.7917 21.7164 28.2402C21.8997 27.6861 22.112 27.1435 22.3531 26.6069C22.5943 26.0731 22.8645 25.5512 23.1603 25.0413C23.4594 24.5312 23.7842 24.0358 24.1347 23.5552C24.4852 23.0746 24.8584 22.6087 25.2602 22.1635C25.6589 21.7153 26.0836 21.2878 26.5305 20.8779C26.9743 20.4711 27.4438 20.0818 27.9294 19.7162C28.4182 19.3477 28.9229 19.0027 29.4504 18.6843C29.9745 18.3629 30.5148 18.0651 31.0712 17.7909C31.6276 17.5196 32.1967 17.272 32.7789 17.0508C33.3642 16.8297 33.9558 16.6351 34.5602 16.467C35.1649 16.2989 35.7759 16.1604 36.3933 16.0454C37.0141 15.9333 37.6347 15.8478 38.2651 15.7918C38.892 15.7358 39.5224 15.7063 40.1527 15.7063C40.7829 15.7063 41.4132 15.7358 42.0404 15.7918C42.6673 15.8478 43.2913 15.9333 43.9119 16.0454C44.5293 16.1604 45.1403 16.2989 45.745 16.467C46.3496 16.6351 46.9413 16.8297 47.5266 17.0508C48.1085 17.272 48.6779 17.5196 49.234 17.7909C49.7904 18.0651 50.3307 18.3629 50.8548 18.6843C51.3791 19.0027 51.8873 19.3477 52.3761 19.7162C52.8615 20.0818 53.3277 20.4711 53.7749 20.8779C54.2219 21.2878 54.6431 21.7153 55.045 22.1635C55.4439 22.6087 55.8201 23.0746 56.1705 23.5552C56.5212 24.0358 56.846 24.5312 57.1418 25.0413C57.4408 25.5512 57.7109 26.0731 57.9522 26.6069C58.1934 27.1435 58.4057 27.6861 58.5889 28.2402C58.7723 28.7917 58.9234 29.3548 59.0488 29.9209C59.171 30.487 59.2643 31.0592 59.3253 31.6341C59.3865 32.2119 59.4186 32.7868 59.4186 33.3649Z" fill="#FBAD17" fill-opacity="0.7765"/>
<path fill-rule="evenodd" clip-rule="evenodd" d="M50.7938 6.63696C60.0262 8.38247 67.7635 12.6224 72.3235 18.7199C72.2464 19.2359 72.1337 19.746 71.9858 20.2501C71.8379 20.7543 71.6579 21.2467 71.4424 21.7303C71.2269 22.2138 70.9825 22.6826 70.7028 23.1397C70.4263 23.5937 70.1175 24.033 69.7832 24.4546C69.4455 24.8734 69.082 25.2743 68.6897 25.6518C68.2974 26.0322 67.8825 26.3889 67.4451 26.7192C67.0046 27.0522 66.5447 27.3559 66.0625 27.6362C65.5832 27.9162 65.0848 28.1668 64.5703 28.3909C64.0558 28.6149 63.5282 28.8067 62.988 28.9687C62.4478 29.1339 61.898 29.2636 61.3384 29.3669C60.7788 29.4671 60.216 29.535 59.65 29.5702C59.0809 29.6086 58.5118 29.6115 57.9424 29.5851C57.3764 29.5556 56.8105 29.4967 56.2509 29.4021C55.6913 29.3107 55.1383 29.1871 54.5949 29.0337C54.0514 28.8773 53.5207 28.6916 53.003 28.4764C52.4819 28.2611 51.9803 28.0166 51.4947 27.7451C51.0091 27.471 50.546 27.1732 50.099 26.849C49.6553 26.5216 49.234 26.1737 48.8353 25.7991C48.4364 25.4277 48.0666 25.0327 47.7225 24.6168C47.3785 24.2011 47.0633 23.7677 46.7772 23.3166C46.4909 22.8654 46.237 22.3996 46.0151 21.919C45.7898 21.4384 45.6002 20.9489 45.4457 20.4447C45.2882 19.9435 45.166 19.4363 45.0791 18.9204C44.9924 18.4044 44.941 17.8854 44.9216 17.3636C44.9055 16.8417 44.9216 16.3227 44.9762 15.8038C45.0277 15.2819 45.1178 14.7689 45.24 14.2588C45.3622 13.7487 45.5197 13.2475 45.7095 12.758C45.8993 12.2656 46.1243 11.785 46.3783 11.3192C46.6325 10.8533 46.9185 10.4022 47.2369 9.96875C47.5521 9.53532 47.8962 9.11959 48.2694 8.72745C48.6424 8.33233 49.0379 7.95789 49.4623 7.60997C49.8835 7.2591 50.3275 6.93477 50.7938 6.63696Z" fill="#EC008B" fill-opacity="0.7765"/>
<path fill-rule="evenodd" clip-rule="evenodd" d="M33.6664 25.6279C34.4253 25.6279 35.1744 25.5602 35.9175 25.4247C36.6602 25.2891 37.3839 25.0885 38.0816 24.8231C38.7828 24.5578 39.4484 24.2305 40.0788 23.8442C40.7089 23.458 41.291 23.0216 41.8281 22.5292C42.362 22.0397 42.841 21.5031 43.2622 20.9282C43.6837 20.3502 44.0405 19.7399 44.33 19.0971C44.6194 18.4573 44.8381 17.7969 44.986 17.1157C45.134 16.4317 45.2079 15.7447 45.2079 15.0518C45.2079 14.356 45.134 13.669 44.986 12.9879C44.8381 12.3068 44.6194 11.6463 44.33 11.0035C44.0405 10.3608 43.6837 9.75337 43.2622 9.17547C42.841 8.59758 42.3651 8.06388 41.8281 7.5715C41.2942 7.08206 40.7089 6.64272 40.0788 6.25647C39.4516 5.87022 38.786 5.54588 38.0848 5.28053C37.3839 5.01515 36.6634 4.81466 35.9207 4.67903C35.1779 4.54341 34.4285 4.47559 33.6695 4.47559C32.9106 4.47559 32.1612 4.54341 31.4185 4.67903C30.6757 4.81466 29.9552 5.01515 29.2543 5.28053C28.5531 5.54588 27.8907 5.87022 27.2603 6.25647C26.6302 6.64272 26.0481 7.08206 25.511 7.5715C24.974 8.06388 24.4981 8.59758 24.0768 9.17547C23.6555 9.75337 23.2985 10.3608 23.0091 11.0035C22.7197 11.6463 22.501 12.3068 22.3531 12.9879C22.2052 13.669 22.1312 14.356 22.1312 15.0518C22.1312 15.7447 22.2084 16.4317 22.3563 17.1128C22.5042 17.7939 22.7261 18.4544 23.0156 19.0942C23.305 19.734 23.6619 20.3444 24.08 20.9222C24.5013 21.4972 24.9803 22.0309 25.5142 22.5233C26.0513 23.0127 26.6334 23.452 27.2638 23.8383C27.8907 24.2246 28.5563 24.549 29.2543 24.8173C29.9552 25.0826 30.6757 25.2832 31.4185 25.4188C32.158 25.5573 32.9074 25.625 33.6664 25.6279Z" fill="#56BA48" fill-opacity="0.7765"/>
<path d="M40.8698 17.5255C41.1463 17.779 41.4872 17.9058 41.8313 17.9058H50.0606C50.4015 17.9058 50.7455 17.779 51.0189 17.5255L53.2827 15.4468C53.9677 15.7623 54.7234 15.951 55.5468 15.951C58.2191 15.951 60.3448 13.9961 60.3448 11.5371C60.3448 9.07804 58.2191 7.1232 55.5468 7.1232C52.8713 7.1232 50.7455 9.07804 50.7455 11.5371C50.7455 12.2948 50.9513 12.9877 51.2922 13.6187L49.5105 15.3819H42.3779L37.715 11.0948V2.77418H41.6929C41.8313 2.77418 41.9662 2.83609 42.1046 2.77418C54.3118 2.33191 66.8598 7.43869 72.9634 17.9058H68.3682C67.7508 16.0777 65.9691 14.7539 63.7726 14.7539C61.1003 14.7539 58.9749 16.7058 58.9749 19.1648C58.9749 21.1846 60.4122 22.8239 62.4027 23.39V34.9274H52.1155C51.3629 34.9274 50.7455 35.4964 50.7455 36.1893V43.1243H48.0024V35.5584C48.0024 35.181 47.7965 34.8655 47.5232 34.6119L43.2012 31.2095V22.9477H48.8256L50.678 24.6519C50.3339 25.283 50.1282 25.9759 50.1282 26.7306C50.1282 29.1897 52.2536 31.1445 54.9294 31.1445C57.6017 31.1445 59.7272 29.1897 59.7272 26.7306C59.7272 24.2716 57.6017 22.3197 54.9294 22.3197C54.106 22.3197 53.3503 22.5084 52.6653 22.8239L50.4015 20.7423C50.0606 20.5536 49.7165 20.4268 49.3724 20.4268H41.8313C41.0755 20.4268 40.4581 20.9929 40.4581 21.6887V31.7756C40.4581 32.1528 40.6638 32.4685 40.9406 32.7219L45.2593 36.1245V43.1243H39.7731C39.4291 43.1243 39.0882 43.2511 38.8149 43.5016L27.8425 53.5913C27.566 53.842 27.4308 54.1574 27.4308 54.4731V64.7485C25.4402 65.3175 24.0028 66.9569 24.0028 68.9735C24.0028 71.4326 26.1284 73.3874 28.8007 73.3874C31.4762 73.3874 33.602 71.4326 33.602 68.9735C33.602 66.9569 32.1612 65.3175 30.1739 64.7485V54.9771L40.3229 45.6452H65.1458C65.6926 45.6452 66.1749 45.3946 66.3808 44.9524L70.4939 37.3865C70.5612 37.1978 70.632 37.009 70.632 36.8204V32.4065H76.6651V37.5751L74.8834 41.1693C74.7451 41.4849 74.7451 41.8004 74.8126 42.1158L80.8486 56.9319C80.8486 56.994 80.8486 57.0587 80.8486 57.1208C80.7813 57.1826 80.7813 57.1826 80.7105 57.1826H74.8126C74.4042 57.1826 73.9925 57.3744 73.716 57.6869C73.4427 58.0023 73.3751 58.4445 73.5103 58.822L75.1567 63.2359L72.002 64.2442C71.5903 64.371 71.2496 64.6864 71.1113 65.0639C70.9729 65.4443 71.0437 65.8836 71.317 66.199L73.3751 68.7849L71.5903 70.0468C71.2496 70.2975 71.0437 70.675 71.0437 71.0552V74.2692C71.0437 75.7197 70.2206 77.1085 68.8472 77.8014C68.2298 78.1788 67.4775 78.3674 66.7217 78.3674C61.0295 78.4324 39.0882 71.8101 39.0882 60.7768V58.1291C39.0882 57.4362 38.4708 56.8701 37.715 56.8701C36.9625 56.8701 36.3451 57.4362 36.3451 58.1291V60.7768C36.3451 74.2071 60.9622 80.9533 66.7925 80.9533C68.0241 80.9533 69.2589 80.6379 70.2879 80.0718C72.4812 78.8717 73.7868 76.7281 73.7868 74.3339V71.6862L76.0474 70.0468C76.5975 69.6046 76.7356 68.8467 76.3242 68.3427L74.6069 66.1372L77.3498 65.2528C78.0382 65.0021 78.4496 64.3092 78.1731 63.6781L76.7356 59.7064H80.7105C81.672 59.7064 82.5627 59.2642 83.1127 58.5713C83.6593 57.8137 83.7977 56.8701 83.4536 56.0504L77.6265 41.7385L79.2698 38.3948C79.3406 38.2062 79.4079 38.0793 79.4079 37.8907V30.9559C78.9965 21.4352 74.7451 13.43 67.2039 7.75418C60.3448 2.58547 51.4979 -0.000348955 42.1046 0.250273C42.037 0.250273 41.8989 0.250273 41.8313 0.250273H36.3451C35.5893 0.250273 34.9719 0.819331 34.9719 1.51223V11.599C34.9719 11.9145 35.1103 12.23 35.3836 12.4836L40.8698 17.5255ZM55.5468 9.70902C56.7108 9.70902 57.6017 10.5287 57.6017 11.599C57.6017 12.6723 56.7108 13.4919 55.5468 13.4919C54.3793 13.4919 53.4887 12.6723 53.4887 11.599C53.4887 10.5287 54.3793 9.70902 55.5468 9.70902ZM54.8586 24.8406C56.0258 24.8406 56.9167 25.6602 56.9167 26.7306C56.9167 27.8039 56.0258 28.6236 54.8586 28.6236C53.6944 28.6236 52.8037 27.8039 52.8037 26.7306C52.8037 25.6602 53.6944 24.8406 54.8586 24.8406ZM30.8589 68.9735C30.8589 70.0468 29.9682 70.8665 28.8007 70.8665C27.6367 70.8665 26.7458 70.0468 26.7458 68.9735C26.7458 67.9034 27.6367 67.0837 28.8007 67.0837C29.9682 67.0837 30.8589 67.9034 30.8589 68.9735ZM61.718 19.1648C61.718 18.0945 62.6087 17.2749 63.7726 17.2749C64.9401 17.2749 65.8308 18.0945 65.8308 19.1648C65.8308 20.2381 64.9401 21.0578 63.7726 21.0578C62.6087 21.0578 61.718 20.2381 61.718 19.1648ZM76.5975 29.8855H69.2589C68.5065 29.8855 67.8889 30.4516 67.8889 31.1445V36.5049L64.3227 43.1243H53.4887V37.4485H63.7726C64.5284 37.4485 65.1458 36.8822 65.1458 36.1893V23.39C66.7217 22.9477 67.8889 21.8126 68.3682 20.4268H74.266C75.5008 23.2632 76.3242 26.4152 76.5975 29.8855Z" fill="white"/>
<path d="M4.11767 8.8903V19.7968C4.11767 20.1771 4.32348 20.5545 4.59683 20.8051L12.1411 26.3543C12.2087 26.4161 12.2762 26.4161 12.3469 26.4809V39.9733C12.3469 40.2887 12.482 40.5394 12.6878 40.793L16.46 44.8265V55.2937C14.4726 55.8598 13.0319 57.4992 13.0319 59.5187C13.0319 61.9778 15.1575 63.9297 17.8331 63.9297C20.5055 63.9297 22.6311 61.9778 22.6311 59.5187C22.6311 57.4992 21.1904 55.8598 19.203 55.2937V44.3872C19.203 44.0718 19.0648 43.8182 18.859 43.5675L15.09 39.5311V11.8535L21.9461 15.4477V18.0306C19.9588 18.5997 18.5181 20.239 18.5181 22.2558C18.5181 24.7149 20.6437 26.6697 23.3161 26.6697C25.9915 26.6697 28.1172 24.7149 28.1172 22.2558C28.1172 20.239 26.6765 18.5997 24.6891 18.0306V14.7548C24.6891 14.3126 24.4159 13.8703 24.0043 13.6816L14.4018 8.63672C13.9902 8.38609 13.4435 8.38609 13.0319 8.63672C12.6203 8.8903 12.3469 9.2677 12.3469 9.70997V23.2642L6.86077 19.1658V8.8903C8.84814 8.32123 10.2888 6.68483 10.2888 4.6651C10.2888 2.20607 8.16316 0.251221 5.4876 0.251221C2.81527 0.251221 0.689613 2.20607 0.689613 4.6651C0.689613 6.68483 2.12708 8.32123 4.11767 8.8903ZM19.888 59.5187C19.888 60.5891 18.9972 61.4088 17.8331 61.4088C16.6658 61.4088 15.775 60.5891 15.775 59.5187C15.775 58.4454 16.6658 57.626 17.8331 57.626C18.9972 57.626 19.888 58.4454 19.888 59.5187ZM25.3741 22.3207C25.3741 23.391 24.4834 24.2106 23.3161 24.2106C22.1519 24.2106 21.2612 23.391 21.2612 22.3207C21.2612 21.2474 22.1519 20.4277 23.3161 20.4277C24.4834 20.4277 25.3741 21.2474 25.3741 22.3207ZM5.4876 2.77513C6.65495 2.77513 7.54572 3.5948 7.54572 4.6651C7.54572 5.73836 6.65495 6.55803 5.4876 6.55803C4.32348 6.55803 3.43271 5.73836 3.43271 4.6651C3.43271 3.5948 4.32348 2.77513 5.4876 2.77513Z" fill="white"/>
<path d="M34.9719 20.3001V38.7753L24.6879 48.2312V39.1527C26.6753 38.5837 28.116 36.9443 28.116 34.9277C28.116 32.4686 25.9903 30.5138 23.3147 30.5138C20.6424 30.5138 18.5167 32.4686 18.5167 34.9277C18.5167 36.9443 19.9574 38.5837 21.9447 39.1527V51.3212C21.9447 51.8254 22.2888 52.2677 22.768 52.4563C22.9738 52.5801 23.1089 52.5801 23.3147 52.5801C23.6588 52.5801 24.0029 52.4563 24.2762 52.2027L37.3033 40.2231C37.5801 39.9724 37.715 39.657 37.715 39.3414V19.7959C37.715 19.4804 37.5801 19.165 37.3033 18.9143L32.2288 14.2469V4.66429C32.2288 3.97139 31.6146 3.40527 30.8589 3.40527C30.1033 3.40527 29.4891 3.97139 29.4891 4.66429V14.754C29.4891 15.0666 29.6241 15.3821 29.8974 15.6356L34.9719 20.3001ZM23.3147 36.8204C22.1506 36.8204 21.2598 36.0007 21.2598 34.9277C21.2598 33.8573 22.1506 33.0376 23.3147 33.0376C24.482 33.0376 25.3729 33.8573 25.3729 34.9277C25.3729 36.0007 24.482 36.8204 23.3147 36.8204Z" fill="white"/>
<path d="M0 50.6902C0 53.1493 2.12565 55.1041 4.8012 55.1041C7.47676 55.1041 9.60243 53.1493 9.60243 50.6902C9.60243 48.6735 8.16174 47.0341 6.17437 46.4651V37.8909C8.16174 37.3248 9.60243 35.6854 9.60243 33.6656C9.60243 31.2097 7.47676 29.2549 4.8012 29.2549C2.12565 29.2549 0 31.2097 0 33.6656C0 35.6854 1.44068 37.3248 3.43127 37.8909V46.4651C1.44068 47.0341 0 48.6735 0 50.6902ZM2.74308 33.6656C2.74308 32.5955 3.63708 31.7758 4.8012 31.7758C5.96856 31.7758 6.85932 32.5955 6.85932 33.6656C6.85932 34.7389 5.96856 35.5586 4.8012 35.5586C3.63708 35.5586 2.74308 34.7389 2.74308 33.6656ZM4.8012 48.7974C5.96856 48.7974 6.85932 49.6171 6.85932 50.6902C6.85932 51.7605 5.96856 52.5802 4.8012 52.5802C3.63708 52.5802 2.74308 51.7605 2.74308 50.6902C2.74308 49.6171 3.63708 48.7974 4.8012 48.7974Z" fill="white"/>
</g>
<defs>
<clipPath id="clip0_588_3587">
<rect width="84" height="92.8421" fill="white" transform="translate(0 -0.000244141)"/>
</clipPath>
</defs>
</svg>
