<svg width="392" height="434" viewBox="0 0 392 434" fill="none" xmlns="http://www.w3.org/2000/svg">
<g clip-path="url(#clip0_588_3488)">
<path fill-rule="evenodd" clip-rule="evenodd" d="M205.327 59.7441C207.008 59.7441 208.674 59.5927 210.325 59.29C211.975 58.9873 213.581 58.5469 215.142 57.9553C216.688 57.3637 218.174 56.6344 219.569 55.7812C220.965 54.9282 222.27 53.9513 223.456 52.8642C224.641 51.7772 225.707 50.5801 226.653 49.3005C227.583 48.0209 228.378 46.6725 229.024 45.2414C229.669 43.8104 230.149 42.3519 230.479 40.8383C230.809 39.3248 230.975 37.7975 230.975 36.2427C230.975 34.7016 230.809 33.1742 230.479 31.6607C230.163 30.1471 229.669 28.6748 229.024 27.2576C228.393 25.8266 227.598 24.4782 226.667 23.1848C225.737 21.9051 224.671 20.7218 223.486 19.621C222.286 18.5341 220.994 17.557 219.599 16.704C218.203 15.8371 216.718 15.1217 215.171 14.53C213.611 13.9383 212.006 13.4843 210.354 13.1815C208.704 12.8788 207.038 12.7274 205.358 12.7274C203.677 12.7274 202.01 12.865 200.36 13.1677C198.709 13.4705 197.103 13.9108 195.543 14.5024C193.982 15.0942 192.511 15.8096 191.115 16.6627C189.705 17.5158 188.414 18.4928 187.214 19.5797C186.029 20.6667 184.962 21.8638 184.032 23.1435C183.087 24.4231 182.291 25.7716 181.646 27.2026C181.001 28.6199 180.505 30.0922 180.175 31.6056C179.845 33.1192 179.68 34.6465 179.68 36.1876C179.68 37.7286 179.845 39.2698 180.175 40.7833C180.505 42.2968 180.985 43.7691 181.631 45.1864C182.277 46.6174 183.057 47.9797 184.002 49.2593C184.933 50.5389 185.998 51.7359 187.184 52.823C188.384 53.9238 189.674 54.9007 191.071 55.7538C192.466 56.6206 193.952 57.3499 195.512 57.9415C197.058 58.5333 198.664 58.9735 200.314 59.2762C201.966 59.5927 203.647 59.7441 205.327 59.7441Z" fill="#F9ED32" fill-opacity="0.7765"/>
<path fill-rule="evenodd" clip-rule="evenodd" d="M329.571 77.8663C336.535 85.2828 342.297 93.401 346.845 102.248C351.407 111.096 354.589 120.329 356.405 129.974C361.597 157.837 353.673 183.636 359.225 200.974C360.531 204.867 362.272 208.583 364.463 212.119C361.851 213.509 359.181 214.761 356.419 215.862C353.673 216.962 350.851 217.926 347.97 218.738C345.089 219.549 342.177 220.196 339.221 220.704C336.265 221.2 333.278 221.545 330.277 221.737C327.275 221.93 324.274 221.957 321.257 221.833C318.256 221.709 315.27 221.42 312.298 220.98C309.327 220.54 306.4 219.935 303.504 219.191C300.608 218.434 297.757 217.54 294.981 216.495C292.203 215.434 289.487 214.252 286.862 212.917C284.219 211.582 281.683 210.11 279.223 208.514C276.776 206.904 274.435 205.184 272.199 203.327C269.963 201.482 267.862 199.529 265.866 197.451C263.886 195.387 262.024 193.213 260.313 190.956C258.602 188.686 257.027 186.333 255.601 183.911C254.176 181.476 252.915 178.972 251.805 176.412C250.694 173.854 249.749 171.239 248.968 168.57C248.187 165.914 247.573 163.217 247.122 160.493C246.672 157.755 246.402 155.016 246.297 152.265C246.207 149.499 246.267 146.747 246.522 143.995C246.762 141.256 247.167 138.519 247.752 135.822C248.338 133.111 249.103 130.442 250.018 127.814C250.934 125.186 252.015 122.626 253.261 120.109C254.49 117.59 255.887 115.155 257.432 112.788C258.978 110.422 260.673 108.151 262.505 105.963C264.336 103.762 266.302 101.684 268.387 99.7028C270.488 97.7214 272.695 95.8502 275.021 94.1026C277.346 92.3552 279.778 90.7315 282.299 89.2317C284.835 87.7457 287.447 86.3835 290.147 85.1726C292.849 83.9481 295.61 82.8748 298.447 81.9529C301.283 81.0173 304.165 80.2468 307.09 79.6137C310.032 78.9946 312.989 78.5268 315.975 78.2103C318.961 77.9076 321.962 77.7425 324.979 77.7425C326.45 77.7425 328.025 77.7976 329.571 77.8663Z" fill="#662D91" fill-opacity="0.7765"/>
<path fill-rule="evenodd" clip-rule="evenodd" d="M357.935 142.232C359.57 165.307 354.483 186.209 359.225 201.041C367.344 226.358 403.287 249.296 386.494 262.326C381.166 266.221 372.026 266.482 366.669 270.307C358.13 276.416 363.968 283.021 364.718 287.795C365.078 290.053 362.842 293.684 355.458 298.101C361.041 301.872 360.531 305.064 358.535 308.008C355.818 309.715 353.027 311.311 350.146 312.783C347.265 314.269 344.324 315.617 341.322 316.856C338.305 318.08 335.245 319.182 332.137 320.172C329.016 321.148 325.849 321.989 322.653 322.704C319.456 323.433 316.215 324.011 312.959 324.465C309.702 324.905 306.431 325.222 303.144 325.4C299.842 325.579 296.555 325.62 293.269 325.524C289.968 325.429 286.681 325.194 283.409 324.823C280.138 324.465 276.896 323.955 273.67 323.323C270.458 322.69 267.277 321.919 264.126 321.025C260.974 320.116 257.882 319.085 254.836 317.928C251.79 316.774 248.818 315.493 245.891 314.09C242.981 312.687 240.129 311.173 237.368 309.536C234.591 307.898 231.92 306.137 229.324 304.28C226.728 302.422 224.222 300.454 221.821 298.391C219.42 296.312 217.123 294.153 214.947 291.896C212.755 289.639 210.685 287.287 208.719 284.865C206.768 282.429 204.937 279.924 203.226 277.339C201.515 274.765 199.939 272.11 198.485 269.398C197.043 266.688 195.722 263.922 194.552 261.101C193.367 258.267 192.346 255.405 191.446 252.502C190.545 249.598 189.81 246.654 189.194 243.682C188.594 240.71 188.144 237.725 187.829 234.725C187.529 231.711 187.363 228.698 187.349 225.671C187.349 222.657 187.484 219.644 187.769 216.63C188.054 213.617 188.489 210.632 189.074 207.66C189.645 204.687 190.381 201.743 191.25 198.826C192.121 195.909 193.127 193.047 194.282 190.213C195.438 187.392 196.728 184.612 198.169 181.887C199.594 179.163 201.155 176.508 202.837 173.921C204.531 171.32 206.347 168.803 208.284 166.367C210.22 163.917 212.276 161.565 214.452 159.295C216.628 157.024 218.909 154.837 221.295 152.758C223.681 150.667 226.158 148.699 228.738 146.815C231.32 144.944 233.991 143.168 236.752 141.517C239.498 139.852 242.335 138.325 245.246 136.894C248.158 135.477 251.129 134.183 254.16 133C257.192 131.831 260.284 130.785 263.42 129.863C266.557 128.94 269.738 128.157 272.965 127.496C276.176 126.835 279.417 126.326 282.689 125.928C285.961 125.543 289.232 125.294 292.534 125.185C295.821 125.06 299.106 125.088 302.408 125.239C305.695 125.405 308.967 125.693 312.238 126.119C315.495 126.547 318.736 127.11 321.933 127.813C325.144 128.5 328.311 129.339 331.432 130.289C334.553 131.252 337.63 132.339 340.647 133.55C343.663 134.774 346.619 136.11 349.501 137.568C352.382 139.026 355.203 140.595 357.935 142.287V142.232Z" fill="#92278F" fill-opacity="0.7765"/>
<path fill-rule="evenodd" clip-rule="evenodd" d="M334.525 363.708C292.984 379.216 237.368 327.217 229.895 433.263C202.881 417 174.263 403.653 144.024 393.209C142.778 391.531 141.592 389.824 140.467 388.076C139.342 386.329 138.275 384.54 137.271 382.738C136.25 380.935 135.304 379.092 134.434 377.234C133.549 375.377 132.723 373.477 131.973 371.579C131.223 369.666 130.533 367.74 129.917 365.786C129.287 363.833 128.731 361.879 128.251 359.897C127.755 357.915 127.336 355.92 126.991 353.911C126.631 351.917 126.36 349.894 126.135 347.872C125.925 345.863 125.775 343.826 125.699 341.804C125.625 339.766 125.625 337.743 125.685 335.707C125.745 333.684 125.88 331.662 126.075 329.639C126.27 327.616 126.541 325.594 126.886 323.599C127.216 321.59 127.621 319.595 128.101 317.614C128.567 315.619 129.121 313.651 129.722 311.711C130.337 309.757 131.013 307.816 131.747 305.904C132.483 303.991 133.294 302.106 134.163 300.235C135.034 298.364 135.965 296.52 136.955 294.718C137.946 292.902 139.011 291.113 140.122 289.365C141.232 287.604 142.418 285.884 143.648 284.206C144.879 282.513 146.169 280.862 147.52 279.252C148.856 277.642 150.266 276.059 151.722 274.533C153.163 273.005 154.679 271.519 156.224 270.061C157.785 268.615 159.391 267.225 161.042 265.864C162.693 264.515 164.389 263.209 166.129 261.955C167.855 260.69 169.641 259.493 171.472 258.338C173.288 257.182 175.149 256.08 177.039 255.035C178.945 253.975 180.866 252.985 182.832 252.049C184.798 251.114 186.794 250.232 188.819 249.407C190.846 248.581 192.902 247.824 194.973 247.109C197.043 246.407 199.145 245.761 201.275 245.182C203.392 244.591 205.538 244.069 207.683 243.615C209.845 243.146 212.021 242.747 214.197 242.404C216.389 242.073 218.579 241.798 220.785 241.578C222.976 241.372 225.198 241.22 227.403 241.137C229.624 241.041 231.831 241.028 234.051 241.069C236.257 241.11 238.479 241.207 240.685 241.386C242.89 241.55 245.081 241.785 247.273 242.073C249.464 242.362 251.655 242.72 253.816 243.146C255.992 243.559 258.138 244.041 260.269 244.577C262.4 245.128 264.515 245.733 266.617 246.393C268.703 247.055 270.774 247.77 272.815 248.554C274.871 249.338 276.882 250.178 278.863 251.073C280.858 251.98 282.809 252.93 284.73 253.934C286.651 254.953 288.543 256.012 290.389 257.127C292.234 258.241 294.05 259.411 295.821 260.635C297.592 261.86 299.318 263.125 300.998 264.447C302.679 265.767 304.314 267.143 305.905 268.547C307.496 269.964 309.027 271.422 310.528 272.923C312.014 274.422 313.454 275.977 314.834 277.56C316.215 279.141 317.551 280.765 318.826 282.431C320.102 284.082 321.318 285.787 322.473 287.508C323.629 289.241 324.725 291.002 325.76 292.805C326.81 294.594 327.786 296.41 328.687 298.267C329.602 300.111 330.457 301.982 331.238 303.882C332.033 305.78 332.753 307.707 333.399 309.646C334.059 311.587 334.645 313.541 335.169 315.508C335.695 317.49 336.145 319.471 336.535 321.466C336.91 323.475 337.24 325.484 337.48 327.493C337.736 329.516 337.915 331.539 338.021 333.561C338.141 335.598 338.17 337.62 338.155 339.657C338.126 341.679 338.021 343.702 337.856 345.738C337.69 347.761 337.465 349.77 337.151 351.793C336.85 353.802 336.475 355.797 336.04 357.792C335.605 359.773 335.095 361.754 334.525 363.708Z" fill="#007FC6" fill-opacity="0.7765"/>
<path fill-rule="evenodd" clip-rule="evenodd" d="M273.535 364.258C251.594 365.097 233.886 376.684 229.894 433.263C203.031 417.096 174.577 403.804 144.533 393.373C144.623 389.934 145.029 386.521 145.719 383.151C146.424 379.766 147.415 376.464 148.69 373.23C149.981 369.997 151.557 366.886 153.387 363.886C155.233 360.901 157.334 358.052 159.675 355.369C162.032 352.687 164.598 350.21 167.389 347.912C170.195 345.614 173.167 343.537 176.334 341.693C179.499 339.835 182.801 338.238 186.253 336.877C189.705 335.528 193.246 334.442 196.893 333.616C200.539 332.79 204.232 332.254 207.968 331.978C211.705 331.717 215.457 331.717 219.193 332.02C222.93 332.308 226.622 332.873 230.254 333.712C233.886 334.565 237.427 335.666 240.864 337.042C244.315 338.417 247.602 340.041 250.753 341.913C253.905 343.784 256.862 345.875 259.638 348.187C262.429 350.499 264.981 353.004 267.306 355.7C269.632 358.396 271.719 361.245 273.535 364.258Z" fill="#01A6E6" fill-opacity="0.7765"/>
<path fill-rule="evenodd" clip-rule="evenodd" d="M373.903 267.075C371.291 267.762 368.89 268.822 366.67 270.252C358.13 276.361 363.968 282.966 364.718 287.728C365.079 289.998 362.842 293.63 355.459 298.047C363.998 303.812 358.25 308.243 354.814 312.494C338.846 323.048 361.072 345.917 334.719 363.653C308.111 373.697 275.771 355.975 253.921 369.584C253.576 367.754 253.29 365.909 253.065 364.065C252.855 362.222 252.69 360.378 252.6 358.521C252.495 356.663 252.465 354.806 252.495 352.948C252.525 351.09 252.615 349.247 252.765 347.389C252.915 345.532 253.141 343.688 253.41 341.858C253.696 340.013 254.041 338.184 254.431 336.367C254.837 334.551 255.302 332.735 255.826 330.947C256.352 329.158 256.937 327.383 257.583 325.621C258.227 323.86 258.933 322.113 259.698 320.392C260.464 318.673 261.289 316.98 262.16 315.302C263.045 313.637 263.976 311.986 264.966 310.362C265.957 308.752 266.992 307.156 268.087 305.587C269.183 304.032 270.338 302.505 271.539 301.005C272.739 299.519 273.985 298.047 275.29 296.63C276.582 295.199 277.933 293.823 279.328 292.474C280.723 291.127 282.165 289.819 283.634 288.553C285.12 287.288 286.637 286.062 288.211 284.88C289.773 283.696 291.378 282.567 293.014 281.481C294.65 280.393 296.33 279.348 298.041 278.357C299.752 277.366 301.494 276.417 303.279 275.522C305.05 274.628 306.85 273.789 308.681 272.991C310.512 272.207 312.374 271.463 314.264 270.776C316.141 270.087 318.046 269.468 319.967 268.891C321.903 268.313 323.839 267.79 325.805 267.322C327.755 266.854 329.737 266.441 331.718 266.084C333.713 265.726 335.71 265.436 337.72 265.189C339.731 264.955 341.743 264.763 343.768 264.639C345.779 264.515 347.806 264.447 349.831 264.432C351.857 264.418 353.883 264.46 355.909 264.57C357.92 264.667 359.946 264.831 361.957 265.052C363.968 265.272 365.963 265.547 367.96 265.878C369.955 266.207 371.937 266.592 373.903 267.046V267.075Z" fill="#2063B2" fill-opacity="0.7765"/>
<path fill-rule="evenodd" clip-rule="evenodd" d="M64.981 268.204C67.4722 268.204 69.9483 267.984 72.3945 267.529C74.8407 267.089 77.2118 266.428 79.523 265.562C81.834 264.68 84.025 263.608 86.096 262.342C88.1671 261.062 90.088 259.631 91.8587 258.007C93.6146 256.397 95.1904 254.637 96.5711 252.737C97.9667 250.825 99.1372 248.83 100.098 246.71C101.043 244.592 101.764 242.418 102.259 240.175C102.739 237.932 102.979 235.676 102.979 233.377C102.979 231.093 102.739 228.837 102.259 226.594C101.764 224.352 101.043 222.177 100.098 220.058C99.1372 217.953 97.9667 215.944 96.586 214.046C95.2054 212.133 93.6296 210.386 91.8587 208.762C90.103 207.152 88.182 205.707 86.1111 204.427C84.025 203.162 81.834 202.089 79.5379 201.221C77.2268 200.341 74.8556 199.681 72.4096 199.24C69.9634 198.786 67.4872 198.566 64.996 198.566C62.5048 198.566 60.0287 198.786 57.5825 199.24C55.1363 199.681 52.7652 200.341 50.4541 201.221C48.158 202.089 45.9669 203.162 43.881 204.441C41.81 205.707 39.8891 207.152 38.1332 208.776C36.3624 210.386 34.7866 212.146 33.406 214.046C32.0253 215.944 30.8548 217.953 29.8944 220.073C28.9489 222.177 28.2285 224.365 27.7333 226.608C27.2531 228.851 27.013 231.107 27.013 233.406C27.013 235.689 27.2681 237.946 27.7483 240.189C28.2435 242.418 28.9639 244.592 29.9243 246.71C30.8848 248.816 32.0553 250.825 33.436 252.724C34.8167 254.608 36.3924 256.37 38.1633 257.98C39.9191 259.603 41.84 261.048 43.9109 262.315C45.9819 263.58 48.158 264.653 50.4691 265.533C52.7652 266.415 55.1363 267.075 57.5825 267.515C60.0287 267.97 62.4898 268.204 64.981 268.204Z" fill="#12BCBC" fill-opacity="0.7765"/>
<path fill-rule="evenodd" clip-rule="evenodd" d="M144.534 316.664C146.815 316.678 149.066 316.471 151.302 316.072C153.538 315.673 155.714 315.082 157.815 314.283C159.915 313.486 161.912 312.509 163.818 311.353C165.709 310.211 167.464 308.89 169.086 307.419C170.691 305.945 172.131 304.349 173.407 302.616C174.667 300.882 175.749 299.052 176.618 297.126C177.489 295.199 178.15 293.218 178.6 291.168C179.05 289.118 179.275 287.054 179.29 284.977C179.29 282.884 179.065 280.821 178.63 278.771C178.194 276.721 177.534 274.739 176.664 272.812C175.808 270.873 174.743 269.043 173.467 267.309C172.207 265.576 170.781 263.966 169.175 262.493C167.569 261.007 165.814 259.685 163.922 258.53C162.032 257.361 160.035 256.384 157.935 255.585C155.834 254.787 153.658 254.182 151.437 253.769C149.201 253.356 146.95 253.15 144.669 253.15C142.387 253.15 140.136 253.356 137.901 253.755C135.679 254.168 133.503 254.76 131.402 255.558C129.302 256.356 127.305 257.333 125.4 258.488C123.509 259.658 121.768 260.966 120.147 262.438C118.542 263.923 117.101 265.52 115.84 267.254C114.579 268.987 113.499 270.817 112.628 272.744C111.758 274.684 111.098 276.665 110.662 278.716C110.212 280.752 109.987 282.83 109.987 284.907C110.002 286.984 110.227 289.049 110.662 291.086C111.113 293.136 111.773 295.117 112.643 297.029C113.499 298.956 114.565 300.786 115.825 302.506C117.086 304.24 118.526 305.85 120.117 307.322C121.722 308.794 123.464 310.101 125.354 311.271C127.231 312.426 129.226 313.403 131.327 314.201C133.414 315.013 135.575 315.619 137.795 316.031C140.016 316.444 142.267 316.664 144.534 316.664Z" fill="#00B9F1" fill-opacity="0.7765"/>
<path fill-rule="evenodd" clip-rule="evenodd" d="M59.5184 183.47C61.2743 183.47 63.0001 183.319 64.7108 183.002C66.4217 182.685 68.0875 182.232 69.7082 181.613C71.314 181.007 72.8597 180.25 74.3004 179.356C75.7561 178.476 77.1067 177.457 78.3373 176.329C79.5829 175.187 80.6785 173.962 81.6539 172.628C82.6293 171.293 83.4397 169.889 84.1151 168.404C84.7754 166.931 85.2857 165.404 85.6308 163.835C85.961 162.266 86.1411 160.67 86.1411 159.075C86.1411 157.465 85.961 155.882 85.6308 154.314C85.2857 152.731 84.7754 151.218 84.1151 149.731C83.4397 148.246 82.6144 146.842 81.6539 145.507C80.6785 144.187 79.568 142.948 78.3373 141.82C77.0917 140.678 75.7561 139.674 74.3004 138.779C72.8448 137.885 71.314 137.141 69.6932 136.522C68.0875 135.917 66.4217 135.449 64.6959 135.132C62.9851 134.83 61.2593 134.679 59.5034 134.679C57.7626 134.679 56.0218 134.83 54.3109 135.146C52.6001 135.463 50.9344 135.917 49.3285 136.536C47.7079 137.141 46.1771 137.899 44.7213 138.792C43.2657 139.687 41.93 140.692 40.6844 141.833C39.4539 142.962 38.3434 144.2 37.3829 145.521C36.4074 146.856 35.597 148.273 34.9217 149.745C34.2464 151.232 33.7512 152.758 33.406 154.327C33.0759 155.896 32.8958 157.479 32.8958 159.089C32.9107 160.685 33.0759 162.266 33.421 163.835C33.7662 165.418 34.2764 166.931 34.9368 168.417C35.6121 169.889 36.4375 171.293 37.3979 172.628C38.3734 173.962 39.4839 175.187 40.7145 176.315C41.9451 177.457 43.2958 178.461 44.7514 179.356C46.1921 180.236 47.7228 180.993 49.3436 181.599C50.9494 182.218 52.6152 182.685 54.3259 183.002C56.0368 183.305 57.7776 183.47 59.5184 183.47Z" fill="#8DC63F" fill-opacity="0.7765"/>
<path d="M46.2371 98.4504C46.2371 99.84 46.102 101.216 45.8019 102.578C45.5017 103.94 45.0665 105.261 44.4813 106.541C43.911 107.821 43.2056 109.031 42.3652 110.187C41.5248 111.343 40.5644 112.416 39.4989 113.393C38.4183 114.37 37.2628 115.25 36.0022 116.021C34.7416 116.792 33.406 117.438 32.0103 117.975C30.6147 118.499 29.174 118.897 27.6883 119.172C26.2025 119.447 24.7019 119.585 23.2012 119.585C21.6854 119.585 20.1847 119.447 18.699 119.172C17.2133 118.897 15.7726 118.499 14.3769 117.975C12.9813 117.438 11.6456 116.792 10.3851 116.021C9.12446 115.25 7.96892 114.37 6.90341 113.393C5.8229 112.416 4.87746 111.343 4.03706 110.187C3.19665 109.031 2.47631 107.821 1.90604 106.541C1.32077 105.261 0.88556 103.94 0.585413 102.578C0.300281 101.216 0.150208 99.84 0.150208 98.4504C0.150208 97.0607 0.300281 95.6847 0.585413 94.3362C0.88556 92.9741 1.32077 91.6531 1.90604 90.3735C2.47631 89.0801 3.19665 87.8692 4.03706 86.7134C4.87746 85.5576 5.8229 84.4981 6.90341 83.5074C7.96892 82.5305 9.12446 81.6636 10.3851 80.8931C11.6456 80.1226 12.9813 79.4621 14.3769 78.9392C15.7726 78.4026 17.2133 78.0036 18.699 77.7284C20.1847 77.467 21.6854 77.3294 23.2012 77.3294C24.7019 77.3294 26.2025 77.467 27.6883 77.7284C29.174 78.0036 30.6147 78.4026 32.0103 78.9392C33.406 79.4621 34.7416 80.1226 36.0022 80.8931C37.2628 81.6636 38.4183 82.5305 39.4989 83.5074C40.5644 84.4981 41.5248 85.5576 42.3652 86.7134C43.2056 87.8692 43.911 89.0801 44.4813 90.3735C45.0665 91.6531 45.5017 92.9741 45.8019 94.3362C46.102 95.6847 46.2371 97.0607 46.2371 98.4504Z" fill="#FFD900" fill-opacity="0.7765"/>
<path fill-rule="evenodd" clip-rule="evenodd" d="M71.884 59.7441C73.3097 59.7441 74.7053 59.6203 76.086 59.3727C77.4817 59.1112 78.8173 58.7396 80.1229 58.2444C81.4285 57.749 82.6741 57.1436 83.8447 56.4281C85.0303 55.7126 86.1107 54.887 87.1162 53.9789C88.1067 53.0569 89.0072 52.0662 89.7875 50.993C90.5828 49.906 91.2432 48.7777 91.7834 47.5806C92.3237 46.3835 92.7289 45.1452 93.014 43.8793C93.2842 42.6134 93.4192 41.32 93.4192 40.0265C93.4192 38.7331 93.2842 37.4535 93.014 36.1739C92.7439 34.908 92.3237 33.6697 91.7834 32.4726C91.2432 31.2754 90.5828 30.1471 89.8025 29.0739C89.0221 27.987 88.1217 26.9963 87.1313 26.0743C86.1258 25.1662 85.0452 24.3406 83.8747 23.6251C82.6891 22.9096 81.4586 22.2905 80.1529 21.7951C78.8473 21.2998 77.4967 20.9282 76.116 20.6806C74.7203 20.4191 73.3247 20.2953 71.914 20.2953C70.5034 20.2953 69.0927 20.4191 67.712 20.6668C66.3314 20.9282 64.9808 21.2998 63.6751 21.7951C62.3695 22.2905 61.1239 22.8959 59.9533 23.6113C58.7828 24.3406 57.6873 25.1524 56.6968 26.0743C55.6913 26.9825 54.8059 27.987 54.0105 29.0602C53.2301 30.1334 52.5698 31.2754 52.0296 32.4726C51.4893 33.6697 51.0841 34.8942 50.7989 36.1739C50.5289 37.4397 50.3938 38.7195 50.3938 40.0129C50.3938 41.3063 50.5289 42.5997 50.814 43.8655C51.0841 45.1314 51.4893 46.3697 52.0296 47.5531C52.5698 48.7502 53.2301 49.8923 54.0256 50.9655C54.8059 52.0388 55.6913 53.0433 56.6968 53.9513C57.6873 54.8732 58.7828 55.685 59.9533 56.4006C61.1239 57.1298 62.3695 57.7353 63.6601 58.2306C64.9657 58.726 66.3163 59.0974 67.697 59.3589C69.0777 59.6065 70.4733 59.7441 71.884 59.7441Z" fill="#009444" fill-opacity="0.7765"/>
<path fill-rule="evenodd" clip-rule="evenodd" d="M79.1927 108.906C81.0836 108.906 82.8995 108.576 84.6403 107.916C86.3811 107.242 87.9118 106.306 89.2475 105.081C90.5831 103.87 91.6036 102.453 92.3239 100.857C93.0443 99.261 93.4045 97.5961 93.4045 95.8762C93.4045 94.1424 93.0443 92.4775 92.3239 90.8814C91.6036 89.2853 90.5831 87.8818 89.2475 86.6572C87.9118 85.4326 86.3811 84.4969 84.6403 83.8365C82.8995 83.1761 81.0836 82.8458 79.1927 82.8458C77.3168 82.8458 75.501 83.1761 73.7602 83.8365C72.0192 84.4969 70.4735 85.4326 69.1379 86.6572C67.8173 87.8818 66.7818 89.2853 66.0614 90.8814C65.3411 92.4775 64.981 94.1424 64.981 95.8762C64.981 97.5961 65.3562 99.261 66.0765 100.857C66.7968 102.453 67.8173 103.857 69.153 105.081C70.4885 106.292 72.0192 107.242 73.7602 107.902C75.501 108.562 77.3168 108.893 79.1927 108.906Z" fill="#56BA48" fill-opacity="0.7765"/>
<path fill-rule="evenodd" clip-rule="evenodd" d="M108.846 26.0607C110.722 26.0607 112.538 25.7305 114.279 25.07C116.019 24.4096 117.551 23.4602 118.886 22.2355C120.222 21.0247 121.257 19.6074 121.977 18.0113C122.698 16.4152 123.058 14.7503 123.058 13.0304C123.058 11.2966 122.698 9.63173 121.977 8.03562C121.257 6.4395 120.222 5.03602 118.886 3.81142C117.551 2.58681 116.019 1.65115 114.279 0.990693C112.538 0.330231 110.722 0 108.846 0C106.955 0 105.14 0.330231 103.399 0.990693C101.658 1.65115 100.127 2.58681 98.7915 3.81142C97.4558 5.03602 96.4354 6.4395 95.7151 8.03562C94.9797 9.63173 94.6195 11.2966 94.6195 13.0304C94.6345 14.7503 94.9947 16.4152 95.7151 18.0113C96.4354 19.6074 97.4709 21.011 98.7915 22.2355C100.127 23.4464 101.673 24.3958 103.399 25.0563C105.14 25.7167 106.955 26.047 108.846 26.0607Z" fill="#FBAD17" fill-opacity="0.7765"/>
<path fill-rule="evenodd" clip-rule="evenodd" d="M21.5346 55.0922C22.9603 55.0922 24.3259 54.8307 25.6466 54.3354C26.9522 53.8263 28.1227 53.1108 29.1132 52.189C30.1187 51.2532 30.8991 50.1938 31.4393 48.9829C31.9795 47.7721 32.2497 46.5061 32.2497 45.1991C32.2347 43.9056 31.9646 42.6397 31.4094 41.4427C30.869 40.2318 30.0887 39.1724 29.0682 38.2504C28.0627 37.3285 26.8922 36.613 25.5865 36.1177C24.2659 35.6223 22.8853 35.3747 21.4595 35.3747C20.0489 35.3747 18.6682 35.6223 17.3477 36.1314C16.0421 36.6268 14.8714 37.3423 13.8659 38.2642C12.8605 39.186 12.0801 40.2593 11.5399 41.4701C10.9996 42.6673 10.7295 43.9331 10.7295 45.2403C10.7295 46.5475 10.9996 47.7995 11.5549 49.0104C12.1102 50.2213 12.8905 51.2945 13.896 52.2164C14.9165 53.1384 16.0871 53.8538 17.4077 54.3491C18.7283 54.8445 20.1089 55.106 21.5346 55.0922Z" fill="#F15C22" fill-opacity="0.7765"/>
<path d="M277.287 155.703C277.287 158.414 277.137 161.096 276.851 163.78C276.567 166.477 276.131 169.132 275.561 171.788C274.976 174.43 274.271 177.044 273.415 179.631C272.56 182.218 271.569 184.749 270.443 187.24C269.318 189.744 268.057 192.18 266.662 194.56C265.281 196.941 263.766 199.252 262.129 201.495C260.494 203.737 258.738 205.898 256.877 207.989C255.001 210.081 253.035 212.077 250.95 213.975C248.863 215.888 246.687 217.705 244.422 219.41C242.141 221.13 239.769 222.726 237.322 224.226C234.877 225.726 232.355 227.115 229.759 228.381C227.163 229.661 224.506 230.816 221.791 231.848C219.059 232.881 216.298 233.789 213.477 234.573C210.655 235.358 207.803 236.004 204.922 236.528C202.026 237.063 199.114 237.462 196.189 237.725C193.262 237.986 190.32 238.124 187.379 238.124C184.438 238.124 181.496 237.986 178.57 237.725C175.629 237.462 172.733 237.063 169.835 236.528C166.954 236.004 164.103 235.358 161.281 234.573C158.461 233.789 155.699 232.881 152.968 231.848C150.251 230.816 147.595 229.661 144.999 228.381C142.402 227.115 139.881 225.726 137.435 224.226C134.974 222.726 132.618 221.13 130.337 219.41C128.071 217.705 125.88 215.888 123.809 213.975C121.723 212.077 119.742 210.081 117.881 207.989C116.006 205.898 114.264 203.737 112.629 201.495C110.993 199.252 109.477 196.941 108.081 194.56C106.701 192.18 105.44 189.744 104.315 187.24C103.189 184.749 102.199 182.218 101.343 179.631C100.488 177.044 99.7676 174.43 99.1973 171.788C98.627 169.132 98.1918 166.477 97.9066 163.78C97.6215 161.096 97.4714 158.414 97.4714 155.703C97.4714 153.006 97.6215 150.323 97.9066 147.626C98.1918 144.944 98.627 142.273 99.1973 139.632C99.7676 136.99 100.488 134.362 101.343 131.788C102.199 129.203 103.189 126.67 104.315 124.166C105.44 121.675 106.701 119.24 108.081 116.86C109.477 114.48 110.993 112.168 112.629 109.925C114.264 107.682 116.006 105.508 117.881 103.43C119.742 101.339 121.723 99.3437 123.809 97.4311C125.88 95.5323 128.071 93.716 130.337 92.0098C132.618 90.2899 134.974 88.68 137.435 87.194C139.881 85.6941 142.402 84.3045 144.999 83.0248C147.595 81.7589 150.251 80.6032 152.968 79.5712C155.699 78.5391 158.461 77.6311 161.281 76.8468C164.103 76.0624 166.954 75.4157 169.835 74.8791C172.733 74.3563 175.629 73.9572 178.57 73.6958C181.496 73.4344 184.438 73.2968 187.379 73.2968C190.32 73.2968 193.262 73.4344 196.189 73.6958C199.114 73.9572 202.026 74.3563 204.922 74.8791C207.803 75.4157 210.655 76.0624 213.477 76.8468C216.298 77.6311 219.059 78.5391 221.791 79.5712C224.506 80.6032 227.163 81.7589 229.759 83.0248C232.355 84.3045 234.877 85.6941 237.322 87.194C239.769 88.68 242.141 90.2899 244.422 92.0098C246.687 93.716 248.863 95.5323 250.95 97.4311C253.035 99.3437 255.001 101.339 256.877 103.43C258.738 105.508 260.494 107.682 262.129 109.925C263.766 112.168 265.281 114.48 266.662 116.86C268.057 119.24 269.318 121.675 270.443 124.166C271.569 126.67 272.56 129.203 273.415 131.788C274.271 134.362 274.976 136.99 275.561 139.632C276.131 142.273 276.567 144.944 276.851 147.626C277.137 150.323 277.287 153.006 277.287 155.703Z" fill="#FBAD17" fill-opacity="0.7765"/>
<path fill-rule="evenodd" clip-rule="evenodd" d="M237.038 30.9736C280.122 39.1193 316.23 58.9057 337.51 87.3606C337.15 89.7685 336.624 92.1489 335.934 94.5018C335.243 96.8546 334.403 99.1525 333.398 101.409C332.392 103.666 331.251 105.854 329.946 107.986C328.656 110.105 327.215 112.155 325.655 114.123C324.079 116.077 322.383 117.948 320.552 119.709C318.721 121.485 316.785 123.149 314.744 124.691C312.688 126.245 310.542 127.662 308.291 128.97C306.055 130.277 303.729 131.446 301.328 132.492C298.927 133.537 296.465 134.432 293.944 135.188C291.423 135.959 288.857 136.565 286.246 137.047C283.634 137.514 281.008 137.831 278.367 137.995C275.711 138.174 273.055 138.188 270.398 138.065C267.757 137.927 265.115 137.652 262.504 137.211C259.893 136.785 257.312 136.208 254.776 135.492C252.24 134.762 249.763 133.895 247.347 132.891C244.915 131.886 242.575 130.745 240.309 129.478C238.042 128.199 235.881 126.809 233.795 125.296C231.725 123.768 229.759 122.145 227.898 120.397C226.037 118.664 224.311 116.82 222.705 114.88C221.099 112.94 219.629 110.917 218.294 108.812C216.958 106.707 215.773 104.533 214.737 102.29C213.686 100.047 212.801 97.7628 212.08 95.4099C211.345 93.0708 210.775 90.7041 210.369 88.2962C209.965 85.8883 209.725 83.4666 209.634 81.0311C209.559 78.5957 209.634 76.1739 209.889 73.7522C210.129 71.3168 210.55 68.9226 211.12 66.5423C211.69 64.1618 212.425 61.8227 213.311 59.5386C214.197 57.2407 215.247 54.998 216.432 52.8239C217.618 50.6498 218.953 48.5446 220.439 46.522C221.91 44.4993 223.515 42.5592 225.257 40.7292C226.998 38.8854 228.843 37.1379 230.824 35.5143C232.79 33.877 234.862 32.3634 237.038 30.9736Z" fill="#EC008B" fill-opacity="0.7765"/>
<path fill-rule="evenodd" clip-rule="evenodd" d="M157.11 119.598C160.651 119.598 164.147 119.282 167.615 118.649C171.081 118.016 174.458 117.08 177.714 115.842C180.986 114.604 184.093 113.076 187.034 111.274C189.975 109.471 192.691 107.435 195.198 105.137C197.689 102.853 199.925 100.349 201.89 97.6655C203.857 94.9686 205.522 92.1203 206.873 89.1208C208.224 86.1349 209.245 83.0528 209.935 79.8743C210.625 76.682 210.97 73.4761 210.97 70.2426C210.97 66.9953 210.625 63.7894 209.935 60.6108C209.245 57.4324 208.224 54.3503 206.873 51.3506C205.522 48.3511 203.857 45.5165 201.89 42.8196C199.925 40.1228 197.704 37.6322 195.198 35.3345C192.706 33.0504 189.975 31.0001 187.034 29.1976C184.107 27.3951 181.001 25.8816 177.729 24.6432C174.458 23.4048 171.096 22.4692 167.63 21.8363C164.163 21.2034 160.666 20.8868 157.125 20.8868C153.583 20.8868 150.086 21.2034 146.619 21.8363C143.153 22.4692 139.791 23.4048 136.52 24.6432C133.248 25.8816 130.157 27.3951 127.215 29.1976C124.274 31.0001 121.558 33.0504 119.051 35.3345C116.545 37.6322 114.325 40.1228 112.358 42.8196C110.392 45.5165 108.727 48.3511 107.376 51.3506C106.025 54.3503 105.005 57.4324 104.314 60.6108C103.624 63.7894 103.279 66.9953 103.279 70.2426C103.279 73.4761 103.639 76.682 104.33 79.8606C105.02 83.039 106.055 86.1211 107.406 89.107C108.757 92.0928 110.422 94.9411 112.373 97.6379C114.339 100.321 116.575 102.812 119.066 105.109C121.573 107.394 124.289 109.444 127.231 111.246C130.157 113.049 133.263 114.563 136.52 115.815C139.791 117.053 143.153 117.989 146.619 118.622C150.071 119.268 153.568 119.584 157.11 119.598Z" fill="#56BA48" fill-opacity="0.7765"/>
<path d="M190.726 81.7871C192.016 82.9703 193.607 83.562 195.213 83.562H233.616C235.207 83.562 236.813 82.9703 238.088 81.7871L248.653 72.0865C251.849 73.5588 255.376 74.4394 259.218 74.4394C271.689 74.4394 281.609 65.3168 281.609 53.8413C281.609 42.3657 271.689 33.2431 259.218 33.2431C246.733 33.2431 236.813 42.3657 236.813 53.8413C236.813 57.3775 237.773 60.611 239.363 63.5556L231.049 71.7838H197.763L176.003 51.7773V12.9477H194.567C195.213 12.9477 195.842 13.2366 196.488 12.9477C253.455 10.8837 312.013 34.7154 340.496 83.562H319.051C316.17 75.031 307.856 68.853 297.606 68.853C285.135 68.853 275.216 77.9618 275.216 89.4374C275.216 98.8628 281.923 106.513 291.213 109.155V162.996H243.206C239.694 162.996 236.813 165.651 236.813 168.885V201.248H224.011V165.941C224.011 164.179 223.05 162.707 221.775 161.524L201.606 145.646V107.091H227.853L236.497 115.044C234.891 117.989 233.931 121.222 233.931 124.744C233.931 136.22 243.85 145.343 256.337 145.343C268.808 145.343 278.727 136.22 278.727 124.744C278.727 113.269 268.808 104.16 256.337 104.16C252.495 104.16 248.968 105.041 245.771 106.513L235.207 96.7987C233.616 95.9182 232.01 95.3265 230.405 95.3265H195.213C191.686 95.3265 188.805 97.9683 188.805 101.216V148.288C188.805 150.048 189.765 151.521 191.056 152.704L211.21 168.583V201.248H185.608C184.002 201.248 182.411 201.84 181.136 203.009L129.931 250.094C128.641 251.264 128.01 252.736 128.01 254.209V302.161C118.721 304.817 112.013 312.467 112.013 321.878C112.013 333.354 121.933 342.476 134.403 342.476C146.889 342.476 156.809 333.354 156.809 321.878C156.809 312.467 150.086 304.817 140.811 302.161V256.561L188.174 213.013H304.014C306.566 213.013 308.816 211.843 309.777 209.779L328.971 174.472C329.286 173.591 329.616 172.71 329.616 171.83V151.232H357.77V175.352L349.456 192.125C348.81 193.598 348.81 195.07 349.126 196.542L377.294 265.684C377.294 265.973 377.294 266.276 377.294 266.565C376.979 266.854 376.979 266.854 376.649 266.854H349.126C347.219 266.854 345.298 267.749 344.008 269.207C342.733 270.679 342.417 272.743 343.048 274.504L350.731 295.102L336.009 299.808C334.088 300.4 332.498 301.872 331.853 303.633C331.207 305.408 331.537 307.458 332.813 308.93L342.417 320.998L334.088 326.887C332.498 328.057 331.537 329.818 331.537 331.592V346.591C331.537 353.36 327.696 359.841 321.287 363.074C318.406 364.836 314.895 365.716 311.368 365.716C284.805 366.02 182.411 335.115 182.411 283.627V271.271C182.411 268.037 179.53 265.395 176.003 265.395C172.491 265.395 169.61 268.037 169.61 271.271V283.627C169.61 346.302 284.49 377.784 311.698 377.784C317.446 377.784 323.208 376.312 328.01 373.67C338.246 368.07 344.338 358.066 344.338 346.893V334.537L354.888 326.887C357.455 324.823 358.099 321.286 356.179 318.934L348.166 308.642L360.966 304.514C364.178 303.345 366.098 300.111 364.808 297.166L358.099 278.632H376.649C381.136 278.632 385.293 276.568 387.859 273.334C390.41 269.799 391.056 265.395 389.45 261.57L362.257 194.781L369.926 179.177C370.256 178.297 370.57 177.705 370.57 176.825V144.462C368.65 100.032 348.81 62.6749 313.618 36.1877C281.609 12.067 240.323 -0.00010252 196.488 1.16947C196.173 1.16947 195.528 1.16947 195.213 1.16947H169.61C166.083 1.16947 163.202 3.82507 163.202 7.05858V54.1302C163.202 55.6025 163.848 57.0748 165.123 58.2581L190.726 81.7871ZM259.218 45.3103C264.65 45.3103 268.808 49.1354 268.808 54.1302C268.808 59.1387 264.65 62.9638 259.218 62.9638C253.77 62.9638 249.614 59.1387 249.614 54.1302C249.614 49.1354 253.77 45.3103 259.218 45.3103ZM256.007 115.924C261.454 115.924 265.611 119.749 265.611 124.744C265.611 129.753 261.454 133.578 256.007 133.578C250.574 133.578 246.417 129.753 246.417 124.744C246.417 119.749 250.574 115.924 256.007 115.924ZM144.008 321.878C144.008 326.887 139.851 330.712 134.403 330.712C128.971 330.712 124.814 326.887 124.814 321.878C124.814 316.884 128.971 313.059 134.403 313.059C139.851 313.059 144.008 316.884 144.008 321.878ZM288.017 89.4374C288.017 84.4426 292.174 80.6175 297.606 80.6175C303.054 80.6175 307.21 84.4426 307.21 89.4374C307.21 94.4459 303.054 98.271 297.606 98.271C292.174 98.271 288.017 94.4459 288.017 89.4374ZM357.455 139.467H323.208C319.697 139.467 316.815 142.109 316.815 145.343V170.358L300.173 201.248H249.614V174.761H297.606C301.133 174.761 304.014 172.118 304.014 168.885V109.155C311.368 107.091 316.815 101.793 319.051 95.3265H346.575C352.337 108.563 356.179 123.272 357.455 139.467Z" fill="white"/>
<path d="M19.2158 41.4887V92.3855C19.2158 94.1605 20.1762 95.9218 21.4519 97.0913L56.6585 122.987C56.9737 123.276 57.2889 123.276 57.619 123.578V186.543C57.619 188.015 58.2494 189.184 59.2098 190.368L76.8131 209.191V258.038C67.5387 260.68 60.8155 268.33 60.8155 277.755C60.8155 289.231 70.7352 298.339 83.2211 298.339C95.6921 298.339 105.612 289.231 105.612 277.755C105.612 268.33 98.8886 260.68 89.6142 258.038V207.141C89.6142 205.669 88.9689 204.485 88.0085 203.316L70.4201 184.479V55.3171L102.415 72.0901V84.1435C93.1409 86.7992 86.4177 94.4495 86.4177 103.861C86.4177 115.337 96.3374 124.459 108.808 124.459C121.294 124.459 131.214 115.337 131.214 103.861C131.214 94.4495 124.49 86.7992 115.216 84.1435V68.8566C115.216 66.7927 113.941 64.7287 112.02 63.8481L67.2086 40.3054C65.2877 39.1358 62.7365 39.1358 60.8155 40.3054C58.8946 41.4887 57.619 43.2499 57.619 45.3139V108.567L32.0169 89.4409V41.4887C41.2913 38.8331 48.0144 31.1966 48.0144 21.7712C48.0144 10.2957 38.0947 1.17303 25.6088 1.17303C13.1379 1.17303 3.2182 10.2957 3.2182 21.7712C3.2182 31.1966 9.92638 38.8331 19.2158 41.4887ZM92.8107 277.755C92.8107 282.75 88.6537 286.575 83.2211 286.575C77.7736 286.575 73.6166 282.75 73.6166 277.755C73.6166 272.746 77.7736 268.922 83.2211 268.922C88.6537 268.922 92.8107 272.746 92.8107 277.755ZM118.413 104.164C118.413 109.159 114.256 112.984 108.808 112.984C103.376 112.984 99.2187 109.159 99.2187 104.164C99.2187 99.1553 103.376 95.3301 108.808 95.3301C114.256 95.3301 118.413 99.1553 118.413 104.164ZM25.6088 12.9513C31.0565 12.9513 35.2134 16.7764 35.2134 21.7712C35.2134 26.7797 31.0565 30.6048 25.6088 30.6048C20.1762 30.6048 16.0193 26.7797 16.0193 21.7712C16.0193 16.7764 20.1762 12.9513 25.6088 12.9513Z" fill="white"/>
<path d="M163.202 94.7351V180.952L115.21 225.08V182.714C124.485 180.058 131.208 172.408 131.208 162.997C131.208 151.521 121.288 142.399 108.802 142.399C96.331 142.399 86.4112 151.521 86.4112 162.997C86.4112 172.408 93.1344 180.058 102.409 182.714V239.5C102.409 241.853 104.015 243.917 106.251 244.797C107.211 245.375 107.841 245.375 108.802 245.375C110.408 245.375 112.013 244.797 113.289 243.614L174.082 187.709C175.374 186.539 176.003 185.067 176.003 183.594V92.3822C176.003 90.9099 175.374 89.4376 174.082 88.2681L150.401 66.4865V21.7678C150.401 18.5343 147.535 15.8925 144.008 15.8925C140.482 15.8925 137.616 18.5343 137.616 21.7678V68.8533C137.616 70.3118 138.246 71.7841 139.521 72.9674L163.202 94.7351ZM108.802 171.83C103.369 171.83 99.2122 168.005 99.2122 162.997C99.2122 158.002 103.369 154.177 108.802 154.177C114.249 154.177 118.407 158.002 118.407 162.997C118.407 168.005 114.249 171.83 108.802 171.83Z" fill="white"/>
<path d="M0 236.555C0 248.031 9.91971 257.153 22.4056 257.153C34.8915 257.153 44.8113 248.031 44.8113 236.555C44.8113 227.144 38.0881 219.493 28.8137 216.838V176.825C38.0881 174.183 44.8113 166.533 44.8113 157.107C44.8113 145.646 34.8915 136.523 22.4056 136.523C9.91971 136.523 0 145.646 0 157.107C0 166.533 6.72319 174.183 16.0126 176.825V216.838C6.72319 219.493 0 227.144 0 236.555ZM12.801 157.107C12.801 152.113 16.973 148.288 22.4056 148.288C27.8533 148.288 32.0102 152.113 32.0102 157.107C32.0102 162.116 27.8533 165.941 22.4056 165.941C16.973 165.941 12.801 162.116 12.801 157.107ZM22.4056 227.722C27.8533 227.722 32.0102 231.547 32.0102 236.555C32.0102 241.55 27.8533 245.375 22.4056 245.375C16.973 245.375 12.801 241.55 12.801 236.555C12.801 231.547 16.973 227.722 22.4056 227.722Z" fill="white"/>
</g>
<defs>
<clipPath id="clip0_588_3488">
<rect width="392" height="433.263" fill="white"/>
</clipPath>
</defs>
</svg>
